<?xml version="1.0" encoding="utf-8"?>
<!-- Svg Vector Icons : http://www.onlinewebfonts.com/icon -->
<!DOCTYPE svg PUBLIC "-//W3C//DTD SVG 1.1//EN" "http://www.w3.org/Graphics/SVG/1.1/DTD/svg11.dtd">
<svg version="1.1" xmlns="http://www.w3.org/2000/svg" xmlns:xlink="http://www.w3.org/1999/xlink" x="0px" y="0px" viewBox="0 0 256 256" enable-background="new 0 0 256 256" xml:space="preserve">
<metadata> Svg Vector Icons : http://www.onlinewebfonts.com/icon </metadata>
<g><g><g><path d="M117.8,10.8c-3.8,1.8-6.7,5.9-6.7,9.8c0,1,1.8,13,4.1,26.7c2.2,13.8,3.9,25.1,3.8,25.2c-0.1,0.1-11.5,5.8-25.3,12.7C77.3,93.4,68,98.4,66.9,99.5c-2.2,2.2-3.1,4.6-3.1,7.9c0,4.9,3.4,9.3,8.1,10.6c1.3,0.4,11,2,21.5,3.6c10.6,1.7,19.7,3.1,20.4,3.4c1,0.3-4.9,6.4-51.3,52.9L10,230.2l7.7,8l7.8,7.9l52.6-52.6c50.2-50.2,52.6-52.5,53-51.1c0.2,0.9,1.8,10.7,3.5,22c1.8,11.3,3.6,21.1,3.9,21.9c3.4,6.5,12.6,8,17.7,2.9c0.9-0.9,7.1-12.6,14.3-26.8c7-13.9,12.9-25.4,12.9-25.5c0.1-0.1,11.4,1.7,25.1,3.9c13.7,2.2,25.8,4.1,26.8,4.1c2.7,0,6.4-2,8.4-4.6c2.1-2.8,2.7-6.1,1.8-9.7c-0.6-2.3-2.4-4.2-20.1-22L206.2,89l6.9-14.4c3.8-7.9,9.2-18.9,11.8-24.5c4.4-9,4.9-10.5,4.9-13.1c0-7.1-7.4-12.8-13.9-10.7c-1.1,0.3-12.5,5.8-25.5,12l-23.6,11.4l-19.5-19.3C131,14.1,127.7,11,125.8,10.5C122.7,9.5,120.3,9.7,117.8,10.8z M149,63.4c10.2,10.2,11.8,11.3,16.4,10.8c1.8-0.2,6.5-2.1,15.6-6.5c7.1-3.5,13.1-6.1,13.2-6c0.2,0.2-2.6,6.1-6,13.2c-4.3,9-6.3,13.8-6.5,15.5c-0.5,4.6,0.3,5.8,10.7,16.3c5.3,5.4,9.5,9.9,9.4,10c-0.2,0.2-5.3-0.6-11.4-1.6c-6.1-1-12.2-1.8-13.5-1.8c-2.7,0-5.5,1.2-7.4,3.1c-0.7,0.7-4.3,7.3-8,14.5c-3.7,7.2-6.8,13.2-7,13.4c-0.2,0.2-1.4-6.2-2.6-14.4c-2.6-16.8-3.4-19.1-7.1-21.5c-2.7-1.8-1.8-1.5-19.4-4.3c-10.2-1.7-14.1-2.5-13.6-2.8c0.4-0.3,6.4-3.4,13.3-6.8c6.9-3.5,13.2-6.9,14-7.7c2.1-2,3.6-5,3.6-7.5c0-1.8-2.6-19.1-3.5-23.7c-0.2-0.8-0.1-1.4,0.2-1.4C139.5,54.1,143.9,58.3,149,63.4z"/></g></g></g>
</svg>