<?xml version="1.0" encoding="utf-8"?>
<!-- Generator: Adobe Illustrator 22.1.0, SVG Export Plug-In . SVG Version: 6.00 Build 0)  -->
<svg version="1.1" id="Слой_1" xmlns:xodm="http://www.corel.com/coreldraw/odm/2003"
	 xmlns="http://www.w3.org/2000/svg" xmlns:xlink="http://www.w3.org/1999/xlink" x="0px" y="0px" viewBox="0 0 274.6 111"
	 style="enable-background:new 0 0 274.6 111;" xml:space="preserve">
<g id="Слой_x0020_1">
	<path d="M25.2,36.4V24.8h-4.1L4.4,44.4v3h7.2V73c0,10.7,6.1,17.3,18.4,17.3c3.7,0,8.1-0.8,10.2-2.5v-11c-1.9,1-4.3,1.5-6.1,1.5
		c-5.9,0-8.8-2.3-8.8-8.2V47.4h14.5v-11H25.2L25.2,36.4L25.2,36.4z M92.3,87.1v-12c-3.5,2.5-9.5,4.3-15.5,4.3
		c-11,0-17.1-4.1-18.8-11.7h36.2c0.3-1.7,0.4-4.3,0.4-6.3c0-14.3-8.8-26.6-23.8-26.6c-17.3,0-27,12.9-27,27.9
		c0,16.3,10.5,28.2,31.5,28.2C81,91.1,88.5,89.7,92.3,87.1L92.3,87.1L92.3,87.1z M81.4,58.3H57.9c1.2-7.3,5.6-11.9,12.5-11.9
		C76.5,46.4,80.5,51.1,81.4,58.3L81.4,58.3z M122.7,48L99.1,88.3v1.4h42.7l3.6-11.7h-25.2l23.7-40.3v-1.4h-41.2L99.1,48H122.7
		L122.7,48L122.7,48z M151,89.7h13.7V64.2L184,89.7h17.1l-21.9-28.2l21.7-25.1h-16.4l-19.8,23.1V13.6H151V89.7L151,89.7L151,89.7z
		 M249.2,87.1v-12c-3.5,2.5-9.5,4.3-15.5,4.3c-11,0-17.1-4.1-18.8-11.7h36.2c0.3-1.7,0.4-4.3,0.4-6.3c0-14.3-8.8-26.6-23.8-26.6
		c-17.3,0-27,12.9-27,27.9c0,16.3,10.5,28.2,31.5,28.2C238,91.1,245.4,89.7,249.2,87.1L249.2,87.1L249.2,87.1L249.2,87.1z
		 M238.3,58.3h-23.5c1.2-7.3,5.6-11.9,12.5-11.9C233.4,46.4,237.5,51.1,238.3,58.3L238.3,58.3z M260.7,89.7h13.7V13.6h-13.7V89.7z"
		/>
</g>
</svg>
