<?xml version="1.0" encoding="UTF-8"?>
<!DOCTYPE svg PUBLIC "-//W3C//DTD SVG 1.0//EN" "http://www.w3.org/TR/2001/REC-SVG-20010904/DTD/svg10.dtd">
<!-- Creator: CorelDRAW 2020 (64-Bit) -->
<?xml-stylesheet href="tezkel_logo.css" type="text/css"?>
<svg xmlns="http://www.w3.org/2000/svg" xml:space="preserve" width="454px" height="111px" version="1.0" style="shape-rendering:geometricPrecision; text-rendering:geometricPrecision; image-rendering:optimizeQuality; fill-rule:evenodd; clip-rule:evenodd"
viewBox="0 0 454 110.663"
 xmlns:xlink="http://www.w3.org/1999/xlink"
 xmlns:xodm="http://www.corel.com/coreldraw/odm/2003">
 <g id="Слой_x0020_1">
  <metadata id="CorelCorpID_0Corel-Layer"/>
  <path class="fil0" d="M59.486 1.778c10.992,0 21.292,2.724 30.138,7.473 -7.766,0.575 -13.561,1.541 -17.746,5.082 11.911,0.645 22.461,3.064 31.833,8.935 9.371,5.872 31.584,21.001 45.103,21.647 13.519,0.642 15.129,0.321 23.5,-0.646 -2.188,4.7 -11.912,17.705 -26.305,27.461 -13.026,8.829 -27.383,6.68 -31.402,5.856 -4.904,-1.608 -7.588,-8.127 -8.606,-9.495 0,0 2.253,-0.965 3.541,-1.931 1.286,-0.966 2.897,-3.541 2.897,-3.541 0,0 -4.346,-1.127 -8.21,-3.701 -3.862,-2.576 -6.76,-5.474 -6.76,-5.474 0,0 2.576,0.322 5.796,-0.966 3.218,-1.286 3.54,-3.541 3.701,-4.023 -1.449,0.482 -3.541,-0.643 -6.76,-1.61 -3.219,-0.966 -9.496,-7.886 -17.223,-10.139 -7.726,-2.254 -15.289,-1.77 -15.289,-1.77 0,0 -1.77,-1.77 -2.255,-6.438 -0.482,-4.668 0.967,-8.37 0.967,-8.37 0,0 -6.921,3.057 -9.979,5.472 -3.058,2.414 -5.472,7.403 -5.472,7.403 0,0 -12.554,0.645 -16.74,3.542 -4.186,2.896 -5.795,9.657 -6.438,10.622 -0.643,0.967 -19.636,6.117 -20.603,7.726 -0.964,1.61 2.898,15.453 12.234,18.993 9.335,3.541 22.212,-2.897 40.238,0.322 14.35,2.563 11.055,26.643 9.115,36.361 -1.021,0.146 -2.049,0.269 -3.086,0.367 1.691,-9.684 3.342,-31.559 -7.114,-33.918 -4.326,-0.975 -8.375,-1.011 -11.948,-0.722 2.477,3.716 4.683,10.863 4.176,17.477 -0.457,5.963 -2.578,12.151 -6.108,15.758 -25.818,-6.035 -44.909,-27.488 -44.909,-53.028 0,-30.224 26.734,-54.724 59.713,-54.724l0 0 0.001 -0.001zm-22.373 46.998c1.072,-1.18 1.859,-2.046 2.933,-3.226 1.824,-0.214 3.934,-0.743 5.757,-0.957 -0.643,1.18 -1.524,2.795 -2.735,3.38 -2.04,0.981 -2.933,0.753 -5.955,0.803z"/>
  <path class="fil0" d="M24.134 48.653c6.701,-23.428 28.278,-40.576 53.858,-40.576 3.946,0 7.796,0.408 11.513,1.183 0.04,-0.003 0.079,-0.005 0.121,-0.009 -8.848,-4.749 -19.148,-7.473 -30.141,-7.473 -32.979,0 -59.713,24.501 -59.713,54.725 0,24.349 17.351,44.982 41.339,52.084 0.45,-0.346 0.929,-0.727 1.422,-1.139 -9.924,-8.125 -17.007,-19.589 -19.534,-32.675 -1.252,-0.17 -2.449,-0.454 -3.591,-0.887 -9.336,-3.54 -13.198,-17.383 -12.232,-18.993 0.711,-1.188 11.227,-4.299 16.958,-6.24l0 0z"/>
  <path class="fil1" d="M204.618 30.951l0 -11.551 -4.132 0 -16.745 19.606 0 2.967 7.207 0 0 25.647c0,10.703 6.146,17.274 18.44,17.274 3.709,0 8.054,-0.848 10.174,-2.544l0 -11.021c-1.909,0.953 -4.347,1.483 -6.147,1.483 -5.935,0 -8.797,-2.332 -8.797,-8.16l0 -22.679 14.52 0 0 -11.022 -14.52 0 0 0 0 0zm67.085 50.763l0 -11.976c-3.498,2.544 -9.538,4.347 -15.474,4.347 -11.02,0 -17.062,-4.135 -18.758,-11.659l36.246 0c0.318,-1.696 0.424,-4.344 0.424,-6.253 0,-14.306 -8.797,-26.599 -23.847,-26.599 -17.273,0 -27.023,12.929 -27.023,27.871 0,16.32 10.491,28.19 31.475,28.19 5.724,0 13.142,-1.377 16.957,-3.921l0 0zm-10.917 -28.826l-23.527 0c1.167,-7.312 5.617,-11.87 12.506,-11.87 6.147,0 10.173,4.664 11.021,11.87l0 0zm41.331 -10.279l-23.632 40.27 0 1.379 42.708 0 3.603 -11.658 -25.222 0 23.74 -40.271 0 -1.378 -41.226 0 -3.603 11.658 23.632 0 0 0 0 0zm28.297 41.649l13.671 0 0 -25.435 19.393 25.435 17.063 0 -21.937 -28.19 21.725 -25.117 -16.427 0 -19.817 23.103 0 -45.889 -13.671 0 0 76.093 0 0 0 0zm98.24 -2.544l0 -11.976c-3.497,2.544 -9.538,4.347 -15.473,4.347 -11.021,0 -17.062,-4.135 -18.756,-11.659l36.244 0c0.317,-1.696 0.423,-4.344 0.423,-6.253 0,-14.306 -8.796,-26.599 -23.844,-26.599 -17.276,0 -27.026,12.929 -27.026,27.871 0,16.32 10.494,28.19 31.477,28.19 5.723,0 13.141,-1.377 16.955,-3.921l0 0 0 0zm-10.915 -28.826l-23.526 0c1.165,-7.312 5.615,-11.87 12.505,-11.87 6.146,0 10.174,4.664 11.021,11.87l0 0zm22.362 31.37l13.671 0 0 -76.093 -13.671 0 0 76.093z"/>
 </g>
</svg>
