<svg
  id="layer_1"
  data-name="Tezkel svg"
  xmlns="http://www.w3.org/2000/svg"
  viewBox="0 0 150 150"
>
  <defs>
    <style>

    </style>
  </defs>
  <title>Artboard 1</title>
  <g id="layer1">
    <path
      id="path4"
      class="cls-1"
      d="M150,75.43c0,38.42-30.11,69.89-68.53,73.16h-.41A16,16,0,0,1,67.3,135.38a17.77,17.77,0,0,0,4.09,1.36A30.74,30.74,0,0,1,68,122l4,2.45c-1.09-9.4,8.18-18.67,17.44-16.62,7.5,1.91,16.35,7.36,20.71,7.76s9.13-4.22,13.35-6.54,14.31-6.13,14.31-9.4-32.43-24-32.43-24c.28-12.13-6.13-13.22-13.21-18.4L75.61,33.74c-2-2.18-3,3.95-3.54,4.77C49.86,21.35,58.58,23.66,53,50.37a35.94,35.94,0,0,0-11.45-1.23,6.88,6.88,0,0,1,1.91,3.68,84.91,84.91,0,0,0-26.29-1,13.17,13.17,0,0,1,4.9,6L15,56.9c2.31,1.64,4.63,3.82,5.31,6.68a46.35,46.35,0,0,0-15,.27c2.32,1.23,2.46,2.46,4.23,4.5C6.13,70.8,2.86,72.71,0,74.48.54,34.29,33.79,2,74.93,2,116.35,2,150,34.83,150,75.43Z"
    />
    <path
      id="path6"
      class="cls-1"
      d="M93.6,73.93a8,8,0,0,0,5,.28c-1.5-3.55-6.54-5.59-8-5.18,0,0,.82,3.81,3,4.9Z"
    />
  </g>
</svg>
