<?xml version="1.0" encoding="utf-8"?>
<!-- Generator: Adobe Illustrator 22.1.0, SVG Export Plug-In . SVG Version: 6.00 Build 0)  -->
<svg version="1.1" id="Layer_1" xmlns="http://www.w3.org/2000/svg" xmlns:xlink="http://www.w3.org/1999/xlink" x="0px" y="0px"
	 viewBox="0 0 850.4 850.4" style="enable-background:new 0 0 850.4 850.4;" xml:space="preserve">
<style type="text/css">
	.st0{fill:#029DCD;}
	.st1{fill:#FFFFFF;}
</style>
<title>Artboard 1</title>
<g id="Layer_2_1_">
	<rect y="0" class="st0" width="850.4" height="850.4"/>
</g>
<g id="Layer_1-2">
	<path class="st1" d="M706.4,326.8c0,0-4.4,1.4-7.8-0.4s-4.8-7.8-4.8-7.8C696.1,318.1,704.1,321.4,706.4,326.8z M690.2,383.5
		c13.1,3.2,28.3,12.7,35.6,13.5s15.9-7.3,23.2-11.3s24.9-10.6,24.9-16.4S717.8,328,717.8,328s-0.6-13.3-2.8-16.5
		c-3.2-4.6-20-15.2-20-15.2l-28.7-40.8c-0.6-0.8-1.7-1-2.5-0.4c0,0-0.1,0-0.1,0.1c-0.3,0.2-0.5,0.5-0.6,0.9l-3.1,7.9l-24.8-19.2
		c-0.7-0.5-1.7-0.4-2.2,0.3c0,0,0,0,0,0c-0.1,0.3-0.3,0.4-0.3,0.6l-5.7,38.7c-2.8-1.5-5.9-2.3-9-2.5c-4.6-0.1-10.8,0.2-10.8,0.2
		l1,1.2c1,1.3,1.7,2.7,2.1,4.3l0.1,0.9c0,0-16.6-3.5-22.3-3.7s-23.2,1.9-23.2,1.9l1.8,1.4c3,2.4,5.3,5.5,6.8,9l-12.3-1.6l3.1,2.3
		c2.6,2,4.6,4.8,5.7,7.9l0.5,1.4l-8.6-0.9c-4.1-0.4-8.3-0.4-12.5,0l-7.8,0.9l1.7,1c3.1,1.8,5.9,4.1,8.3,6.8l0.4,0.4
		c0,0-26.6,14-66.4,18.8s-119.1,6.8-140.2,18.2s-54.5,25.9-68.3,27.6s-39.8,1.7-53.6-2.3c-9.4-2.7-32-19.7-47.3-29.3
		c-4.5-2.9-9.4-5-14.5-6.4l0.5,2.4c0.6,2.8,0.1,5.8-1.4,8.3c0,0-72.7-35-82.1-35h-0.5c-6.5,1.6-13.4-4.1-13.4-4.1s-1.8,35,4.7,48.1
		c3.8,7.7,9.8,14.2,17.3,18.6h-0.1c-3.3,1.1-6.8,1.3-10.1,0.5l-2.1-0.5c0,0,11.6,13.8,21.3,19.4c6.5,3.7,13.3,7,20.3,9.7
		c-3,2.5-6.6,4-10.5,4.4l-3.3,0.4c0,0,25.3,18.7,43.1,26s43.9,20,43.9,20s-19.5,35.4-26.9,40.3s-22.8,21.1-22.8,21.1
		s-17.1-0.9-24.4,4.1c-2.3,1.6-7.9,3.2-9.7,4.3c-3.5,2-4.8,6.5-2.8,10c0,0,0,0.1,0.1,0.1c0.3,0.5,0.7,1,1.1,1.5
		c4.4,4.4,15.8,8.4,30.2,7c27.6-2.5,52.6-32.7,59.1-42.4c6.5-9.7,18-35.1,24.5-35.1s64.2,6.4,66.7,11.3c1.5,3.1-8.8,15-20.1,18.2
		s-32.2,6-37.8,8.5s-9.6,25.3-15.3,31.8s-18.9,16.4-20.5,23.7s-11.5,11.1-15.3,26.5c-1.7,6.9-4.6,11-3.2,19.8c1,6,8.4,11.2,16.6,7.3
		c9.1-4.3,22.3-22.1,23.9-28.6s31.7-57,41.4-61.1c9.7-4.1,60.3-16.1,84.7-28.3c24.4-12.2,46.2-39.3,61.7-48.4c10.2-6,70,0.5,76.5,7
		s0,14.7,0,14.7l3,1.1c5.1,1.9,10.6,2.6,16,2l6.3-0.6l-0.1,0.3c-2,3.6-4.9,6.6-8.5,8.8l-2.7,1.6c6.9,3.2,14.3,5.5,21.8,6.8
		c8.4,1.1,16.9,1,25.3-0.4v1c0,4.7-1.5,9.2-4.1,13.1l-1.2,1.9c5.7,3.3,12,5.5,18.5,6.5c23.4,4.2,60.1,8.4,56.8,13.2
		c-4.9,7.3-16.3,7.3-29.3,12.9s-49.7,21.9-38.2,34.1s29.3,7.3,42.3,3.2s71.5-36.5,70.7-45.6s-26.4-24.6-26.4-24.6
		s31.3-1.4,50.8,10.8c19.5,12.2,27.6,34.9,38.8,44.2c12.8,10.7,20.6,14.3,34.4,11.8c0.1,0,3.8-1.6,3.9-1.6c6.1-1.2,10.1-7.2,9-13.3
		c-0.4-1.9-1.2-3.7-2.5-5.2c-5.2-6-17-13.2-28.7-21.6c-21.2-15.4-23.4-20.9-33.1-29.8c0,0-9.6-9.7-30-20.2s-46.3-16.5-46.3-16.5
		l-0.7-3.8c-1.7-8.8-1.3-17.9,1.1-26.5l2-7.3l0.1,0.4c1.3,4.4,2.1,9,2.2,13.5l0.1,2.3l4.4-8.6c2.1-4,3.3-8.3,3.7-12.8l0.7-10.4
		l1,1.7c1.5,2.5,2.6,5.1,3.3,7.9l1.4,5.1l2.6-10.6c1.1-4.3,1.5-8.8,1.1-13.3l-0.5-6.9c0,0,7.3-3.2,17.9-7.3S677.3,380.3,690.2,383.5
		L690.2,383.5z"/>
	<path class="st1" d="M544,301.1c-3.9,0.7-1,3.3-10.2,5.2c0.2,1.5,0.6,9.7-0.1,10.8c-0.6,0.9-1.5,1.5-2.5,2
		c-2.2,1.1-16.6,5.8-19,6.8l-7.4,2.8c-6.4,2.1,3.7-1-3,0.4c-14.5,2.8-32.6,3.3-47.2,4.6c-8.3,0.7-24.5,2-30,2.2
		c-1.5,0,0.4,0.1-3.5,0.1c-3.2,0.1-9.9,1.7-10.5,1.7c-7.5,0-22.1,1-23.5-0.1c-4.9-3.6-4.2-6.5-6.8-12.3c-3-6.3-2.6-18.4-1.9-26.6
		c0.4-3.7,11.8-18.4,14.7-19.1c1.2-0.3,1.9-0.6,3.5-0.9c3-0.7,7.4,0.4,11.6-0.6c5.3-1.2,10.5-4.6,15.2-6c1.7-0.4,3.5,0.5,4.3,2.1
		c2.6,5.3,4.9,9.4,4.7,11.5c-0.3,2.5-44.1,9.9-53.9,12.9c0,0-0.1,4.2-0.1,4.3c0.5,0.6,57.2-14.2,60.1-15.5s18.5-5.2,19-5.3
		c1.4-0.4,9.1-3.1,13.2-1.7c9.4,3,37.3,8,48.8,10.6c1.6,0.4,5.2,13.7,5.9,15.9c0.5,1.6,1.3,3.1,2.3,4.4c0.9,0.3-3.9-18.7-4.3-20.2
		c-1-4.1-5.8-5.1-5.3-5.1c1.3-0.1-33.4-5.5-45.5-9.5c-1.7-0.5-3.5-1.1-5.2-1.7l-4.3-1.5c-1.9-0.7,7-5.2,16.3-6.2
		c12.7-0.5,19.5-3.9,25.1,3.1c4.1,5.2,24.9,10.6,27.5,15.9c-0.6,0.1-0.4,3.1,0.4,8.3c0.3,2,0.4,0.9,0.5,1.6c1.5-0.3,9-4.2,11.8-3.8
		C545.8,292.4,547,299.7,544,301.1L544,301.1z"/>
</g>
</svg>
