<?xml version="1.0" encoding="UTF-8"?>
<!DOCTYPE svg PUBLIC "-//W3C//DTD SVG 1.1//EN" "http://www.w3.org/Graphics/SVG/1.1/DTD/svg11.dtd">
<!-- Creator: CorelDRAW -->
<svg xmlns="http://www.w3.org/2000/svg" xml:space="preserve" width="1024px" height="1024px" version="1.1" style="shape-rendering:geometricPrecision; text-rendering:geometricPrecision; image-rendering:optimizeQuality; fill-rule:evenodd; clip-rule:evenodd"
viewBox="0 0 1024 1024"
 xmlns:xlink="http://www.w3.org/1999/xlink"
 xmlns:xodm="http://www.corel.com/coreldraw/odm/2003">
 <defs>
  <style type="text/css">
   <![CDATA[
    .fil6 {fill:#FEFEFE}
    .fil4 {fill:#FEFEFE}
    .fil0 {fill:#019DCD}
    .fil1 {fill:#47B1D1}
    .fil5 {fill:#FEFEFE;fill-rule:nonzero}
    .fil2 {fill:#FEFEFE;fill-rule:nonzero}
    .fil3 {fill:#47B1D1;fill-rule:nonzero}
   ]]>
  </style>
 </defs>
 <g id="Слой_x0020_1">
  <metadata id="CorelCorpID_0Corel-Layer"/>
  <rect class="fil0" width="1024" height="1024"/>
  <path class="fil1" d="M0 554.84c65.54,16.54 85.64,0.62 151.4,-8.61 65.77,-9.23 113.12,-44.13 210.11,-33.25 100.58,11.28 270.43,30.28 405.76,26.94 56.15,-1.39 76.11,23.81 128.43,20.79 59.04,-3.41 83.27,-3.53 128.3,-4.13l0 467.42 -1024 0c0,-156.39 0,-312.78 0,-469.16z"/>
 </g>
 <g id="Слой_x0020_2">
  <metadata id="CorelCorpID_1Corel-Layer"/>
  <path class="fil2" d="M376.93 143.9l-7.63 4.34 -3.3 -1.91 7.63 -4.34 -3.29 -1.9 -7.64 4.33 -6.24 -3.55 4.16 -2.35 2.95 1.65 3.38 -1.91 -3.03 -1.73 3.12 -1.74 -3.3 -1.91 -3.12 1.74 -4.34 -2.43 6.42 -3.73 7.64 4.42 3.29 -1.91 -7.54 -4.42 3.29 -1.91 7.64 4.34 3.3 -1.91 -7.64 -4.34 7.55 -4.42 -1.65 -2.86 -7.55 4.42 0 -8.85 -3.3 1.91 0 8.85 -3.29 1.91 0 -8.85 -3.39 1.91 0 8.85 -6.24 3.55 0.08 -4.77 2.95 -1.65 0 -3.9 -2.95 1.73 0 -3.55 -3.38 1.91 0 3.55 -4.25 2.52 0 -7.46 7.63 -4.34 0 -3.9 -7.63 4.42 0 -3.82 7.63 -4.42 0 -3.82 -7.63 4.42 0 -8.67 -3.39 0 0 8.67 -7.54 -4.42 0 3.82 7.54 4.42 0 3.82 -7.54 -4.42 0 3.9 7.54 4.34 0 7.2 -4.07 -2.34 0 -3.39 -3.3 -1.99 0 3.47 -3.12 -1.82 0 3.81 3.12 1.83 0 4.94 -6.42 -3.73 0 -8.76 -3.38 -1.91 0 8.76 -3.3 -1.91 0 -8.76 -3.3 -1.91 0 8.76 -7.55 -4.33 -1.64 2.86 7.54 4.34 -7.63 4.42 3.3 1.91 7.63 -4.42 3.3 1.91 -7.64 4.42 3.39 1.91 7.54 -4.43 6.25 3.65 -4.08 2.43 -2.95 -1.74 -3.38 1.91 2.95 1.73 -3.04 1.74 3.3 1.91 3.12 -1.74 4.25 2.43 -6.42 3.73 -7.63 -4.42 -3.3 1.91 7.64 4.42 -3.3 1.91 -7.63 -4.42 -3.3 1.91 7.63 4.42 -7.54 4.34 1.64 2.86 7.55 -4.34 0 8.85 3.3 -1.99 0 -8.77 3.3 -1.9 0 8.85 3.29 -2 0 -8.76 6.25 -3.65 0 4.86 -2.95 1.65 0 3.9 2.95 -1.73 0 3.56 3.38 -1.91 0 -3.56 4.25 -2.52 0 7.38 -7.63 4.42 0 3.82 7.63 -4.42 0 3.9 -7.63 4.34 0 3.82 7.63 -4.34 0 8.67 3.3 0 0 -8.67 7.64 4.34 0 -3.82 -7.64 -4.34 0 -3.82 7.64 4.34 0 -3.82 -7.64 -4.42 0 -7.12 4.17 2.35 0 3.47 3.29 1.91 0 -3.47 3.13 1.82 0 -3.82 -3.13 -1.82 0 -4.95 6.42 3.65 0 8.85 3.3 1.91 0 -8.85 3.3 1.9 0 8.85 3.38 1.91 -0.08 -8.76 7.63 4.34 1.65 -2.86 -7.55 -4.43 7.64 -4.34 -3.39 -1.91zm-29.67 -15.09l0 0 4.25 -2.43 0 4.68 -4.25 2.52 0 -4.77zm-7.46 -2.61l0 0 4.07 2.43 0 4.95 -4.07 -2.43 0 -4.95zm-1.65 12.58l0 0 -4.34 -2.43 4.17 -2.42 4.25 2.51 -4.08 2.34zm1.47 3.04l0 0 4.25 -2.51 0 4.77 -4.25 2.43 0 -4.69zm7.55 2.43l0 -4.94 4.17 2.42 0 4.95 -4.17 -2.43zm1.74 -7.81l0 0 4.08 -2.34 4.33 2.43 -4.16 2.43 -4.25 -2.52z"/>
  <path class="fil2" d="M787.65 219.78l-9.19 5.22 -3.97 -2.3 9.19 -5.22 -3.97 -2.3 -9.19 5.22 -7.52 -4.28 5.01 -2.82 3.55 1.99 4.08 -2.3 -3.66 -2.09 3.76 -2.09 -3.97 -2.3 -3.76 2.09 -5.22 -2.92 7.73 -4.49 9.19 5.32 3.97 -2.3 -9.09 -5.32 3.97 -2.3 9.19 5.22 3.97 -2.29 -9.19 -5.23 9.09 -5.32 -1.99 -3.45 -9.09 5.33 0 -10.66 -3.96 2.3 0 10.65 -3.97 2.3 0 -10.65 -4.08 2.3 0 10.65 -7.52 4.28 0.11 -5.74 3.55 -1.99 0 -4.7 -3.55 2.09 0 -4.28 -4.08 2.3 0 4.28 -5.11 3.03 0 -8.98 9.19 -5.23 0 -4.7 -9.19 5.33 0 -4.6 9.19 -5.32 0 -4.6 -9.19 5.33 0 -10.45 -4.08 0 0 10.45 -9.08 -5.33 0 4.6 9.08 5.32 0 4.6 -9.08 -5.33 0 4.7 9.08 5.23 0 8.67 -4.91 -2.82 0 -4.08 -3.97 -2.4 0 4.18 -3.76 -2.2 0 4.6 3.76 2.19 0 5.96 -7.72 -4.49 0 -10.55 -4.08 -2.3 0 10.55 -3.97 -2.3 0 -10.55 -3.96 -2.3 0 10.55 -9.09 -5.22 -1.99 3.45 9.09 5.22 -9.19 5.33 3.97 2.29 9.19 -5.32 3.97 2.29 -9.19 5.33 4.07 2.3 9.09 -5.33 7.52 4.39 -4.91 2.92 -3.55 -2.09 -4.08 2.3 3.55 2.09 -3.65 2.09 3.97 2.3 3.76 -2.09 5.12 2.92 -7.73 4.49 -9.2 -5.32 -3.96 2.29 9.19 5.33 -3.97 2.3 -9.19 -5.33 -3.97 2.3 9.19 5.33 -9.09 5.22 1.99 3.45 9.09 -5.23 0 10.66 3.96 -2.4 0 -10.55 3.97 -2.3 0 10.65 3.97 -2.4 0 -10.55 7.52 -4.38 0 5.84 -3.55 1.99 0 4.7 3.55 -2.09 0 4.28 4.07 -2.3 0 -4.28 5.12 -3.03 0 8.88 -9.19 5.33 0 4.59 9.19 -5.32 0 4.7 -9.19 5.22 0 4.6 9.19 -5.23 0 10.45 3.97 0 0 -10.45 9.19 5.23 0 -4.6 -9.19 -5.22 0 -4.6 9.19 5.22 0 -4.59 -9.19 -5.33 0 -8.56 5.01 2.82 0 4.17 3.97 2.3 0 -4.18 3.76 2.2 0 -4.6 -3.76 -2.19 0 -5.95 7.73 4.38 0 10.66 3.97 2.29 0 -10.65 3.97 2.3 0 10.65 4.07 2.3 -0.1 -10.55 9.19 5.22 1.99 -3.44 -9.09 -5.33 9.19 -5.22 -4.07 -2.3zm-35.72 -18.18l0 0 5.11 -2.92 0 5.64 -5.11 3.03 0 -5.75zm-8.99 -3.13l0 0 4.91 2.93 0 5.95 -4.91 -2.93 0 -5.95zm-1.98 15.15l0 0 -5.22 -2.93 5.01 -2.92 5.12 3.03 -4.91 2.82zm1.77 3.65l0 0 5.12 -3.03 0 5.75 -5.12 2.92 0 -5.64zm9.09 2.93l0 -5.96 5.01 2.93 0 5.95 -5.01 -2.92zm2.09 -9.4l0 0 4.91 -2.82 5.22 2.92 -5.01 2.92 -5.12 -3.02z"/>
  <path class="fil2" d="M959.89 103.38l-9 5.11 -3.88 -2.25 9 -5.11 -3.89 -2.25 -9 5.11 -7.36 -4.19 4.91 -2.77 3.48 1.95 3.98 -2.25 -3.58 -2.05 3.69 -2.04 -3.89 -2.25 -3.68 2.04 -5.11 -2.86 7.56 -4.39 9 5.21 3.89 -2.25 -8.9 -5.21 3.89 -2.25 8.99 5.11 3.89 -2.25 -9 -5.11 8.9 -5.22 -1.95 -3.37 -8.89 5.21 0 -10.43 -3.89 2.25 0 10.43 -3.88 2.25 0 -10.43 -3.99 2.25 0 10.43 -7.36 4.19 0.1 -5.62 3.48 -1.94 0 -4.61 -3.48 2.05 0 -4.19 -3.99 2.25 0 4.19 -5.01 2.96 0 -8.79 9 -5.11 0 -4.6 -9 5.21 0 -4.5 9 -5.21 0 -4.5 -9 5.21 0 -10.22 -3.99 0 0 10.22 -8.89 -5.21 0 4.5 8.89 5.21 0 4.5 -8.89 -5.21 0 4.6 8.89 5.11 0 8.49 -4.8 -2.76 0 -3.99 -3.89 -2.35 0 4.09 -3.68 -2.15 0 4.5 3.68 2.15 0 5.82 -7.56 -4.39 0 -10.33 -3.99 -2.25 0 10.33 -3.89 -2.25 0 -10.33 -3.88 -2.25 0 10.33 -8.9 -5.11 -1.94 3.37 8.89 5.11 -8.99 5.22 3.88 2.25 9 -5.22 3.89 2.25 -9 5.22 3.99 2.25 8.89 -5.22 7.36 4.3 -4.8 2.86 -3.48 -2.05 -3.99 2.25 3.48 2.05 -3.58 2.04 3.89 2.25 3.68 -2.04 5.01 2.86 -7.57 4.4 -9 -5.22 -3.88 2.25 9 5.22 -3.89 2.25 -9 -5.22 -3.88 2.25 8.99 5.22 -8.89 5.11 1.94 3.37 8.9 -5.11 0 10.43 3.88 -2.35 0 -10.33 3.89 -2.25 0 10.43 3.88 -2.35 0 -10.33 7.37 -4.29 0 5.72 -3.48 1.95 0 4.6 3.48 -2.05 0 4.2 3.98 -2.25 0 -4.2 5.01 -2.96 0 8.69 -8.99 5.21 0 4.5 8.99 -5.21 0 4.6 -8.99 5.11 0 4.5 8.99 -5.11 0 10.22 3.89 0 0 -10.22 9 5.11 0 -4.5 -9 -5.11 0 -4.5 9 5.11 0 -4.5 -9 -5.21 0 -8.39 4.91 2.77 0 4.09 3.88 2.25 0 -4.09 3.69 2.14 0 -4.5 -3.69 -2.14 0 -5.83 7.57 4.29 0 10.43 3.89 2.25 0 -10.43 3.88 2.25 0 10.43 3.99 2.25 -0.1 -10.33 8.99 5.12 1.95 -3.38 -8.9 -5.21 9 -5.12 -3.99 -2.24zm-34.97 -17.8l0 0 5.01 -2.86 0 5.52 -5.01 2.97 0 -5.63zm-8.79 -3.06l0 0 4.8 2.86 0 5.83 -4.8 -2.87 0 -5.82zm-1.94 14.82l0 0 -5.12 -2.86 4.91 -2.86 5.01 2.96 -4.8 2.76zm1.73 3.58l0 0 5.01 -2.96 0 5.62 -5.01 2.86 0 -5.52zm8.9 2.86l0 -5.82 4.91 2.86 0 5.83 -4.91 -2.87zm2.04 -9.2l0 0 4.81 -2.76 5.11 2.86 -4.9 2.87 -5.02 -2.97z"/>
  <path class="fil2" d="M47.53 434.59l-3.03 1.72 -1.31 -0.76 3.03 -1.72 -1.31 -0.75 -3.02 1.72 -2.48 -1.41 1.65 -0.93 1.17 0.65 1.34 -0.76 -1.2 -0.69 1.24 -0.68 -1.31 -0.76 -1.24 0.69 -1.72 -0.97 2.55 -1.48 3.02 1.76 1.31 -0.76 -2.99 -1.75 1.31 -0.76 3.02 1.72 1.31 -0.76 -3.03 -1.72 3 -1.75 -0.66 -1.14 -2.99 1.76 0 -3.51 -1.31 0.75 0 3.51 -1.31 0.76 0 -3.51 -1.34 0.76 0 3.51 -2.48 1.41 0.04 -1.89 1.17 -0.66 0 -1.55 -1.17 0.69 0 -1.41 -1.35 0.76 0 1.41 -1.68 1 0 -2.96 3.03 -1.72 0 -1.55 -3.03 1.75 0 -1.51 3.03 -1.76 0 -1.51 -3.03 1.75 0 -3.44 -1.35 0 0 3.44 -2.99 -1.75 0 1.51 2.99 1.76 0 1.51 -2.99 -1.75 0 1.55 2.99 1.72 0 2.85 -1.61 -0.93 0 -1.34 -1.31 -0.79 0 1.38 -1.24 -0.73 0 1.52 1.24 0.72 0 1.96 -2.55 -1.48 0 -3.47 -1.34 -0.76 0 3.48 -1.31 -0.76 0 -3.48 -1.31 -0.75 0 3.47 -2.99 -1.72 -0.65 1.14 2.99 1.72 -3.03 1.75 1.31 0.76 3.03 -1.76 1.31 0.76 -3.03 1.76 1.34 0.75 2.99 -1.75 2.48 1.44 -1.62 0.97 -1.17 -0.69 -1.34 0.76 1.17 0.69 -1.2 0.68 1.31 0.76 1.23 -0.69 1.69 0.97 -2.55 1.48 -3.03 -1.76 -1.3 0.76 3.03 1.75 -1.31 0.76 -3.03 -1.75 -1.31 0.75 3.03 1.76 -2.99 1.72 0.65 1.14 2.99 -1.73 0 3.51 1.31 -0.79 0 -3.47 1.31 -0.76 0 3.51 1.31 -0.79 0 -3.48 2.48 -1.44 0 1.92 -1.17 0.66 0 1.55 1.17 -0.69 0 1.41 1.34 -0.76 0 -1.41 1.68 -1 0 2.93 -3.02 1.76 0 1.51 3.02 -1.76 0 1.55 -3.02 1.72 0 1.52 3.02 -1.72 0 3.44 1.31 0 0 -3.44 3.03 1.72 0 -1.52 -3.03 -1.72 0 -1.51 3.03 1.72 0 -1.51 -3.03 -1.76 0 -2.82 1.66 0.93 0 1.37 1.3 0.76 0 -1.38 1.24 0.73 0 -1.52 -1.24 -0.72 0 -1.96 2.55 1.44 0 3.51 1.31 0.76 0 -3.51 1.31 0.76 0 3.51 1.34 0.75 -0.03 -3.47 3.02 1.72 0.66 -1.14 -3 -1.75 3.03 -1.72 -1.34 -0.76zm-11.77 -5.99l0 0 1.68 -0.96 0 1.86 -1.68 0.99 0 -1.89zm-2.96 -1.03l0 0 1.61 0.96 0 1.96 -1.61 -0.96 0 -1.96zm-0.66 4.99l0 0 -1.72 -0.96 1.66 -0.97 1.68 1 -1.62 0.93zm0.59 1.2l0 0 1.68 -0.99 0 1.89 -1.68 0.96 0 -1.86zm2.99 0.97l0 -1.96 1.66 0.96 0 1.96 -1.66 -0.96zm0.69 -3.1l0 0 1.62 -0.93 1.72 0.96 -1.65 0.97 -1.69 -1z"/>
  <path class="fil2" d="M138.94 122.62l0.28 -12.69 4.75 -2.63 -0.2 12.69 4.82 -2.71 9.31 -17.63 -0.22 6.82 -4.27 2.39 -0.14 5.56 4.21 2.76 4.83 -2.63 0.14 -5.24 6.26 -3.42 -11.3 16.76 -0.06 5.47 11 -6.06 -0.06 5.48 -11.08 6.13 -0.07 5.47 11.01 -6.13 -0.21 12.53 4.76 0.14 0.28 -12.53 10.81 6.47 0.06 -5.47 -10.8 -6.55 0.14 -5.47 10.8 6.55 0.15 -5.55 -10.68 -16.78 5.8 3.47 -0.06 4.92 4.76 2.84 4.44 -2.23 0.14 -5.55 -4.45 -2.61 0.22 -7.14 8.85 18.14 4.69 2.84 0.28 -12.61 4.69 2.76 -0.2 12.69 4.68 2.84 0.2 -12.69 10.73 6.48 2.52 -4.06 -10.72 -6.47 11.01 -6.13 -4.69 -2.85 -11.09 6.14 -4.68 -2.84 11.08 -6.06 -4.69 -2.92 -19.98 0.77 6.02 -3.27 4.21 2.53 4.83 -2.63 0.3 -5.08 -4.76 -2.84 -4.51 2.47 -6.04 -3.63 20.14 1.37 4.83 -2.63 -10.88 -6.55 4.83 -2.63 10.88 6.47 4.75 -2.63 -10.8 -6.55 10.93 -6.06 -2.31 -4.19 -10.93 6.05 0.2 -12.6 -4.75 2.63 -0.28 12.68 -4.75 2.64 0.2 -12.61 -4.83 2.63 -9.3 17.63 0.13 -6.82 4.28 -2.39 0.14 -5.56 -4.21 -2.76 -4.83 2.71 -0.14 5.16 -6.18 3.42 11.3 -16.76 0.06 -5.47 -11.08 6.06 0.14 -5.48 11.08 -6.13 0.07 -5.48 -11.09 6.14 0.28 -12.53 -4.75 -0.06 -0.29 12.53 -10.8 -6.56 -0.14 5.48 10.88 6.55 -0.15 5.47 -10.8 -6.55 -0.14 5.55 10.67 16.86 -5.87 -3.55 0.06 -4.92 -4.69 -2.84 -4.51 2.23 -0.14 5.55 4.45 2.69 -0.14 7.05 -8.85 -18.13 -4.69 -2.84 -0.28 12.69 -4.69 -2.84 0.2 -12.69 -4.68 -2.84 -0.21 12.69 -10.8 -6.48 -2.45 4.05 10.73 6.48 -11.09 6.13 4.77 2.84 11.08 -6.13 4.69 2.84 -11.08 6.14 4.68 2.84 19.9 -0.85 -5.94 3.35 -4.2 -2.53 -4.91 2.63 -0.31 5.08 4.77 2.84 4.51 -2.47 6.12 3.63 -20.14 -1.38 -4.84 2.64 10.89 6.55 -4.83 2.71 -10.89 -6.55 -4.75 2.63 10.81 6.55 -11.01 6.06 2.31 4.19 11.01 -6.05 -0.28 12.6 4.83 -2.63zm40.6 -25.41l0 0 -0.14 7.06 -5.87 -3.47 0.14 -7.14 5.87 3.55zm8.71 -7.24l0 0 -5.94 3.27 -6.12 -3.63 5.94 -3.35 6.12 3.71zm-14.23 -11.38l0 0 6.25 -3.5 -0.14 6.82 -6.25 3.5 0.14 -6.82zm-4.76 -0.46l0 0 -0.14 7.14 -5.88 -3.47 0.14 -7.14 5.88 3.47zm-8.7 7.56l0 0 6.04 3.71 -5.94 3.27 -6.12 -3.71 6.02 -3.27zm8.35 7.83l0 0 -0.14 6.82 -6.26 3.5 0.14 -6.82 6.26 -3.5z"/>
  <path class="fil2" d="M61.73 265.69l0.25 -11.04 4.13 -2.29 -0.17 11.04 4.2 -2.36 8.1 -15.34 -0.19 5.94 -3.72 2.07 -0.12 4.84 3.66 2.4 4.21 -2.29 0.12 -4.55 5.45 -2.99 -9.83 14.6 -0.06 4.76 9.58 -5.27 -0.05 4.76 -9.65 5.34 -0.06 4.77 9.58 -5.35 -0.17 10.91 4.14 0.13 0.24 -10.91 9.41 5.63 0.05 -4.76 -9.4 -5.7 0.12 -4.77 9.41 5.71 0.12 -4.84 -9.29 -14.6 5.05 3.02 -0.06 4.28 4.15 2.47 3.86 -1.94 0.13 -4.83 -3.88 -2.27 0.19 -6.21 7.71 15.78 4.08 2.48 0.24 -10.98 4.08 2.4 -0.17 11.05 4.08 2.47 0.17 -11.04 9.34 5.63 2.2 -3.53 -9.34 -5.63 9.58 -5.34 -4.08 -2.48 -9.65 5.35 -4.08 -2.48 9.65 -5.27 -4.08 -2.54 -17.39 0.67 5.24 -2.85 3.66 2.2 4.21 -2.29 0.26 -4.42 -4.15 -2.47 -3.93 2.15 -5.25 -3.16 17.53 1.19 4.21 -2.29 -9.47 -5.7 4.2 -2.29 9.47 5.63 4.14 -2.28 -9.4 -5.71 9.51 -5.27 -2.02 -3.66 -9.51 5.28 0.18 -10.98 -4.14 2.29 -0.24 11.05 -4.14 2.29 0.18 -10.98 -4.21 2.29 -8.1 15.35 0.12 -5.94 3.72 -2.08 0.13 -4.83 -3.66 -2.41 -4.21 2.36 -0.12 4.49 -5.38 2.98 9.83 -14.59 0.05 -4.76 -9.64 5.27 0.12 -4.76 9.65 -5.35 0.06 -4.76 -9.65 5.34 0.24 -10.91 -4.14 -0.05 -0.25 10.9 -9.4 -5.7 -0.12 4.77 9.47 5.7 -0.13 4.76 -9.4 -5.7 -0.12 4.83 9.29 14.68 -5.12 -3.09 0.06 -4.28 -4.08 -2.48 -3.93 1.95 -0.13 4.83 3.88 2.34 -0.12 6.14 -7.71 -15.79 -4.08 -2.47 -0.25 11.05 -4.08 -2.48 0.18 -11.04 -4.08 -2.48 -0.18 11.05 -9.4 -5.64 -2.13 3.53 9.34 5.63 -9.65 5.35 4.15 2.47 9.65 -5.34 4.07 2.47 -9.64 5.34 4.08 2.48 17.32 -0.74 -5.17 2.91 -3.67 -2.2 -4.27 2.29 -0.26 4.42 4.15 2.48 3.93 -2.16 5.32 3.16 -17.54 -1.19 -4.2 2.29 9.47 5.7 -4.2 2.36 -9.47 -5.7 -4.14 2.29 9.4 5.7 -9.58 5.28 2.01 3.65 9.58 -5.27 -0.24 10.97 4.2 -2.29zm35.35 -22.12l0 0 -0.12 6.15 -5.11 -3.03 0.12 -6.21 5.11 3.09zm7.58 -6.3l0 0 -5.17 2.84 -5.32 -3.16 5.16 -2.91 5.33 3.23zm-12.38 -9.91l0 0 5.44 -3.05 -0.12 5.94 -5.45 3.05 0.13 -5.94zm-4.15 -0.4l0 0 -0.12 6.22 -5.12 -3.03 0.13 -6.21 5.11 3.02zm-7.57 6.58l0 0 5.25 3.23 -5.17 2.85 -5.32 -3.24 5.24 -2.84zm7.26 6.81l0 0 -0.12 5.94 -5.44 3.05 0.12 -5.93 5.44 -3.06z"/>
  <path class="fil2" d="M893.43 272.01l0.18 -8.38 3.14 -1.74 -0.14 8.38 3.19 -1.79 6.15 -11.65 -0.14 4.51 -2.83 1.58 -0.09 3.67 2.78 1.82 3.19 -1.74 0.1 -3.45 4.13 -2.27 -7.46 11.07 -0.05 3.62 7.27 -4 -0.04 3.61 -7.32 4.05 -0.04 3.62 7.27 -4.06 -0.14 8.28 3.15 0.09 0.18 -8.27 7.14 4.27 0.04 -3.61 -7.13 -4.33 0.09 -3.61 7.13 4.33 0.1 -3.67 -7.05 -11.08 3.83 2.29 -0.04 3.25 3.14 1.88 2.93 -1.48 0.1 -3.67 -2.94 -1.72 0.14 -4.71 5.85 11.98 3.09 1.87 0.19 -8.32 3.09 1.82 -0.13 8.38 3.1 1.88 0.13 -8.38 7.08 4.27 1.67 -2.67 -7.08 -4.28 7.27 -4.05 -3.1 -1.88 -7.32 4.06 -3.09 -1.88 7.32 -4 -3.1 -1.93 -13.19 0.51 3.97 -2.16 2.78 1.67 3.19 -1.74 0.2 -3.35 -3.15 -1.88 -2.98 1.63 -3.99 -2.4 13.31 0.91 3.19 -1.74 -7.19 -4.32 3.19 -1.74 7.19 4.27 3.14 -1.73 -7.14 -4.33 7.22 -4 -1.53 -2.77 -7.21 4 0.13 -8.33 -3.14 1.74 -0.18 8.38 -3.14 1.73 0.13 -8.32 -3.19 1.73 -6.15 11.65 0.1 -4.51 2.82 -1.58 0.1 -3.66 -2.79 -1.83 -3.19 1.79 -0.09 3.41 -4.08 2.26 7.46 -11.07 0.04 -3.61 -7.32 4 0.09 -3.62 7.32 -4.05 0.05 -3.62 -7.32 4.06 0.18 -8.28 -3.14 -0.04 -0.19 8.27 -7.13 -4.32 -0.1 3.61 7.19 4.33 -0.09 3.61 -7.14 -4.32 -0.09 3.66 7.05 11.14 -3.88 -2.35 0.04 -3.25 -3.1 -1.87 -2.98 1.47 -0.09 3.67 2.94 1.77 -0.1 4.66 -5.84 -11.97 -3.1 -1.88 -0.18 8.38 -3.1 -1.88 0.13 -8.38 -3.09 -1.87 -0.13 8.38 -7.14 -4.28 -1.61 2.68 7.08 4.27 -7.32 4.06 3.15 1.87 7.32 -4.05 3.09 1.87 -7.32 4.06 3.1 1.87 13.14 -0.56 -3.92 2.21 -2.78 -1.66 -3.25 1.73 -0.19 3.36 3.14 1.87 2.98 -1.63 4.04 2.4 -13.3 -0.91 -3.19 1.74 7.19 4.33 -3.2 1.79 -7.18 -4.33 -3.14 1.74 7.14 4.32 -7.27 4 1.52 2.78 7.27 -4 -0.18 8.32 3.19 -1.73zm26.81 -16.79l0 0 -0.09 4.66 -3.88 -2.29 0.09 -4.71 3.88 2.34zm5.75 -4.78l0 0 -3.92 2.16 -4.04 -2.4 3.92 -2.21 4.04 2.45zm-9.39 -7.51l0 0 4.13 -2.32 -0.1 4.51 -4.13 2.31 0.1 -4.5zm-3.15 -0.31l0 0 -0.09 4.72 -3.88 -2.3 0.09 -4.71 3.88 2.29zm-5.74 4.99l0 0 3.98 2.45 -3.92 2.16 -4.04 -2.45 3.98 -2.16zm5.51 5.17l0 0 -0.09 4.51 -4.13 2.31 0.09 -4.5 4.13 -2.32z"/>
  <path class="fil2" d="M486.7 229.42l0.24 -11.02 4.13 -2.28 -0.18 11.01 4.19 -2.35 8.08 -15.3 -0.19 5.92 -3.71 2.07 -0.12 4.82 3.65 2.4 4.19 -2.28 0.13 -4.54 5.43 -2.98 -9.8 14.55 -0.06 4.75 9.55 -5.26 -0.05 4.75 -9.62 5.33 -0.06 4.75 9.55 -5.33 -0.17 10.87 4.13 0.13 0.24 -10.88 9.38 5.62 0.05 -4.75 -9.37 -5.68 0.12 -4.75 9.38 5.68 0.12 -4.81 -9.26 -14.57 5.03 3.02 -0.06 4.26 4.14 2.47 3.85 -1.94 0.12 -4.82 -3.86 -2.26 0.19 -6.19 7.69 15.74 4.06 2.46 0.25 -10.94 4.06 2.4 -0.17 11.01 4.07 2.47 0.17 -11.02 9.31 5.62 2.19 -3.52 -9.3 -5.61 9.55 -5.33 -4.07 -2.47 -9.62 5.33 -4.07 -2.47 9.62 -5.25 -4.07 -2.54 -17.34 0.67 5.23 -2.84 3.65 2.2 4.19 -2.29 0.26 -4.4 -4.13 -2.47 -3.92 2.15 -5.24 -3.16 17.48 1.19 4.2 -2.28 -9.45 -5.69 4.19 -2.28 9.45 5.62 4.12 -2.28 -9.37 -5.69 9.48 -5.26 -2.01 -3.64 -9.48 5.26 0.18 -10.95 -4.13 2.29 -0.24 11.01 -4.13 2.28 0.18 -10.94 -4.19 2.28 -8.08 15.3 0.12 -5.92 3.71 -2.07 0.13 -4.82 -3.66 -2.4 -4.19 2.35 -0.13 4.48 -5.36 2.97 9.81 -14.55 0.05 -4.75 -9.62 5.26 0.13 -4.75 9.61 -5.32 0.06 -4.75 -9.62 5.32 0.24 -10.87 -4.13 -0.06 -0.24 10.88 -9.38 -5.69 -0.12 4.75 9.44 5.69 -0.12 4.74 -9.37 -5.68 -0.13 4.82 9.26 14.63 -5.1 -3.08 0.06 -4.27 -4.07 -2.47 -3.92 1.94 -0.12 4.82 3.86 2.33 -0.12 6.13 -7.68 -15.74 -4.07 -2.47 -0.25 11.01 -4.06 -2.46 0.17 -11.02 -4.06 -2.46 -0.18 11.01 -9.38 -5.62 -2.12 3.52 9.31 5.62 -9.62 5.32 4.13 2.47 9.62 -5.33 4.07 2.47 -9.62 5.33 4.07 2.46 17.27 -0.73 -5.15 2.9 -3.66 -2.19 -4.26 2.28 -0.26 4.41 4.14 2.46 3.91 -2.14 5.31 3.15 -17.48 -1.19 -4.19 2.28 9.44 5.69 -4.19 2.35 -9.45 -5.69 -4.12 2.29 9.38 5.68 -9.55 5.26 2 3.64 9.55 -5.25 -0.24 10.94 4.19 -2.28zm35.24 -22.06l0 0 -0.12 6.13 -5.1 -3.02 0.12 -6.19 5.1 3.08zm7.56 -6.28l0 0 -5.16 2.83 -5.31 -3.15 5.16 -2.9 5.31 3.22zm-12.35 -9.88l0 0 5.43 -3.04 -0.12 5.92 -5.43 3.04 0.12 -5.92zm-4.13 -0.4l0 0 -0.12 6.2 -5.1 -3.02 0.12 -6.19 5.1 3.01zm-7.55 6.56l0 0 5.24 3.22 -5.16 2.84 -5.3 -3.22 5.22 -2.84zm7.24 6.79l0 0 -0.12 5.92 -5.43 3.05 0.13 -5.92 5.42 -3.05z"/>
  <path class="fil2" d="M612.46 124.86l0.25 -11.41 4.27 -2.36 -0.18 11.4 4.34 -2.43 8.37 -15.85 -0.2 6.13 -3.84 2.15 -0.13 4.99 3.78 2.48 4.34 -2.36 0.13 -4.71 5.63 -3.08 -10.16 15.07 -0.05 4.92 9.89 -5.45 -0.06 4.92 -9.96 5.52 -0.06 4.92 9.89 -5.52 -0.18 11.26 4.28 0.13 0.25 -11.26 9.71 5.82 0.06 -4.92 -9.71 -5.89 0.13 -4.92 9.71 5.89 0.13 -4.99 -9.6 -15.08 5.22 3.12 -0.06 4.42 4.28 2.55 3.99 -2 0.13 -4.99 -4 -2.34 0.19 -6.42 7.96 16.3 4.21 2.55 0.26 -11.33 4.21 2.48 -0.18 11.41 4.21 2.55 0.18 -11.4 9.64 5.82 2.27 -3.65 -9.64 -5.81 9.89 -5.52 -4.21 -2.56 -9.96 5.52 -4.22 -2.55 9.97 -5.45 -4.21 -2.62 -17.96 0.69 5.4 -2.94 3.79 2.27 4.34 -2.36 0.27 -4.56 -4.28 -2.56 -4.06 2.22 -5.42 -3.26 18.1 1.23 4.34 -2.36 -9.78 -5.89 4.34 -2.37 9.78 5.82 4.27 -2.36 -9.7 -5.89 9.82 -5.45 -2.08 -3.77 -9.82 5.45 0.18 -11.34 -4.27 2.37 -0.25 11.4 -4.27 2.37 0.18 -11.34 -4.34 2.37 -8.37 15.84 0.13 -6.13 3.84 -2.15 0.13 -4.99 -3.79 -2.48 -4.34 2.44 -0.13 4.63 -5.55 3.08 10.15 -15.07 0.06 -4.92 -9.96 5.45 0.12 -4.92 9.97 -5.52 0.05 -4.92 -9.96 5.52 0.25 -11.26 -4.27 -0.06 -0.26 11.26 -9.71 -5.89 -0.12 4.92 9.78 5.89 -0.13 4.92 -9.71 -5.89 -0.13 4.99 9.59 15.16 -5.28 -3.2 0.06 -4.42 -4.21 -2.55 -4.06 2.01 -0.13 4.99 4 2.41 -0.13 6.34 -7.95 -16.3 -4.22 -2.55 -0.25 11.4 -4.21 -2.55 0.18 -11.41 -4.21 -2.55 -0.19 11.41 -9.7 -5.82 -2.2 3.64 9.64 5.82 -9.97 5.51 4.29 2.56 9.96 -5.52 4.21 2.56 -9.96 5.51 4.21 2.55 17.89 -0.76 -5.34 3.01 -3.78 -2.27 -4.41 2.37 -0.28 4.56 4.29 2.55 4.05 -2.22 5.5 3.26 -18.11 -1.23 -4.34 2.37 9.78 5.89 -4.34 2.43 -9.78 -5.89 -4.27 2.37 9.71 5.89 -9.89 5.44 2.08 3.77 9.89 -5.44 -0.25 11.33 4.34 -2.36zm36.5 -22.84l0 0 -0.13 6.34 -5.28 -3.12 0.13 -6.42 5.28 3.2zm7.82 -6.51l0 0 -5.34 2.93 -5.5 -3.26 5.34 -3.01 5.5 3.34zm-12.79 -10.23l0 0 5.63 -3.15 -0.13 6.13 -5.62 3.15 0.12 -6.13zm-4.28 -0.42l0 0 -0.12 6.42 -5.28 -3.12 0.12 -6.42 5.28 3.12zm-7.82 6.8l0 0 5.43 3.33 -5.34 2.94 -5.49 -3.34 5.4 -2.93zm7.51 7.03l0 0 -0.13 6.13 -5.62 3.16 0.13 -6.14 5.62 -3.15z"/>
  <path class="fil2" d="M994.08 641.74l-9.8 5.57 -4.23 -2.45 9.8 -5.57 -4.23 -2.45 -9.81 5.57 -8.02 -4.57 5.35 -3.01 3.79 2.12 4.34 -2.45 -3.9 -2.23 4.01 -2.23 -4.23 -2.45 -4.01 2.23 -5.57 -3.12 8.24 -4.79 9.81 5.68 4.23 -2.45 -9.69 -5.68 4.23 -2.45 9.8 5.57 4.24 -2.45 -9.81 -5.57 9.7 -5.68 -2.12 -3.68 -9.69 5.68 0 -11.36 -4.24 2.45 0 11.36 -4.23 2.45 0 -11.36 -4.34 2.45 0 11.37 -8.03 4.56 0.12 -6.12 3.78 -2.12 0 -5.01 -3.78 2.22 0 -4.56 -4.35 2.45 0 4.56 -5.46 3.23 0 -9.58 9.81 -5.57 0 -5.01 -9.81 5.68 0 -4.9 9.81 -5.68 0 -4.9 -9.81 5.68 0 -11.14 -4.34 0 0 11.14 -9.69 -5.68 0 4.9 9.69 5.68 0 4.9 -9.69 -5.68 0 5.01 9.69 5.57 0 9.25 -5.24 -3.01 0 -4.34 -4.23 -2.56 0 4.45 -4.01 -2.34 0 4.9 4.01 2.34 0 6.36 -8.25 -4.8 0 -11.25 -4.34 -2.45 0 11.25 -4.23 -2.45 0 -11.25 -4.24 -2.45 0 11.25 -9.69 -5.57 -2.12 3.68 9.7 5.57 -9.81 5.68 4.24 2.45 9.8 -5.68 4.23 2.45 -9.8 5.68 4.34 2.45 9.7 -5.68 8.02 4.68 -5.24 3.12 -3.79 -2.23 -4.34 2.45 3.79 2.23 -3.9 2.23 4.23 2.45 4.01 -2.23 5.46 3.12 -8.24 4.79 -9.81 -5.68 -4.23 2.45 9.8 5.68 -4.23 2.45 -9.8 -5.68 -4.24 2.45 9.81 5.68 -9.7 5.57 2.12 3.68 9.69 -5.57 0 11.36 4.24 -2.56 0 -11.25 4.23 -2.45 0 11.36 4.23 -2.56 0 -11.25 8.02 -4.68 0 6.24 -3.78 2.11 0 5.02 3.78 -2.23 0 4.57 4.35 -2.46 0 -4.56 5.46 -3.23 0 9.46 -9.81 5.69 0 4.9 9.81 -5.68 0 5.01 -9.81 5.57 0 4.9 9.81 -5.57 0 11.14 4.23 0 0 -11.14 9.8 5.57 0 -4.9 -9.8 -5.57 0 -4.9 9.8 5.57 0 -4.9 -9.8 -5.69 0 -9.13 5.35 3.01 0 4.45 4.23 2.46 0 -4.46 4.01 2.34 0 -4.9 -4.01 -2.34 0 -6.35 8.25 4.68 0 11.36 4.23 2.45 0 -11.36 4.23 2.45 0 11.36 4.35 2.45 -0.11 -11.25 9.8 5.57 2.12 -3.68 -9.7 -5.68 9.81 -5.57 -4.35 -2.45zm-38.1 -19.38l0 0 5.46 -3.12 0 6.01 -5.46 3.23 0 -6.12zm-9.58 -3.34l0 0 5.24 3.12 0 6.34 -5.24 -3.12 0 -6.34zm-2.12 16.15l0 0 -5.57 -3.12 5.35 -3.12 5.46 3.23 -5.24 3.01zm1.9 3.9l0 0 5.46 -3.23 0 6.12 -5.46 3.12 0 -6.01zm9.69 3.12l0 -6.35 5.35 3.12 0 6.35 -5.35 -3.12zm2.23 -10.03l0 0 5.23 -3.01 5.58 3.12 -5.35 3.12 -5.46 -3.23z"/>
 </g>
 <g id="Слой_x0020_3">
  <metadata id="CorelCorpID_2Corel-Layer"/>
  <path class="fil3" d="M83.56 520.06c1.46,5.33 7.23,5.7 10.49,8.99 11.83,9.58 23.42,23.54 38.86,21.77 -12.77,-6.5 -23.48,-17.32 -35.03,-26.32 -4.24,-2.92 -9.35,-6.5 -14.32,-4.44zm-25.76 15.3c-9.09,7.52 -19.89,10.82 -30.09,15.37 9,3.46 18.6,-1.07 26.79,-5.84 9.72,-5.21 20.7,-13.77 21.21,-28.06 -5.85,6.34 -11.39,13.18 -17.91,18.53zm-9.69 -9.15c-7.14,6.99 -16.36,8.96 -24.5,13.51 21.42,-0.28 41.21,-17.77 50.79,-40.51 -11.68,4.28 -16.64,19.19 -26.29,27zm34.93 -30.89c14.65,7.12 23.29,24.31 35.99,34.88 5.36,4.68 11.58,8.6 18.33,8.74 -11.96,-5.66 -21.49,-16.71 -29.76,-28.39 -6.25,-8.12 -13.01,-17.79 -22.71,-19.14 -2.04,-0.78 -4.1,2.41 -1.85,3.91zm-1.35 -20.65c5.54,4.02 11.31,7.65 16.52,12.34 7.71,6.84 15.1,16.3 25.45,15.95 -7.89,-3.18 -14.62,-9.3 -20.4,-16.41 -5.74,-6.97 -13.5,-11.1 -21.57,-11.88zm-14.92 10.54c-9.56,11.09 -22.09,16.92 -33.73,23.94 3.46,0.92 7.07,-0.24 10.48,-1.15 10.65,-3.62 20.98,-10.44 27.89,-21.13 3.85,-6.04 6.54,-13.46 6.38,-21.2 -2.8,7.14 -6.3,14 -11.02,19.54zm-24.35 -6.86c-2.05,1.11 -4.35,1.66 -6.18,3.3 9.78,0.94 19.53,-2.96 28.01,-8.66 5.73,-4.1 11.09,-9.87 13.34,-17.68 -10.93,9.3 -22.5,17.68 -35.17,23.04zm39.47 -31.73c0.1,7.68 3.96,14.4 8.66,19.19 8.74,8.6 19.91,13.26 31.05,14.46 -15.44,-6.45 -30.55,-16.71 -39.71,-33.65zm-35.47 11.36c13.1,-1.93 27.46,-10.28 32.11,-26.28 -9.55,10.71 -20.91,18.49 -32.11,26.28zm34.66 -33.8c0.5,18.66 16.36,31.01 30.45,32.61 -12.86,-6.05 -25.49,-16.29 -30.45,-32.61zm1.06 -12.52c1.71,13.1 12.87,21.8 23.19,22.88 -8.32,-6.6 -18.07,-11.9 -23.19,-22.88zm-25.17 22.97c9.99,-1.63 21.01,-10.49 21.58,-23.7 -5.1,10.47 -14.07,16.26 -21.58,23.7zm17.58 -31.96c-3.77,5.77 -9.64,8.42 -14.09,13.14 8.11,-0.47 17.19,-7.37 17.71,-18 -1.59,1.07 -2.26,3.41 -3.62,4.86zm6.86 -5.34c1.25,10.36 10.12,17.11 18.27,17.58 -4.02,-3.68 -8.93,-5.96 -12.56,-10.34 -2.08,-2.21 -3.58,-5.1 -5.71,-7.24zm0.74 -11.46c1.19,7.23 7.05,12.71 12.99,13.08 -4.69,-3.8 -9.42,-7.67 -12.99,-13.08zm-16.33 13.26c6.13,-0.68 12.07,-6.38 12.41,-14.16 -3.28,5.76 -8.03,9.77 -12.41,14.16zm6.54 -18.31c3.81,-5.2 5.35,-12.09 7.83,-18.23 2.05,5.36 3.7,11.04 6.54,15.89 1.65,2.98 4.56,4.47 6.27,7.3 -0.29,2.78 -3.69,1.91 -5.32,1.46 3.67,6.11 10.7,7.63 14.09,13.98 0.89,4.75 -4.71,4.5 -7.25,4.75 4.31,4.45 10.95,5.93 13.91,12.02 -1.42,5.36 -7.64,3.94 -11.32,4.42 5.02,3.76 10.72,6.03 15.71,9.87 1.29,1.15 3.29,2.92 2.37,5.14 -1.69,2.69 -4.8,2.4 -7.28,2.84 0.8,0.91 1.91,1.6 2.21,2.98 -3.94,0.74 -7.72,-1.09 -11.53,-1.9 3.76,4.37 8.75,6.79 13.43,9.37 2.94,1.71 6.8,2.6 8.27,6.56 1.3,1.71 3.85,1.64 4.74,3.91 -0.58,2.37 -3.23,2 -4.83,2.62 0.6,0.82 1.18,1.67 1.69,2.58 -3.89,2.71 -8.98,1.03 -13.27,0.46 6.6,6.28 15.41,7.28 22.75,11.84 1.91,0.97 3.64,4.24 1.83,6.34 -2.17,1.92 -5.14,0.86 -7.65,1.31 0.44,0.74 0.9,1.47 1.33,2.22 -2.78,0.84 -5.53,-0.47 -8.2,-1.26 1.47,2.86 4.42,3.73 6.54,5.71 -2.34,1.96 -5.47,0.2 -8.08,-0.04 6.81,7.45 16.47,8.04 24.72,11.83 0.83,0.32 1.41,1.54 0.58,2.31 -3.98,4.99 -10.22,4.04 -15.42,4.15 3.73,6.1 11.03,5.74 16.42,8.52 -7.37,4.86 -17.11,3.05 -24.24,-1.84 1.13,3.98 4.25,6.32 7.15,8.23 6.34,3.9 13.21,6.36 20.09,8.42 1.2,0.28 2.69,1.81 1.63,3.33 -2.54,3.49 -6.38,4.88 -9.82,6.62 4.01,2.53 8.41,3.9 12.51,6.1 1.72,0.85 0.72,3.12 -0.59,3.71 -6.96,4.28 -14.97,5.12 -22.66,5.04 -10.92,-0.11 -22.19,-2.63 -31.48,-9.92 3.28,8.4 10.75,12.02 17.03,16.26 -9.14,3.33 -19.4,-0.92 -25.78,-9.26 0.38,9.09 -0.65,18.48 1.59,27.31 0.49,1.89 1.32,3.81 2.4,5.45l-21.6 0c5.25,-9.38 3.15,-22.02 3.59,-32.81 -6.07,8.81 -16.53,12.55 -25.59,9.36 6.23,-4.09 13.92,-7.37 16.96,-15.85 -7.41,6.19 -16.47,8.43 -25.29,9.28 -9.55,0.68 -19.56,0.45 -28.42,-4.42 -1.27,-0.57 -3.2,-2.69 -1.71,-4.2 3.46,-2.06 7.6,-2.09 10.92,-4.6 0.68,-0.43 1.32,-1.77 0.36,-2.31 -2.66,-1.88 -5.88,-2.42 -8.38,-4.65 -0.96,-0.82 -0.67,-2.69 0.39,-3.19 12.02,-4.84 23.87,-11.06 34.44,-19.57 -7.77,3.07 -15.83,5.38 -24.03,5.67 -2.4,-0.08 -5.22,0.17 -7.11,-1.91 3.89,-3.25 10.26,-2.94 12.55,-8.38 -2.98,-0.93 -6.64,0.09 -9.1,-2.67 -1.17,-1.47 0.81,-2.63 1.85,-2.84 9.38,-2.77 18.94,-5.9 27.04,-12.53 0.9,-0.82 2.04,-1.61 2.18,-3.12 -4.02,1.28 -8.58,5.27 -12.63,2.92 1.51,-1.22 3.22,-2.07 4.6,-3.53 -3.25,0.33 -6.64,1.32 -9.84,0.11 -1.36,-0.51 -0.87,-2.3 -0.65,-3.53 -2.56,0.8 -7.56,-1.57 -4.69,-5.24 8.4,-5.12 18.71,-6.42 25.84,-14.37 -4.39,0.88 -9.5,2.64 -13.61,-0.03 0.66,-0.84 1.42,-1.54 2.23,-2.14 -2.12,-0.82 -5.78,0.33 -6.67,-2.63 1.84,-2.49 4.87,-3.1 7.31,-4.52 -0.19,-1.76 -0.14,-3.95 1.55,-4.55 5.84,-2.71 12.29,-5.4 16.27,-11.54 -2.69,0.93 -5.33,2.9 -8.22,2.32 0.12,-1.8 1.57,-2.69 2.42,-3.97 -2.69,-0.17 -5.88,0.56 -8.12,-1.68 -1.47,-1.54 -0.07,-3.84 1.2,-4.78 5.12,-4.24 11.1,-6.67 16.26,-10.84 -3.61,0.07 -7.5,0.42 -10.83,-1.54 -1.61,-0.83 -1.85,-3.46 -0.51,-4.78 3.96,-4.33 9.16,-6.48 13.46,-10.24 -2.38,-0.09 -7.37,0.82 -7.4,-3.3 3.76,-6.51 11,-8.76 14.54,-15.63 -1.69,0.24 -4.41,1.53 -5.36,-0.83 0.96,-2.5 3.51,-3.22 4.89,-5.34z"/>
  <path class="fil3" d="M139.62 463.18c1.46,5.33 7.23,5.7 10.49,8.99 11.82,9.57 23.42,23.54 38.85,21.77 -12.77,-6.5 -23.47,-17.32 -35.02,-26.32 -4.25,-2.93 -9.35,-6.51 -14.32,-4.44zm-25.77 15.3c-9.08,7.52 -19.89,10.81 -30.09,15.36 9.01,3.46 18.61,-1.06 26.8,-5.84 9.72,-5.21 20.69,-13.76 21.21,-28.05 -5.85,6.34 -11.39,13.18 -17.92,18.53zm-9.68 -9.15c-7.14,6.99 -16.37,8.96 -24.5,13.5 21.42,-0.27 41.21,-17.76 50.78,-40.51 -11.67,4.29 -16.63,19.19 -26.28,27.01zm34.93 -30.89c14.64,7.12 23.29,24.3 35.99,34.88 5.36,4.68 11.58,8.6 18.32,8.73 -11.96,-5.65 -21.48,-16.7 -29.75,-28.38 -6.25,-8.12 -13.02,-17.79 -22.71,-19.14 -2.05,-0.78 -4.1,2.41 -1.85,3.91zm-1.36 -20.66c5.55,4.03 11.32,7.66 16.52,12.35 7.71,6.83 15.1,16.3 25.45,15.95 -7.88,-3.19 -14.61,-9.3 -20.39,-16.41 -5.74,-6.97 -13.5,-11.1 -21.58,-11.89zm-14.91 10.54c-9.56,11.1 -22.09,16.92 -33.74,23.95 3.47,0.92 7.08,-0.24 10.48,-1.15 10.66,-3.63 20.99,-10.44 27.89,-21.13 3.85,-6.04 6.55,-13.46 6.39,-21.2 -2.81,7.14 -6.3,13.99 -11.02,19.53zm-24.35 -6.85c-2.05,1.11 -4.36,1.65 -6.18,3.3 9.78,0.93 19.53,-2.97 28,-8.66 5.74,-4.11 11.1,-9.87 13.35,-17.68 -10.94,9.3 -22.5,17.68 -35.17,23.04zm39.46 -31.73c0.11,7.68 3.97,14.4 8.67,19.18 8.74,8.61 19.91,13.27 31.05,14.47 -15.45,-6.45 -30.55,-16.72 -39.72,-33.65zm-35.46 11.35c13.1,-1.92 27.46,-10.27 32.1,-26.27 -9.54,10.71 -20.9,18.49 -32.1,26.27zm34.66 -33.8c0.5,18.67 16.36,31.02 30.44,32.62 -12.85,-6.05 -25.48,-16.29 -30.44,-32.62zm1.05 -12.51c1.72,13.1 12.88,21.79 23.19,22.88 -8.31,-6.6 -18.06,-11.91 -23.19,-22.88zm-25.16 22.97c9.99,-1.63 21.01,-10.5 21.57,-23.7 -5.1,10.47 -14.06,16.26 -21.57,23.7zm17.57 -31.96c-3.76,5.76 -9.64,8.41 -14.08,13.13 8.11,-0.46 17.18,-7.37 17.71,-17.99 -1.59,1.07 -2.26,3.41 -3.63,4.86zm6.87 -5.34c1.25,10.35 10.11,17.11 18.27,17.58 -4.02,-3.68 -8.93,-5.96 -12.56,-10.34 -2.08,-2.22 -3.58,-5.11 -5.71,-7.24zm0.74 -11.46c1.18,7.23 7.05,12.7 12.98,13.08 -4.69,-3.8 -9.41,-7.68 -12.98,-13.08zm-16.33 13.25c6.12,-0.67 12.07,-6.37 12.4,-14.15 -3.28,5.75 -8.02,9.77 -12.4,14.15zm6.54 -18.3c3.81,-5.2 5.35,-12.09 7.82,-18.23 2.06,5.36 3.71,11.04 6.54,15.89 1.65,2.97 4.56,4.47 6.28,7.3 -0.3,2.77 -3.7,1.91 -5.32,1.46 3.67,6.1 10.7,7.63 14.09,13.98 0.89,4.75 -4.71,4.49 -7.25,4.74 4.31,4.46 10.95,5.94 13.91,12.03 -1.43,5.36 -7.64,3.94 -11.32,4.42 5.02,3.76 10.72,6.03 15.7,9.87 1.3,1.15 3.3,2.92 2.38,5.13 -1.69,2.69 -4.8,2.41 -7.28,2.84 0.8,0.92 1.91,1.61 2.21,2.99 -3.94,0.73 -7.72,-1.09 -11.53,-1.91 3.76,4.38 8.74,6.79 13.43,9.37 2.93,1.72 6.8,2.61 8.27,6.57 1.29,1.71 3.84,1.64 4.74,3.9 -0.58,2.38 -3.23,2.01 -4.84,2.63 0.61,0.82 1.18,1.67 1.7,2.58 -3.89,2.71 -8.98,1.03 -13.27,0.46 6.6,6.28 15.4,7.28 22.74,11.84 1.91,0.97 3.65,4.24 1.83,6.34 -2.16,1.91 -5.13,0.86 -7.64,1.31 0.44,0.74 0.89,1.47 1.33,2.22 -2.79,0.84 -5.53,-0.47 -8.2,-1.26 1.46,2.86 4.42,3.73 6.54,5.71 -2.34,1.95 -5.47,0.19 -8.08,-0.04 6.81,7.45 16.47,8.03 24.72,11.82 0.82,0.33 1.41,1.55 0.57,2.32 -3.97,4.98 -10.22,4.04 -15.41,4.14 3.73,6.11 11.02,5.75 16.41,8.52 -7.37,4.86 -17.1,3.05 -24.24,-1.84 1.13,3.99 4.26,6.33 7.16,8.23 6.34,3.91 13.2,6.36 20.09,8.42 1.2,0.29 2.69,1.82 1.63,3.34 -2.54,3.49 -6.38,4.88 -9.82,6.62 4,2.53 8.41,3.89 12.51,6.09 1.71,0.86 0.71,3.13 -0.6,3.72 -6.95,4.28 -14.96,5.12 -22.66,5.04 -10.91,-0.11 -22.19,-2.63 -31.47,-9.92 3.27,8.39 10.75,12.02 17.03,16.26 -9.14,3.33 -19.4,-0.92 -25.79,-9.26 0.39,9.09 -0.64,18.48 1.6,27.31 0.49,1.88 1.31,3.81 2.39,5.45l-21.6 0c5.25,-9.38 3.16,-22.02 3.6,-32.81 -6.07,8.81 -16.54,12.55 -25.59,9.36 6.23,-4.09 13.91,-7.37 16.95,-15.85 -7.4,6.19 -16.46,8.43 -25.29,9.28 -9.54,0.68 -19.55,0.45 -28.41,-4.42 -1.28,-0.57 -3.2,-2.7 -1.71,-4.2 3.46,-2.07 7.59,-2.09 10.91,-4.6 0.69,-0.43 1.33,-1.78 0.36,-2.31 -2.65,-1.89 -5.87,-2.42 -8.38,-4.65 -0.95,-0.82 -0.66,-2.69 0.39,-3.19 12.03,-4.84 23.87,-11.06 34.45,-19.57 -7.77,3.07 -15.83,5.38 -24.04,5.67 -2.39,-0.09 -5.21,0.17 -7.1,-1.91 3.88,-3.26 10.26,-2.94 12.54,-8.38 -2.97,-0.93 -6.63,0.09 -9.1,-2.67 -1.16,-1.48 0.82,-2.63 1.85,-2.84 9.39,-2.77 18.95,-5.91 27.04,-12.53 0.91,-0.82 2.05,-1.61 2.19,-3.12 -4.03,1.28 -8.59,5.26 -12.64,2.92 1.52,-1.22 3.23,-2.07 4.61,-3.53 -3.26,0.33 -6.64,1.32 -9.84,0.11 -1.36,-0.51 -0.87,-2.3 -0.65,-3.53 -2.56,0.8 -7.57,-1.57 -4.69,-5.24 8.39,-5.12 18.71,-6.42 25.83,-14.37 -4.38,0.88 -9.49,2.64 -13.6,-0.03 0.65,-0.84 1.41,-1.54 2.22,-2.14 -2.11,-0.82 -5.77,0.33 -6.66,-2.63 1.84,-2.49 4.87,-3.11 7.31,-4.52 -0.19,-1.76 -0.14,-3.95 1.55,-4.55 5.83,-2.71 12.29,-5.4 16.26,-11.55 -2.68,0.93 -5.33,2.91 -8.21,2.32 0.12,-1.79 1.56,-2.68 2.42,-3.96 -2.7,-0.18 -5.88,0.56 -8.13,-1.68 -1.46,-1.54 -0.07,-3.84 1.2,-4.79 5.13,-4.23 11.11,-6.66 16.26,-10.84 -3.6,0.08 -7.49,0.43 -10.82,-1.53 -1.62,-0.83 -1.85,-3.46 -0.52,-4.78 3.97,-4.33 9.17,-6.48 13.46,-10.25 -2.38,-0.08 -7.37,0.82 -7.39,-3.29 3.76,-6.52 10.99,-8.76 14.54,-15.63 -1.69,0.24 -4.42,1.53 -5.36,-0.83 0.95,-2.5 3.51,-3.22 4.89,-5.34z"/>
  <path class="fil3" d="M237.73 432.16c1.46,5.33 7.23,5.7 10.49,8.99 11.82,9.58 23.42,23.54 38.85,21.77 -12.77,-6.5 -23.47,-17.32 -35.02,-26.32 -4.25,-2.93 -9.35,-6.5 -14.32,-4.44zm-25.77 15.3c-9.08,7.52 -19.89,10.82 -30.09,15.36 9.01,3.47 18.6,-1.06 26.8,-5.84 9.72,-5.2 20.69,-13.76 21.2,-28.05 -5.85,6.34 -11.38,13.18 -17.91,18.53zm-9.69 -9.15c-7.13,6.99 -16.36,8.96 -24.49,13.5 21.42,-0.27 41.21,-17.76 50.78,-40.5 -11.68,4.28 -16.63,19.19 -26.29,27zm34.94 -30.89c14.64,7.12 23.29,24.31 35.99,34.88 5.35,4.68 11.58,8.6 18.32,8.73 -11.96,-5.65 -21.49,-16.7 -29.75,-28.38 -6.26,-8.12 -13.02,-17.79 -22.71,-19.14 -2.05,-0.78 -4.11,2.41 -1.85,3.91zm-1.36 -20.65c5.55,4.02 11.31,7.65 16.52,12.34 7.71,6.83 15.1,16.3 25.45,15.95 -7.89,-3.18 -14.61,-9.3 -20.39,-16.41 -5.75,-6.97 -13.5,-11.1 -21.58,-11.88zm-14.91 10.54c-9.57,11.09 -22.1,16.92 -33.74,23.94 3.47,0.92 7.08,-0.24 10.48,-1.15 10.66,-3.63 20.99,-10.44 27.89,-21.13 3.85,-6.04 6.55,-13.46 6.39,-21.2 -2.81,7.14 -6.3,13.99 -11.02,19.54zm-24.35 -6.86c-2.05,1.11 -4.36,1.66 -6.19,3.3 9.79,0.94 19.54,-2.97 28.01,-8.66 5.73,-4.1 11.1,-9.87 13.34,-17.68 -10.93,9.3 -22.49,17.68 -35.16,23.04zm39.46 -31.73c0.11,7.68 3.96,14.4 8.66,19.18 8.75,8.61 19.92,13.27 31.05,14.47 -15.44,-6.45 -30.54,-16.71 -39.71,-33.65zm-35.46 11.36c13.1,-1.93 27.46,-10.28 32.1,-26.28 -9.54,10.71 -20.91,18.49 -32.1,26.28zm34.66 -33.81c0.5,18.67 16.36,31.02 30.44,32.62 -12.85,-6.05 -25.49,-16.29 -30.44,-32.62zm1.05 -12.51c1.72,13.1 12.87,21.79 23.19,22.88 -8.32,-6.6 -18.07,-11.9 -23.19,-22.88zm-25.16 22.97c9.98,-1.63 21.01,-10.49 21.57,-23.7 -5.1,10.47 -14.07,16.26 -21.57,23.7zm17.57 -31.96c-3.76,5.76 -9.64,8.42 -14.08,13.14 8.11,-0.47 17.18,-7.38 17.71,-18 -1.6,1.07 -2.27,3.41 -3.63,4.86zm6.86 -5.34c1.26,10.36 10.12,17.11 18.27,17.58 -4.01,-3.68 -8.92,-5.96 -12.55,-10.34 -2.08,-2.22 -3.59,-5.1 -5.72,-7.24zm0.74 -11.46c1.19,7.23 7.05,12.71 12.99,13.08 -4.69,-3.8 -9.41,-7.68 -12.99,-13.08zm-16.32 13.26c6.12,-0.68 12.06,-6.38 12.4,-14.16 -3.28,5.76 -8.02,9.77 -12.4,14.16zm6.54 -18.31c3.8,-5.2 5.35,-12.09 7.82,-18.23 2.06,5.36 3.71,11.04 6.54,15.89 1.65,2.97 4.56,4.47 6.27,7.3 -0.29,2.77 -3.69,1.91 -5.31,1.46 3.67,6.11 10.69,7.63 14.09,13.98 0.88,4.75 -4.71,4.5 -7.25,4.74 4.3,4.46 10.95,5.94 13.91,12.03 -1.43,5.36 -7.64,3.94 -11.33,4.42 5.03,3.76 10.73,6.03 15.71,9.87 1.29,1.15 3.3,2.92 2.37,5.14 -1.69,2.68 -4.79,2.4 -7.28,2.83 0.8,0.92 1.91,1.61 2.22,2.99 -3.94,0.74 -7.72,-1.09 -11.54,-1.91 3.77,4.38 8.75,6.8 13.44,9.38 2.93,1.71 6.8,2.6 8.26,6.56 1.3,1.71 3.85,1.64 4.75,3.91 -0.59,2.37 -3.23,2 -4.84,2.62 0.6,0.82 1.18,1.67 1.7,2.58 -3.89,2.71 -8.98,1.03 -13.27,0.46 6.6,6.28 15.4,7.28 22.74,11.84 1.91,0.97 3.65,4.24 1.83,6.34 -2.16,1.92 -5.14,0.86 -7.64,1.31 0.44,0.74 0.89,1.47 1.32,2.22 -2.78,0.84 -5.52,-0.47 -8.19,-1.26 1.46,2.86 4.42,3.73 6.53,5.71 -2.33,1.96 -5.46,0.2 -8.07,-0.04 6.81,7.45 16.46,8.04 24.71,11.82 0.83,0.33 1.42,1.55 0.58,2.32 -3.98,4.98 -10.22,4.04 -15.42,4.14 3.74,6.11 11.03,5.75 16.42,8.53 -7.37,4.85 -17.1,3.05 -24.24,-1.84 1.13,3.98 4.25,6.32 7.15,8.23 6.35,3.9 13.21,6.35 20.1,8.42 1.2,0.28 2.69,1.81 1.63,3.33 -2.54,3.49 -6.39,4.88 -9.82,6.62 4,2.53 8.41,3.89 12.51,6.1 1.71,0.85 0.71,3.12 -0.6,3.71 -6.96,4.28 -14.97,5.12 -22.66,5.04 -10.92,-0.11 -22.19,-2.63 -31.48,-9.92 3.28,8.4 10.75,12.02 17.03,16.26 -9.13,3.33 -19.39,-0.92 -25.78,-9.26 0.38,9.09 -0.64,18.48 1.6,27.31 0.49,1.88 1.31,3.81 2.39,5.45l-21.6 0c5.25,-9.38 3.16,-22.02 3.59,-32.81 -6.07,8.81 -16.53,12.55 -25.58,9.36 6.23,-4.09 13.91,-7.37 16.95,-15.85 -7.4,6.19 -16.46,8.43 -25.29,9.28 -9.54,0.68 -19.56,0.45 -28.41,-4.42 -1.28,-0.57 -3.21,-2.69 -1.72,-4.2 3.47,-2.07 7.6,-2.09 10.92,-4.6 0.68,-0.43 1.32,-1.78 0.36,-2.31 -2.66,-1.89 -5.87,-2.42 -8.38,-4.65 -0.96,-0.82 -0.66,-2.69 0.39,-3.19 12.02,-4.84 23.87,-11.06 34.45,-19.57 -7.78,3.07 -15.84,5.38 -24.04,5.67 -2.39,-0.09 -5.22,0.17 -7.1,-1.91 3.88,-3.25 10.25,-2.94 12.54,-8.38 -2.97,-0.93 -6.63,0.09 -9.1,-2.67 -1.16,-1.47 0.81,-2.63 1.85,-2.84 9.38,-2.77 18.95,-5.9 27.04,-12.53 0.91,-0.82 2.05,-1.61 2.19,-3.12 -4.03,1.28 -8.59,5.26 -12.64,2.92 1.51,-1.22 3.23,-2.07 4.61,-3.53 -3.26,0.33 -6.64,1.32 -9.84,0.11 -1.36,-0.51 -0.87,-2.3 -0.66,-3.53 -2.55,0.8 -7.56,-1.57 -4.69,-5.24 8.4,-5.12 18.71,-6.42 25.84,-14.37 -4.38,0.88 -9.49,2.64 -13.6,-0.03 0.65,-0.84 1.41,-1.54 2.22,-2.14 -2.11,-0.82 -5.77,0.33 -6.66,-2.63 1.84,-2.49 4.87,-3.1 7.31,-4.52 -0.19,-1.76 -0.14,-3.95 1.55,-4.55 5.83,-2.71 12.29,-5.4 16.26,-11.54 -2.69,0.92 -5.33,2.9 -8.22,2.32 0.13,-1.8 1.57,-2.69 2.43,-3.97 -2.7,-0.18 -5.88,0.56 -8.13,-1.68 -1.46,-1.54 -0.07,-3.84 1.2,-4.79 5.13,-4.23 11.1,-6.66 16.26,-10.84 -3.61,0.08 -7.5,0.43 -10.82,-1.53 -1.62,-0.83 -1.86,-3.46 -0.52,-4.78 3.97,-4.33 9.17,-6.48 13.46,-10.24 -2.38,-0.09 -7.37,0.82 -7.4,-3.3 3.77,-6.52 11,-8.76 14.55,-15.63 -1.69,0.24 -4.42,1.53 -5.36,-0.83 0.95,-2.5 3.51,-3.22 4.89,-5.34z"/>
  <path class="fil3" d="M400.37 430.11c2.01,7.32 9.93,7.82 14.41,12.35 16.23,13.14 32.15,32.31 53.35,29.88 -17.53,-8.92 -32.24,-23.78 -48.1,-36.13 -5.82,-4.02 -12.83,-8.94 -19.66,-6.1zm-35.38 21.01c-12.47,10.33 -27.31,14.85 -41.31,21.1 12.36,4.75 25.54,-1.46 36.79,-8.02 13.35,-7.16 28.42,-18.9 29.12,-38.53 -8.03,8.71 -15.64,18.11 -24.6,25.45zm-13.3 -12.56c-9.8,9.6 -22.47,12.3 -33.63,18.54 29.41,-0.39 56.58,-24.4 69.72,-55.63 -16.03,5.89 -22.83,26.36 -36.09,37.09zm47.97 -42.43c20.11,9.78 31.98,33.38 49.42,47.9 7.35,6.43 15.9,11.81 25.16,12 -16.43,-7.77 -29.51,-22.94 -40.86,-38.98 -8.58,-11.15 -17.87,-24.43 -31.18,-26.28 -2.81,-1.07 -5.64,3.31 -2.54,5.36zm-1.86 -28.35c7.61,5.52 15.53,10.51 22.68,16.95 10.59,9.38 20.74,22.38 34.95,21.9 -10.83,-4.37 -20.07,-12.77 -28.01,-22.53 -7.88,-9.57 -18.54,-15.24 -29.62,-16.32zm-20.48 14.47c-13.13,15.24 -30.34,23.23 -46.32,32.87 4.76,1.27 9.71,-0.32 14.39,-1.57 14.63,-4.98 28.81,-14.33 38.29,-29.01 5.29,-8.29 8.99,-18.49 8.77,-29.11 -3.85,9.8 -8.65,19.21 -15.13,26.82zm-33.44 -9.41c-2.81,1.52 -5.98,2.27 -8.49,4.53 13.44,1.28 26.83,-4.07 38.46,-11.9 7.87,-5.63 15.24,-13.55 18.32,-24.26 -15.01,12.76 -30.89,24.27 -48.29,31.63zm54.19 -43.57c0.14,10.54 5.44,19.77 11.9,26.34 12,11.82 27.34,18.21 42.63,19.87 -21.2,-8.87 -41.94,-22.96 -54.53,-46.21zm-48.7 15.59c17.99,-2.64 37.71,-14.1 44.09,-36.07 -13.11,14.69 -28.71,25.38 -44.09,36.07zm47.6 -46.41c0.69,25.63 22.46,42.58 41.8,44.78 -17.65,-8.31 -35,-22.37 -41.8,-44.78zm1.45 -17.19c2.35,17.99 17.67,29.93 31.84,31.42 -11.42,-9.06 -24.81,-16.34 -31.84,-31.42zm-34.56 31.54c13.72,-2.23 28.85,-14.4 29.63,-32.53 -7,14.37 -19.32,22.31 -29.63,32.53zm24.13 -43.88c-5.16,7.92 -13.24,11.56 -19.33,18.04 11.13,-0.64 23.59,-10.12 24.31,-24.71 -2.19,1.46 -3.11,4.68 -4.98,6.67zm9.43 -7.33c1.72,14.22 13.89,23.49 25.08,24.14 -5.51,-5.06 -12.26,-8.18 -17.24,-14.2 -2.85,-3.04 -4.92,-7.01 -7.84,-9.94zm1.01 -15.74c1.63,9.93 9.68,17.45 17.84,17.96 -6.45,-5.21 -12.93,-10.54 -17.84,-17.96zm-22.42 18.2c8.41,-0.92 16.57,-8.75 17.04,-19.44 -4.51,7.91 -11.02,13.42 -17.04,19.44zm8.98 -25.13c5.23,-7.14 7.35,-16.61 10.75,-25.03 2.82,7.35 5.09,15.16 8.98,21.82 2.26,4.08 6.26,6.13 8.61,10.02 -0.4,3.81 -5.07,2.63 -7.3,2 5.04,8.39 14.69,10.48 19.35,19.2 1.22,6.53 -6.47,6.17 -9.96,6.51 5.92,6.12 15.04,8.16 19.1,16.52 -1.96,7.36 -10.49,5.41 -15.54,6.06 6.89,5.17 14.72,8.28 21.56,13.56 1.78,1.57 4.53,4.01 3.26,7.05 -2.32,3.69 -6.59,3.3 -10,3.9 1.1,1.25 2.63,2.2 3.04,4.1 -5.41,1.01 -10.6,-1.5 -15.83,-2.62 5.16,6 12.01,9.33 18.44,12.87 4.03,2.35 9.34,3.57 11.35,9.01 1.78,2.35 5.29,2.25 6.52,5.37 -0.8,3.26 -4.44,2.75 -6.65,3.6 0.83,1.12 1.63,2.29 2.34,3.54 -5.34,3.72 -12.34,1.41 -18.23,0.63 9.07,8.63 21.15,10 31.23,16.26 2.63,1.33 5.01,5.82 2.51,8.7 -2.97,2.64 -7.05,1.19 -10.49,1.81 0.61,1.01 1.23,2.02 1.82,3.05 -3.82,1.15 -7.59,-0.66 -11.25,-1.74 2.01,3.93 6.06,5.12 8.97,7.84 -3.2,2.69 -7.5,0.27 -11.09,-0.05 9.35,10.23 22.61,11.03 33.94,16.23 1.14,0.45 1.94,2.12 0.79,3.19 -5.46,6.84 -14.03,5.55 -21.17,5.68 5.13,8.39 15.14,7.89 22.55,11.7 -10.12,6.68 -23.49,4.19 -33.29,-2.52 1.55,5.47 5.84,8.68 9.82,11.3 8.71,5.36 18.14,8.73 27.59,11.56 1.65,0.39 3.7,2.5 2.24,4.57 -3.49,4.8 -8.77,6.71 -13.49,9.1 5.51,3.47 11.55,5.35 17.18,8.37 2.36,1.17 0.99,4.29 -0.81,5.1 -9.55,5.88 -20.55,7.03 -31.11,6.92 -15,-0.15 -30.48,-3.61 -43.23,-13.63 4.5,11.54 14.76,16.52 23.39,22.33 -12.55,4.58 -26.64,-1.25 -35.41,-12.71 0.53,12.49 -0.88,25.38 2.19,37.5 0.68,2.59 1.81,5.23 3.29,7.48l-29.66 0c7.21,-12.88 4.34,-30.24 4.94,-45.04 -8.34,12.08 -22.7,17.23 -35.14,12.84 8.56,-5.61 19.11,-10.11 23.28,-21.76 -10.16,8.5 -22.6,11.58 -34.73,12.75 -13.1,0.92 -26.85,0.61 -39.01,-6.08 -1.75,-0.78 -4.4,-3.7 -2.35,-5.77 4.75,-2.83 10.43,-2.86 14.99,-6.31 0.94,-0.59 1.82,-2.44 0.49,-3.17 -3.64,-2.59 -8.06,-3.33 -11.5,-6.38 -1.32,-1.13 -0.91,-3.7 0.53,-4.39 16.51,-6.64 32.78,-15.19 47.3,-26.87 -10.67,4.22 -21.74,7.39 -33,7.78 -3.29,-0.11 -7.17,0.24 -9.76,-2.61 5.33,-4.47 14.09,-4.05 17.22,-11.51 -4.08,-1.28 -9.1,0.12 -12.49,-3.67 -1.6,-2.02 1.12,-3.61 2.54,-3.9 12.88,-3.8 26.01,-8.11 37.13,-17.2 1.24,-1.13 2.81,-2.22 3,-4.28 -5.53,1.75 -11.79,7.22 -17.35,4.01 2.08,-1.68 4.43,-2.84 6.33,-4.85 -4.48,0.45 -9.12,1.81 -13.52,0.14 -1.86,-0.7 -1.19,-3.16 -0.89,-4.84 -3.52,1.1 -10.38,-2.16 -6.44,-7.2 11.53,-7.03 25.69,-8.81 35.47,-19.72 -6.02,1.2 -13.03,3.62 -18.68,-0.05 0.9,-1.15 1.95,-2.11 3.06,-2.94 -2.9,-1.13 -7.93,0.46 -9.15,-3.61 2.53,-3.42 6.69,-4.26 10.04,-6.21 -0.26,-2.41 -0.2,-5.42 2.12,-6.24 8.01,-3.73 16.88,-7.42 22.34,-15.85 -3.69,1.27 -7.32,3.98 -11.29,3.18 0.17,-2.46 2.16,-3.69 3.33,-5.44 -3.7,-0.24 -8.07,0.77 -11.16,-2.31 -2.01,-2.12 -0.09,-5.28 1.65,-6.57 7.04,-5.81 15.24,-9.15 22.33,-14.89 -4.96,0.11 -10.3,0.59 -14.87,-2.11 -2.22,-1.13 -2.54,-4.74 -0.7,-6.55 5.44,-5.95 12.58,-8.9 18.48,-14.07 -3.27,-0.12 -10.12,1.12 -10.16,-4.53 5.17,-8.94 15.1,-12.02 19.97,-21.46 -2.32,0.33 -6.06,2.1 -7.36,-1.14 1.31,-3.43 4.82,-4.43 6.71,-7.33z"/>
  <path class="fil3" d="M602.37 450.89c2.01,7.33 9.93,7.83 14.41,12.35 16.23,13.15 32.15,32.32 53.35,29.89 -17.53,-8.92 -32.24,-23.78 -48.1,-36.14 -5.82,-4.02 -12.83,-8.93 -19.66,-6.1zm-35.37 21.01c-12.48,10.33 -27.32,14.85 -41.32,21.1 12.36,4.75 25.54,-1.46 36.79,-8.02 13.35,-7.15 28.42,-18.89 29.12,-38.53 -8.03,8.71 -15.64,18.11 -24.59,25.45zm-13.31 -12.56c-9.8,9.6 -22.47,12.3 -33.63,18.54 29.41,-0.38 56.58,-24.39 69.73,-55.62 -16.03,5.88 -22.84,26.35 -36.1,37.08zm47.97 -42.42c20.11,9.78 31.98,33.38 49.42,47.9 7.35,6.42 15.9,11.81 25.16,11.99 -16.42,-7.77 -29.5,-22.94 -40.85,-38.97 -8.59,-11.16 -17.88,-24.43 -31.19,-26.28 -2.81,-1.07 -5.63,3.3 -2.54,5.36zm-1.86 -28.36c7.61,5.53 15.53,10.51 22.68,16.95 10.59,9.39 20.74,22.39 34.95,21.9 -10.83,-4.37 -20.07,-12.77 -28.01,-22.53 -7.88,-9.57 -18.53,-15.24 -29.62,-16.32zm-20.48 14.47c-13.13,15.24 -30.34,23.24 -46.32,32.88 4.76,1.27 9.71,-0.32 14.39,-1.58 14.63,-4.97 28.81,-14.33 38.29,-29.01 5.29,-8.29 8.99,-18.48 8.77,-29.11 -3.85,9.81 -8.65,19.22 -15.13,26.82zm-33.43 -9.41c-2.82,1.53 -5.99,2.27 -8.49,4.54 13.43,1.28 26.82,-4.08 38.45,-11.9 7.87,-5.63 15.24,-13.55 18.32,-24.27 -15.01,12.77 -30.89,24.27 -48.28,31.63zm54.18 -43.57c0.15,10.55 5.44,19.77 11.9,26.35 12,11.82 27.34,18.21 42.63,19.86 -21.2,-8.86 -41.94,-22.95 -54.53,-46.21zm-48.69 15.6c17.98,-2.64 37.7,-14.11 44.08,-36.08 -13.11,14.7 -28.71,25.39 -44.08,36.08zm47.59 -46.42c0.69,25.64 22.47,42.59 41.8,44.79 -17.65,-8.31 -34.99,-22.37 -41.8,-44.79zm1.45 -17.19c2.35,18 17.67,29.94 31.84,31.43 -11.42,-9.07 -24.81,-16.35 -31.84,-31.43zm-34.56 31.54c13.72,-2.23 28.85,-14.4 29.63,-32.53 -7,14.38 -19.32,22.32 -29.63,32.53zm24.13 -43.88c-5.16,7.92 -13.23,11.56 -19.33,18.04 11.13,-0.63 23.59,-10.12 24.31,-24.7 -2.18,1.46 -3.1,4.68 -4.98,6.66zm9.43 -7.32c1.72,14.21 13.89,23.49 25.08,24.13 -5.51,-5.05 -12.26,-8.18 -17.24,-14.2 -2.85,-3.04 -4.92,-7.01 -7.84,-9.93zm1.01 -15.74c1.64,9.92 9.68,17.44 17.84,17.96 -6.45,-5.22 -12.93,-10.54 -17.84,-17.96zm-22.42 18.2c8.41,-0.92 16.57,-8.75 17.04,-19.44 -4.51,7.9 -11.02,13.42 -17.04,19.44zm8.98 -25.14c5.23,-7.13 7.35,-16.6 10.75,-25.03 2.82,7.36 5.09,15.16 8.98,21.82 2.26,4.09 6.26,6.14 8.61,10.03 -0.4,3.8 -5.07,2.62 -7.3,2 5.04,8.38 14.69,10.47 19.35,19.19 1.22,6.53 -6.47,6.18 -9.96,6.52 5.92,6.12 15.04,8.15 19.1,16.51 -1.95,7.36 -10.49,5.42 -15.54,6.07 6.89,5.16 14.72,8.28 21.56,13.56 1.78,1.57 4.53,4 3.26,7.05 -2.32,3.69 -6.58,3.29 -9.99,3.89 1.09,1.26 2.62,2.2 3.03,4.11 -5.41,1 -10.59,-1.51 -15.83,-2.62 5.17,6 12.01,9.32 18.44,12.86 4.03,2.36 9.34,3.58 11.35,9.02 1.78,2.34 5.29,2.25 6.52,5.36 -0.8,3.26 -4.44,2.75 -6.64,3.6 0.83,1.13 1.62,2.29 2.33,3.55 -5.34,3.72 -12.34,1.41 -18.23,0.62 9.07,8.63 21.15,10 31.23,16.26 2.63,1.33 5.01,5.82 2.51,8.71 -2.97,2.63 -7.05,1.18 -10.49,1.8 0.61,1.02 1.23,2.02 1.82,3.05 -3.82,1.16 -7.59,-0.65 -11.25,-1.74 2.01,3.94 6.06,5.13 8.97,7.85 -3.2,2.68 -7.5,0.27 -11.08,-0.06 9.34,10.23 22.6,11.04 33.93,16.24 1.14,0.45 1.95,2.12 0.79,3.18 -5.46,6.84 -14.03,5.55 -21.17,5.69 5.13,8.38 15.15,7.89 22.55,11.7 -10.12,6.67 -23.49,4.19 -33.29,-2.53 1.55,5.47 5.84,8.69 9.82,11.3 8.71,5.37 18.14,8.73 27.59,11.57 1.65,0.39 3.7,2.49 2.24,4.57 -3.49,4.79 -8.76,6.7 -13.48,9.09 5.5,3.48 11.54,5.35 17.17,8.37 2.36,1.18 0.99,4.29 -0.81,5.1 -9.55,5.88 -20.55,7.03 -31.11,6.93 -15,-0.15 -30.48,-3.61 -43.23,-13.63 4.5,11.53 14.76,16.51 23.39,22.33 -12.55,4.57 -26.64,-1.26 -35.41,-12.71 0.53,12.48 -0.88,25.37 2.19,37.5 0.68,2.58 1.81,5.23 3.3,7.48l-29.67 0c7.21,-12.88 4.34,-30.24 4.94,-45.05 -8.34,12.09 -22.7,17.23 -35.13,12.84 8.55,-5.61 19.1,-10.11 23.27,-21.76 -10.16,8.5 -22.6,11.58 -34.72,12.75 -13.11,0.93 -26.86,0.62 -39.02,-6.07 -1.75,-0.78 -4.4,-3.7 -2.35,-5.77 4.76,-2.83 10.43,-2.86 14.99,-6.31 0.94,-0.6 1.82,-2.44 0.49,-3.18 -3.64,-2.59 -8.06,-3.32 -11.5,-6.38 -1.32,-1.13 -0.91,-3.69 0.53,-4.38 16.51,-6.65 32.78,-15.19 47.3,-26.87 -10.67,4.22 -21.74,7.38 -33,7.78 -3.29,-0.12 -7.17,0.24 -9.76,-2.62 5.34,-4.47 14.09,-4.04 17.22,-11.51 -4.08,-1.28 -9.1,0.12 -12.49,-3.67 -1.6,-2.02 1.12,-3.6 2.54,-3.89 12.89,-3.8 26.01,-8.11 37.13,-17.21 1.24,-1.12 2.81,-2.21 3,-4.28 -5.53,1.75 -11.79,7.23 -17.35,4.01 2.08,-1.68 4.43,-2.84 6.33,-4.85 -4.47,0.45 -9.12,1.82 -13.52,0.15 -1.86,-0.7 -1.19,-3.16 -0.89,-4.84 -3.51,1.09 -10.38,-2.16 -6.44,-7.2 11.53,-7.03 25.69,-8.82 35.47,-19.73 -6.01,1.2 -13.03,3.63 -18.67,-0.05 0.9,-1.15 1.94,-2.11 3.05,-2.94 -2.9,-1.12 -7.93,0.46 -9.15,-3.61 2.53,-3.41 6.69,-4.26 10.04,-6.2 -0.26,-2.41 -0.2,-5.42 2.12,-6.25 8.01,-3.72 16.88,-7.42 22.34,-15.85 -3.69,1.28 -7.32,3.99 -11.29,3.19 0.18,-2.46 2.16,-3.7 3.33,-5.44 -3.7,-0.25 -8.07,0.76 -11.15,-2.31 -2.02,-2.12 -0.1,-5.28 1.64,-6.58 7.04,-5.81 15.25,-9.15 22.33,-14.88 -4.95,0.11 -10.3,0.59 -14.87,-2.11 -2.22,-1.14 -2.54,-4.75 -0.7,-6.56 5.44,-5.95 12.58,-8.9 18.48,-14.07 -3.27,-0.12 -10.12,1.13 -10.16,-4.52 5.17,-8.95 15.1,-12.03 19.97,-21.47 -2.32,0.33 -6.06,2.11 -7.36,-1.14 1.31,-3.43 4.82,-4.42 6.71,-7.33z"/>
  <path class="fil3" d="M689.41 486.54c1.71,6.28 8.51,6.71 12.34,10.58 13.91,11.26 27.55,27.68 45.7,25.6 -15.02,-7.64 -27.61,-20.37 -41.2,-30.95 -4.99,-3.45 -10.99,-7.65 -16.84,-5.23zm-30.31 18c-10.68,8.85 -23.4,12.72 -35.39,18.07 10.59,4.08 21.88,-1.25 31.52,-6.86 11.43,-6.13 24.34,-16.19 24.94,-33.01 -6.88,7.46 -13.39,15.51 -21.07,21.8zm-11.39 -10.76c-8.4,8.22 -19.25,10.54 -28.82,15.88 25.2,-0.32 48.47,-20.89 59.73,-47.65 -13.73,5.04 -19.56,22.58 -30.91,31.77zm41.09 -36.34c17.22,8.38 27.39,28.59 42.33,41.03 6.3,5.51 13.62,10.12 21.55,10.28 -14.06,-6.66 -25.27,-19.66 -34.99,-33.39 -7.36,-9.56 -15.31,-20.93 -26.72,-22.51 -2.4,-0.92 -4.82,2.83 -2.17,4.59zm-1.6 -24.29c6.52,4.73 13.31,9 19.44,14.52 9.06,8.04 17.76,19.17 29.93,18.76 -9.28,-3.75 -17.19,-10.94 -23.99,-19.3 -6.75,-8.2 -15.88,-13.06 -25.38,-13.98zm-17.54 12.39c-11.25,13.06 -25.99,19.91 -39.68,28.17 4.07,1.08 8.32,-0.28 12.32,-1.36 12.54,-4.26 24.69,-12.27 32.81,-24.85 4.53,-7.1 7.7,-15.83 7.51,-24.94 -3.3,8.41 -7.41,16.47 -12.96,22.98zm-28.64 -8.06c-2.42,1.31 -5.13,1.95 -7.28,3.89 11.51,1.09 22.98,-3.5 32.95,-10.2 6.74,-4.82 13.05,-11.61 15.69,-20.79 -12.86,10.94 -26.46,20.8 -41.36,27.1zm46.42 -37.33c0.12,9.04 4.66,16.94 10.19,22.57 10.28,10.13 23.42,15.61 36.52,17.02 -18.16,-7.59 -35.93,-19.66 -46.71,-39.59zm-41.72 13.36c15.41,-2.26 32.3,-12.08 37.76,-30.9 -11.22,12.59 -24.59,21.75 -37.76,30.9zm40.77 -39.76c0.59,21.96 19.25,36.48 35.81,38.37 -15.12,-7.12 -29.98,-19.16 -35.81,-38.37zm1.24 -14.72c2.02,15.41 15.14,25.64 27.28,26.92 -9.78,-7.77 -21.25,-14.01 -27.28,-26.92zm-29.6 27.02c11.75,-1.91 24.72,-12.34 25.38,-27.87 -6,12.31 -16.55,19.12 -25.38,27.87zm20.67 -37.59c-4.42,6.78 -11.34,9.9 -16.56,15.45 9.53,-0.54 20.21,-8.67 20.83,-21.16 -1.88,1.25 -2.66,4 -4.27,5.71zm8.08 -6.28c1.47,12.18 11.9,20.12 21.49,20.67 -4.73,-4.32 -10.51,-7 -14.77,-12.16 -2.45,-2.6 -4.22,-6 -6.72,-8.51zm0.87 -13.48c1.39,8.5 8.29,14.94 15.27,15.38 -5.52,-4.47 -11.07,-9.03 -15.27,-15.38zm-19.21 15.59c7.21,-0.79 14.19,-7.5 14.59,-16.66 -3.86,6.78 -9.44,11.5 -14.59,16.66zm7.69 -21.54c4.48,-6.11 6.3,-14.22 9.21,-21.44 2.42,6.3 4.36,12.99 7.69,18.7 1.94,3.49 5.37,5.25 7.38,8.58 -0.34,3.26 -4.34,2.25 -6.26,1.72 4.32,7.18 12.59,8.97 16.58,16.44 1.04,5.59 -5.54,5.29 -8.53,5.58 5.07,5.24 12.88,6.99 16.36,14.15 -1.67,6.3 -8.98,4.64 -13.32,5.2 5.91,4.42 12.62,7.09 18.48,11.61 1.52,1.35 3.88,3.43 2.79,6.04 -1.99,3.16 -5.64,2.82 -8.56,3.34 0.94,1.07 2.25,1.88 2.6,3.51 -4.63,0.87 -9.08,-1.28 -13.57,-2.24 4.43,5.14 10.29,7.99 15.81,11.02 3.45,2.02 8,3.06 9.72,7.72 1.52,2.01 4.53,1.93 5.58,4.6 -0.69,2.79 -3.8,2.36 -5.69,3.08 0.71,0.97 1.39,1.97 2,3.04 -4.58,3.19 -10.57,1.21 -15.61,0.54 7.76,7.39 18.11,8.57 26.75,13.93 2.25,1.14 4.29,4.98 2.15,7.45 -2.54,2.26 -6.04,1.02 -8.99,1.55 0.52,0.87 1.05,1.73 1.56,2.61 -3.27,0.99 -6.5,-0.56 -9.64,-1.49 1.72,3.37 5.2,4.39 7.69,6.72 -2.75,2.3 -6.43,0.23 -9.5,-0.04 8.01,8.76 19.37,9.45 29.07,13.91 0.98,0.38 1.67,1.81 0.68,2.72 -4.68,5.86 -12.02,4.76 -18.13,4.87 4.39,7.19 12.97,6.76 19.31,10.03 -8.67,5.71 -20.12,3.59 -28.52,-2.17 1.33,4.69 5.01,7.44 8.42,9.68 7.46,4.6 15.54,7.48 23.63,9.91 1.42,0.33 3.17,2.14 1.92,3.92 -2.99,4.1 -7.51,5.74 -11.55,7.79 4.71,2.97 9.89,4.58 14.71,7.17 2.02,1 0.85,3.67 -0.7,4.37 -8.18,5.04 -17.6,6.02 -26.65,5.93 -12.84,-0.13 -26.1,-3.09 -37.03,-11.68 3.86,9.88 12.65,14.15 20.04,19.13 -10.75,3.92 -22.82,-1.07 -30.33,-10.89 0.45,10.7 -0.76,21.74 1.87,32.13 0.58,2.21 1.55,4.48 2.82,6.41l-25.41 0c6.18,-11.04 3.72,-25.91 4.23,-38.59 -7.14,10.35 -19.45,14.76 -30.1,11 7.33,-4.81 16.37,-8.67 19.95,-18.64 -8.71,7.28 -19.37,9.92 -29.76,10.92 -11.22,0.79 -23,0.53 -33.42,-5.21 -1.5,-0.66 -3.76,-3.17 -2.01,-4.94 4.07,-2.42 8.93,-2.45 12.84,-5.4 0.8,-0.52 1.56,-2.1 0.42,-2.73 -3.12,-2.21 -6.91,-2.84 -9.85,-5.46 -1.13,-0.97 -0.78,-3.17 0.45,-3.75 14.15,-5.7 28.08,-13.02 40.52,-23.03 -9.14,3.62 -18.62,6.33 -28.27,6.67 -2.82,-0.1 -6.14,0.2 -8.36,-2.24 4.57,-3.83 12.07,-3.47 14.76,-9.86 -3.5,-1.1 -7.81,0.1 -10.71,-3.14 -1.37,-1.74 0.96,-3.09 2.18,-3.34 11.04,-3.26 22.28,-6.95 31.81,-14.74 1.06,-0.96 2.4,-1.9 2.57,-3.67 -4.74,1.5 -10.1,6.19 -14.86,3.44 1.77,-1.44 3.79,-2.44 5.41,-4.16 -3.83,0.39 -7.81,1.56 -11.57,0.13 -1.6,-0.6 -1.03,-2.71 -0.77,-4.15 -3.01,0.94 -8.89,-1.85 -5.52,-6.17 9.88,-6.02 22.01,-7.55 30.39,-16.9 -5.15,1.03 -11.16,3.11 -16,-0.04 0.77,-0.98 1.67,-1.81 2.62,-2.52 -2.49,-0.96 -6.8,0.4 -7.84,-3.09 2.17,-2.92 5.73,-3.65 8.6,-5.31 -0.22,-2.07 -0.17,-4.65 1.82,-5.36 6.86,-3.19 14.46,-6.35 19.13,-13.57 -3.16,1.09 -6.26,3.41 -9.66,2.73 0.15,-2.11 1.84,-3.17 2.85,-4.67 -3.17,-0.21 -6.92,0.66 -9.56,-1.98 -1.72,-1.81 -0.08,-4.52 1.41,-5.62 6.03,-4.98 13.06,-7.84 19.13,-12.76 -4.25,0.1 -8.82,0.51 -12.74,-1.81 -1.9,-0.96 -2.17,-4.06 -0.6,-5.61 4.66,-5.1 10.78,-7.62 15.83,-12.05 -2.8,-0.11 -8.67,0.96 -8.7,-3.88 4.42,-7.66 12.94,-10.3 17.11,-18.39 -1.99,0.29 -5.2,1.8 -6.31,-0.98 1.13,-2.93 4.13,-3.78 5.75,-6.28z"/>
  <path class="fil3" d="M939.63 526.47c1.72,6.28 8.51,6.71 12.34,10.58 13.91,11.26 27.55,27.68 45.71,25.6 -15.02,-7.64 -27.62,-20.37 -41.21,-30.95 -4.99,-3.45 -10.99,-7.66 -16.84,-5.23zm-30.31 18c-10.68,8.85 -23.39,12.72 -35.39,18.07 10.59,4.08 21.88,-1.25 31.52,-6.87 11.43,-6.12 24.34,-16.18 24.94,-33 -6.88,7.46 -13.39,15.51 -21.07,21.8zm-11.39 -10.76c-8.4,8.22 -19.25,10.54 -28.82,15.88 25.2,-0.33 48.48,-20.9 59.74,-47.65 -13.74,5.04 -19.57,22.58 -30.92,31.77zm41.09 -36.34c17.22,8.38 27.4,28.59 42.34,41.03 6.3,5.51 13.61,10.12 21.55,10.28 -14.07,-6.66 -25.27,-19.66 -35,-33.39 -7.36,-9.56 -15.31,-20.93 -26.71,-22.51 -2.41,-0.92 -4.83,2.82 -2.18,4.59zm-1.6 -24.29c6.53,4.73 13.31,9 19.44,14.52 9.07,8.03 17.76,19.17 29.94,18.76 -9.28,-3.75 -17.19,-10.95 -24,-19.3 -6.75,-8.2 -15.88,-13.06 -25.38,-13.98zm-17.54 12.39c-11.25,13.06 -25.99,19.91 -39.68,28.17 4.08,1.08 8.32,-0.28 12.33,-1.36 12.53,-4.26 24.68,-12.27 32.8,-24.85 4.53,-7.1 7.7,-15.83 7.51,-24.94 -3.3,8.41 -7.41,16.47 -12.96,22.98zm-28.64 -8.06c-2.41,1.31 -5.13,1.95 -7.27,3.88 11.5,1.1 22.97,-3.49 32.94,-10.19 6.74,-4.82 13.05,-11.61 15.7,-20.79 -12.86,10.94 -26.47,20.8 -41.37,27.1zm46.42 -37.33c0.12,9.04 4.66,16.94 10.19,22.57 10.28,10.13 23.42,15.6 36.52,17.02 -18.16,-7.59 -35.93,-19.66 -46.71,-39.59zm-41.72 13.36c15.41,-2.26 32.3,-12.08 37.77,-30.9 -11.23,12.59 -24.59,21.75 -37.77,30.9zm40.77 -39.76c0.59,21.96 19.25,36.48 35.82,38.37 -15.13,-7.12 -29.98,-19.17 -35.82,-38.37zm1.25 -14.72c2.01,15.41 15.14,25.64 27.27,26.92 -9.78,-7.77 -21.25,-14.01 -27.27,-26.92zm-29.61 27.02c11.75,-1.91 24.72,-12.34 25.38,-27.87 -6,12.31 -16.55,19.12 -25.38,27.87zm20.68 -37.59c-4.43,6.78 -11.35,9.9 -16.57,15.45 9.54,-0.55 20.21,-8.67 20.83,-21.17 -1.87,1.25 -2.66,4.01 -4.26,5.72zm8.07 -6.28c1.48,12.18 11.9,20.12 21.49,20.67 -4.72,-4.32 -10.5,-7 -14.77,-12.16 -2.45,-2.6 -4.22,-6 -6.72,-8.51zm0.87 -13.48c1.4,8.5 8.29,14.94 15.28,15.38 -5.52,-4.47 -11.08,-9.03 -15.28,-15.38zm-19.21 15.59c7.21,-0.79 14.2,-7.5 14.6,-16.66 -3.86,6.78 -9.44,11.5 -14.6,16.66zm7.7 -21.54c4.47,-6.11 6.29,-14.22 9.2,-21.44 2.42,6.3 4.36,12.99 7.69,18.7 1.94,3.49 5.37,5.25 7.38,8.58 -0.34,3.26 -4.34,2.25 -6.25,1.72 4.31,7.18 12.58,8.97 16.57,16.44 1.04,5.59 -5.54,5.29 -8.53,5.58 5.07,5.24 12.89,6.98 16.36,14.15 -1.67,6.3 -8.98,4.64 -13.31,5.2 5.91,4.42 12.61,7.09 18.47,11.61 1.53,1.35 3.88,3.43 2.8,6.04 -1.99,3.16 -5.65,2.82 -8.57,3.34 0.94,1.07 2.25,1.88 2.61,3.51 -4.64,0.87 -9.09,-1.28 -13.57,-2.24 4.42,5.14 10.29,7.99 15.8,11.02 3.45,2.02 8,3.06 9.72,7.72 1.53,2.01 4.53,1.93 5.58,4.6 -0.68,2.79 -3.79,2.36 -5.69,3.08 0.72,0.97 1.39,1.97 2,3.04 -4.57,3.19 -10.56,1.21 -15.61,0.54 7.76,7.39 18.12,8.57 26.75,13.93 2.25,1.14 4.29,4.98 2.15,7.45 -2.54,2.26 -6.04,1.02 -8.98,1.55 0.51,0.87 1.05,1.73 1.55,2.61 -3.27,0.99 -6.5,-0.56 -9.63,-1.49 1.71,3.37 5.19,4.39 7.68,6.72 -2.74,2.3 -6.43,0.23 -9.5,-0.05 8.01,8.77 19.37,9.46 29.08,13.91 0.97,0.39 1.66,1.82 0.68,2.73 -4.68,5.86 -12.03,4.76 -18.14,4.87 4.39,7.19 12.97,6.76 19.31,10.03 -8.67,5.71 -20.12,3.59 -28.51,-2.17 1.33,4.69 5,7.44 8.41,9.68 7.46,4.6 15.54,7.48 23.64,9.91 1.41,0.33 3.16,2.14 1.91,3.92 -2.98,4.1 -7.51,5.74 -11.55,7.79 4.71,2.97 9.89,4.58 14.72,7.17 2.02,1 0.84,3.67 -0.7,4.36 -8.19,5.04 -17.61,6.03 -26.66,5.94 -12.84,-0.13 -26.1,-3.09 -37.02,-11.68 3.85,9.88 12.64,14.15 20.03,19.13 -10.75,3.92 -22.82,-1.07 -30.33,-10.89 0.45,10.7 -0.76,21.74 1.88,32.13 0.57,2.21 1.54,4.48 2.82,6.41l-25.41 0c6.17,-11.04 3.71,-25.91 4.22,-38.59 -7.14,10.35 -19.44,14.76 -30.09,11 7.32,-4.81 16.36,-8.67 19.94,-18.64 -8.71,7.28 -19.37,9.92 -29.75,10.92 -11.23,0.79 -23.01,0.52 -33.42,-5.21 -1.51,-0.66 -3.77,-3.17 -2.02,-4.94 4.07,-2.43 8.94,-2.45 12.84,-5.4 0.8,-0.52 1.56,-2.1 0.42,-2.73 -3.12,-2.21 -6.9,-2.84 -9.85,-5.46 -1.13,-0.97 -0.78,-3.17 0.46,-3.76 14.14,-5.69 28.07,-13.01 40.52,-23.02 -9.15,3.62 -18.63,6.33 -28.28,6.67 -2.81,-0.1 -6.14,0.2 -8.35,-2.24 4.56,-3.83 12.06,-3.47 14.75,-9.86 -3.5,-1.1 -7.8,0.1 -10.7,-3.14 -1.37,-1.74 0.95,-3.1 2.17,-3.34 11.04,-3.26 22.29,-6.95 31.81,-14.74 1.06,-0.97 2.41,-1.9 2.57,-3.67 -4.74,1.5 -10.1,6.19 -14.86,3.44 1.78,-1.44 3.79,-2.44 5.42,-4.16 -3.83,0.39 -7.81,1.56 -11.58,0.13 -1.6,-0.6 -1.03,-2.71 -0.77,-4.15 -3.01,0.94 -8.89,-1.85 -5.51,-6.17 9.87,-6.02 22.01,-7.55 30.39,-16.9 -5.16,1.03 -11.17,3.11 -16,-0.04 0.77,-0.98 1.66,-1.81 2.61,-2.52 -2.48,-0.96 -6.79,0.4 -7.84,-3.09 2.17,-2.92 5.73,-3.65 8.6,-5.31 -0.22,-2.07 -0.17,-4.65 1.82,-5.36 6.87,-3.19 14.46,-6.35 19.14,-13.57 -3.16,1.09 -6.27,3.41 -9.67,2.72 0.15,-2.1 1.85,-3.16 2.85,-4.66 -3.17,-0.21 -6.91,0.66 -9.56,-1.98 -1.72,-1.81 -0.08,-4.52 1.41,-5.63 6.03,-4.97 13.06,-7.83 19.13,-12.75 -4.24,0.1 -8.82,0.51 -12.73,-1.81 -1.9,-0.97 -2.18,-4.06 -0.61,-5.61 4.67,-5.1 10.78,-7.62 15.83,-12.05 -2.79,-0.11 -8.67,0.96 -8.7,-3.88 4.43,-7.67 12.94,-10.3 17.11,-18.39 -1.99,0.29 -5.19,1.8 -6.31,-0.98 1.13,-2.93 4.13,-3.79 5.76,-6.28z"/>
  <path class="fil3" d="M859.96 476.13c1.59,5.8 7.86,6.19 11.4,9.77 12.84,10.4 25.44,25.57 42.21,23.65 -13.87,-7.06 -25.5,-18.81 -38.05,-28.59 -4.61,-3.18 -10.16,-7.07 -15.56,-4.83zm-27.99 16.63c-9.87,8.17 -21.62,11.75 -32.7,16.69 9.79,3.76 20.21,-1.16 29.12,-6.34 10.56,-5.66 22.48,-14.96 23.04,-30.49 -6.36,6.89 -12.38,14.33 -19.46,20.14zm-10.53 -9.94c-7.75,7.59 -17.78,9.73 -26.62,14.67 23.28,-0.3 44.78,-19.3 55.18,-44.02 -12.69,4.66 -18.07,20.86 -28.56,29.35zm37.96 -33.57c15.91,7.74 25.3,26.41 39.1,37.9 5.82,5.09 12.58,9.34 19.91,9.49 -13,-6.15 -23.35,-18.15 -32.33,-30.84 -6.79,-8.83 -14.14,-19.33 -24.67,-20.79 -2.23,-0.85 -4.46,2.61 -2.01,4.24zm-1.48 -22.44c6.03,4.37 12.29,8.32 17.95,13.41 8.38,7.43 16.41,17.71 27.66,17.33 -8.58,-3.46 -15.88,-10.1 -22.17,-17.82 -6.23,-7.58 -14.66,-12.07 -23.44,-12.92zm-16.2 11.45c-10.39,12.06 -24.01,18.39 -36.66,26.02 3.77,1 7.69,-0.26 11.39,-1.25 11.58,-3.94 22.8,-11.34 30.3,-22.96 4.19,-6.56 7.12,-14.62 6.94,-23.03 -3.05,7.76 -6.84,15.2 -11.97,21.22zm-26.46 -7.45c-2.23,1.21 -4.73,1.8 -6.72,3.59 10.63,1.02 21.23,-3.22 30.43,-9.41 6.23,-4.46 12.06,-10.72 14.5,-19.21 -11.88,10.11 -24.44,19.21 -38.21,25.03zm42.88 -34.47c0.11,8.34 4.31,15.64 9.41,20.84 9.5,9.36 21.64,14.41 33.74,15.72 -16.78,-7.01 -33.19,-18.16 -43.15,-36.56zm-38.53 12.34c14.23,-2.09 29.83,-11.16 34.88,-28.55 -10.37,11.63 -22.72,20.09 -34.88,28.55zm37.65 -36.73c0.55,20.28 17.78,33.7 33.08,35.44 -13.96,-6.58 -27.69,-17.7 -33.08,-35.44zm1.15 -13.6c1.87,14.24 13.99,23.68 25.2,24.86 -9.04,-7.17 -19.63,-12.93 -25.2,-24.86zm-27.34 24.96c10.85,-1.77 22.83,-11.4 23.44,-25.75 -5.54,11.38 -15.28,17.66 -23.44,25.75zm19.09 -34.73c-4.08,6.27 -10.47,9.15 -15.3,14.28 8.81,-0.5 18.67,-8.01 19.25,-19.55 -1.74,1.16 -2.46,3.7 -3.95,5.27zm7.46 -5.79c1.36,11.25 11,18.59 19.85,19.09 -4.36,-3.99 -9.7,-6.47 -13.64,-11.23 -2.26,-2.41 -3.89,-5.55 -6.21,-7.86zm0.81 -12.46c1.29,7.86 7.66,13.81 14.11,14.22 -5.1,-4.13 -10.23,-8.34 -14.11,-14.22zm-17.74 14.4c6.65,-0.72 13.11,-6.92 13.47,-15.38 -3.56,6.26 -8.72,10.62 -13.47,15.38zm7.1 -19.89c4.14,-5.64 5.81,-13.13 8.5,-19.8 2.24,5.82 4.03,12 7.11,17.27 1.79,3.23 4.95,4.85 6.81,7.93 -0.31,3.01 -4.01,2.07 -5.77,1.58 3.98,6.63 11.62,8.29 15.31,15.19 0.96,5.16 -5.12,4.89 -7.88,5.15 4.68,4.84 11.9,6.45 15.11,13.07 -1.55,5.83 -8.3,4.29 -12.3,4.8 5.46,4.09 11.65,6.55 17.06,10.73 1.41,1.25 3.59,3.17 2.58,5.58 -1.83,2.92 -5.21,2.61 -7.91,3.08 0.87,1 2.08,1.74 2.41,3.25 -4.28,0.8 -8.39,-1.19 -12.53,-2.07 4.09,4.75 9.5,7.38 14.59,10.18 3.19,1.86 7.39,2.83 8.99,7.13 1.4,1.86 4.17,1.78 5.15,4.24 -0.64,2.58 -3.51,2.18 -5.26,2.85 0.66,0.89 1.29,1.82 1.85,2.81 -4.23,2.94 -9.76,1.12 -14.42,0.5 7.17,6.82 16.73,7.91 24.71,12.86 2.08,1.05 3.96,4.61 1.99,6.89 -2.35,2.08 -5.58,0.94 -8.3,1.43 0.47,0.8 0.97,1.59 1.43,2.41 -3.02,0.91 -6,-0.52 -8.9,-1.37 1.59,3.11 4.8,4.05 7.1,6.2 -2.53,2.13 -5.94,0.21 -8.77,-0.04 7.4,8.09 17.89,8.73 26.85,12.85 0.9,0.35 1.54,1.67 0.63,2.51 -4.32,5.42 -11.11,4.39 -16.75,4.5 4.05,6.64 11.98,6.25 17.84,9.26 -8.01,5.28 -18.59,3.32 -26.34,-2 1.22,4.33 4.62,6.88 7.77,8.94 6.89,4.25 14.35,6.91 21.83,9.15 1.31,0.31 2.92,1.98 1.77,3.62 -2.76,3.8 -6.94,5.31 -10.67,7.2 4.35,2.75 9.14,4.23 13.59,6.62 1.87,0.93 0.78,3.4 -0.64,4.04 -7.56,4.65 -16.27,5.56 -24.62,5.48 -11.86,-0.12 -24.11,-2.86 -34.2,-10.79 3.56,9.13 11.68,13.07 18.5,17.67 -9.93,3.62 -21.08,-0.99 -28.02,-10.06 0.42,9.88 -0.69,20.08 1.74,29.68 0.53,2.04 1.43,4.14 2.6,5.92l-23.47 0c5.71,-10.2 3.43,-23.93 3.91,-35.65 -6.6,9.57 -17.97,13.64 -27.8,10.16 6.76,-4.44 15.11,-8 18.42,-17.22 -8.05,6.73 -17.89,9.17 -27.48,10.09 -10.37,0.74 -21.25,0.49 -30.87,-4.8 -1.39,-0.62 -3.48,-2.93 -1.86,-4.57 3.76,-2.24 8.25,-2.26 11.86,-4.99 0.74,-0.48 1.43,-1.93 0.39,-2.52 -2.89,-2.04 -6.38,-2.62 -9.11,-5.04 -1.04,-0.9 -0.72,-2.93 0.43,-3.47 13.06,-5.26 25.93,-12.02 37.42,-21.27 -8.44,3.34 -17.2,5.85 -26.11,6.16 -2.6,-0.09 -5.67,0.19 -7.72,-2.07 4.22,-3.54 11.14,-3.2 13.63,-9.11 -3.23,-1.01 -7.21,0.1 -9.89,-2.9 -1.27,-1.6 0.88,-2.85 2.01,-3.08 10.19,-3.01 20.58,-6.42 29.38,-13.62 0.98,-0.89 2.22,-1.75 2.37,-3.38 -4.37,1.38 -9.33,5.71 -13.72,3.17 1.64,-1.33 3.5,-2.25 5,-3.84 -3.54,0.36 -7.21,1.44 -10.69,0.12 -1.48,-0.56 -0.95,-2.5 -0.71,-3.83 -2.78,0.86 -8.22,-1.71 -5.1,-5.7 9.13,-5.56 20.33,-6.98 28.08,-15.61 -4.77,0.95 -10.32,2.87 -14.78,-0.04 0.71,-0.91 1.53,-1.67 2.41,-2.32 -2.29,-0.89 -6.27,0.36 -7.24,-2.86 2,-2.7 5.29,-3.37 7.95,-4.91 -0.21,-1.91 -0.16,-4.29 1.68,-4.94 6.34,-2.95 13.35,-5.87 17.67,-12.54 -2.92,1 -5.79,3.15 -8.93,2.52 0.14,-1.95 1.7,-2.93 2.64,-4.31 -2.94,-0.19 -6.39,0.61 -8.83,-1.83 -1.6,-1.67 -0.08,-4.17 1.3,-5.2 5.57,-4.6 12.06,-7.24 17.66,-11.78 -3.91,0.09 -8.14,0.47 -11.76,-1.67 -1.75,-0.89 -2.01,-3.75 -0.56,-5.18 4.31,-4.71 9.96,-7.04 14.63,-11.14 -2.59,-0.09 -8.01,0.89 -8.04,-3.58 4.09,-7.08 11.95,-9.51 15.8,-16.98 -1.83,0.26 -4.8,1.66 -5.82,-0.9 1.04,-2.72 3.81,-3.5 5.31,-5.81z"/>
  <path class="fil4" d="M0 801.14c65.54,7.86 107.25,-32.4 165.75,-28 58.5,4.4 119.93,29.02 224.22,29.45 101.22,0.42 80.51,-64.61 215.84,-66.2 56.15,-0.66 99.42,32.98 151.73,31.54 59.05,-1.62 221.43,-57.88 266.46,-58.17l0 314.24 -1024 0c0,-74.29 0,-148.57 0,-222.86z"/>
  <path class="fil3" d="M857.6 879.18l0.33 -15.07 5.64 -3.12 -0.24 15.07 5.74 -3.22 11.05 -20.93 -0.26 8.1 -5.08 2.83 -0.17 6.59 5 3.28 5.73 -3.12 0.18 -6.21 7.42 -4.07 -13.41 19.9 -0.07 6.5 13.06 -7.2 -0.07 6.5 -13.16 7.29 -0.08 6.49 13.07 -7.28 -0.24 14.87 5.65 0.17 0.33 -14.87 12.83 7.68 0.07 -6.49 -12.82 -7.78 0.17 -6.5 12.82 7.78 0.17 -6.59 -12.67 -19.92 6.89 4.12 -0.08 5.84 5.65 3.37 5.27 -2.65 0.17 -6.59 -5.28 -3.09 0.26 -8.48 10.51 21.53 5.56 3.38 0.34 -14.97 5.56 3.28 -0.24 15.06 5.56 3.38 0.25 -15.07 12.73 7.68 2.99 -4.81 -12.73 -7.68 13.07 -7.29 -5.57 -3.37 -13.15 7.29 -5.57 -3.38 13.16 -7.19 -5.56 -3.47 -23.72 0.92 7.14 -3.88 5 3 5.73 -3.13 0.36 -6.02 -5.66 -3.38 -5.35 2.94 -7.17 -4.31 23.92 1.62 5.73 -3.12 -12.92 -7.78 5.73 -3.12 12.92 7.68 5.64 -3.12 -12.82 -7.77 12.97 -7.2 -2.75 -4.98 -12.97 7.19 0.24 -14.97 -5.64 3.13 -0.33 15.06 -5.64 3.12 0.24 -14.97 -5.74 3.13 -11.04 20.93 0.16 -8.1 5.08 -2.84 0.17 -6.59 -5 -3.28 -5.74 3.22 -0.17 6.12 -7.33 4.07 13.41 -19.91 0.07 -6.49 -13.15 7.19 0.16 -6.5 13.16 -7.28 0.08 -6.5 -13.16 7.29 0.33 -14.88 -5.64 -0.08 -0.34 14.88 -12.82 -7.78 -0.17 6.5 12.92 7.77 -0.18 6.5 -12.82 -7.78 -0.17 6.59 12.67 20.02 -6.98 -4.22 0.08 -5.83 -5.56 -3.38 -5.36 2.65 -0.17 6.59 5.28 3.19 -0.16 8.38 -10.51 -21.53 -5.57 -3.37 -0.33 15.06 -5.57 -3.37 0.24 -15.07 -5.56 -3.37 -0.24 15.06 -12.83 -7.68 -2.9 4.81 12.73 7.68 -13.16 7.29 5.66 3.37 13.16 -7.28 5.56 3.37 -13.16 7.29 5.57 3.37 23.62 -1.01 -7.05 3.97 -5 -2.99 -5.82 3.12 -0.36 6.03 5.66 3.37 5.35 -2.93 7.26 4.31 -23.91 -1.63 -5.74 3.12 12.92 7.78 -5.73 3.22 -12.92 -7.78 -5.64 3.12 12.83 7.78 -13.07 7.19 2.74 4.98 13.07 -7.19 -0.34 14.97 5.74 -3.12zm48.21 -30.17l0 0 -0.16 8.38 -6.98 -4.12 0.16 -8.48 6.98 4.22zm10.33 -8.6l0 0 -7.05 3.88 -7.26 -4.31 7.05 -3.97 7.26 4.4zm-16.89 -13.5l0 0 7.43 -4.17 -0.17 8.1 -7.42 4.16 0.16 -8.09zm-5.65 -0.55l0 0 -0.16 8.47 -6.98 -4.12 0.16 -8.48 6.98 4.13zm-10.33 8.97l0 0 7.17 4.4 -7.05 3.88 -7.26 -4.4 7.14 -3.88zm9.91 9.29l0 0 -0.16 8.1 -7.43 4.16 0.17 -8.1 7.42 -4.16z"/>
  <path class="fil3" d="M504.94 876.36l0.28 -12.66 4.74 -2.63 -0.2 12.67 4.82 -2.71 9.29 -17.59 -0.22 6.81 -4.27 2.38 -0.14 5.54 4.2 2.76 4.82 -2.63 0.15 -5.22 6.24 -3.42 -11.27 16.73 -0.06 5.46 10.98 -6.05 -0.06 5.47 -11.06 6.12 -0.07 5.46 10.98 -6.12 -0.2 12.5 4.75 0.15 0.28 -12.51 10.78 6.46 0.07 -5.46 -10.78 -6.54 0.14 -5.46 10.78 6.54 0.14 -5.54 -10.65 -16.75 5.79 3.47 -0.07 4.9 4.76 2.84 4.42 -2.23 0.15 -5.54 -4.44 -2.6 0.21 -7.12 8.84 18.1 4.68 2.83 0.28 -12.58 4.68 2.76 -0.2 12.66 4.67 2.84 0.2 -12.67 10.71 6.46 2.52 -4.04 -10.7 -6.46 10.98 -6.13 -4.68 -2.83 -11.06 6.12 -4.68 -2.83 11.06 -6.05 -4.67 -2.91 -19.94 0.76 6 -3.26 4.2 2.52 4.82 -2.62 0.3 -5.07 -4.75 -2.84 -4.51 2.47 -6.02 -3.62 20.1 1.37 4.82 -2.63 -10.86 -6.54 4.82 -2.62 10.86 6.46 4.75 -2.63 -10.79 -6.54 10.91 -6.04 -2.31 -4.19 -10.9 6.05 0.2 -12.59 -4.74 2.63 -0.28 12.66 -4.74 2.62 0.2 -12.58 -4.82 2.63 -9.29 17.59 0.14 -6.81 4.27 -2.38 0.14 -5.54 -4.2 -2.76 -4.82 2.7 -0.15 5.15 -6.16 3.42 11.27 -16.73 0.06 -5.46 -11.06 6.04 0.14 -5.46 11.06 -6.12 0.07 -5.46 -11.06 6.12 0.28 -12.51 -4.75 -0.06 -0.28 12.51 -10.78 -6.54 -0.15 5.46 10.86 6.54 -0.14 5.46 -10.78 -6.54 -0.14 5.54 10.65 16.83 -5.87 -3.55 0.07 -4.91 -4.68 -2.83 -4.51 2.23 -0.14 5.54 4.44 2.68 -0.14 7.04 -8.83 -18.1 -4.68 -2.83 -0.28 12.66 -4.68 -2.84 0.2 -12.66 -4.67 -2.84 -0.21 12.67 -10.78 -6.46 -2.44 4.04 10.7 6.46 -11.06 6.13 4.76 2.83 11.06 -6.12 4.68 2.83 -11.06 6.13 4.67 2.83 19.86 -0.84 -5.92 3.34 -4.2 -2.52 -4.9 2.62 -0.3 5.07 4.75 2.83 4.51 -2.46 6.1 3.62 -20.11 -1.37 -4.82 2.63 10.86 6.54 -4.82 2.7 -10.86 -6.54 -4.74 2.63 10.78 6.53 -10.98 6.05 2.31 4.19 10.98 -6.04 -0.28 12.58 4.82 -2.63zm40.53 -25.36l0 0 -0.14 7.05 -5.87 -3.47 0.14 -7.12 5.87 3.54zm8.68 -7.22l0 0 -5.92 3.26 -6.11 -3.63 5.93 -3.33 6.1 3.7zm-14.19 -11.36l0 0 6.24 -3.5 -0.14 6.81 -6.25 3.5 0.15 -6.81zm-4.75 -0.46l0 0 -0.14 7.12 -5.87 -3.46 0.14 -7.13 5.87 3.47zm-8.69 7.54l0 0 6.03 3.7 -5.93 3.27 -6.1 -3.71 6 -3.26zm8.33 7.81l0 0 -0.14 6.81 -6.24 3.5 0.14 -6.81 6.24 -3.5z"/>
  <path class="fil3" d="M336.59 956.79l0.22 -9.83 3.68 -2.03 -0.16 9.82 3.74 -2.1 7.21 -13.65 -0.17 5.28 -3.31 1.85 -0.11 4.3 3.25 2.14 3.74 -2.03 0.12 -4.06 4.84 -2.65 -8.74 12.98 -0.05 4.23 8.52 -4.69 -0.05 4.24 -8.58 4.75 -0.05 4.24 8.51 -4.75 -0.15 9.7 3.68 0.11 0.22 -9.7 8.36 5.01 0.05 -4.24 -8.36 -5.07 0.11 -4.23 8.36 5.07 0.11 -4.3 -8.26 -12.99 4.49 2.69 -0.05 3.8 3.69 2.2 3.43 -1.73 0.11 -4.29 -3.44 -2.02 0.17 -5.53 6.85 14.04 3.63 2.2 0.22 -9.76 3.62 2.14 -0.15 9.82 3.63 2.2 0.15 -9.82 8.31 5.01 1.95 -3.14 -8.3 -5.01 8.52 -4.75 -3.63 -2.2 -8.58 4.75 -3.63 -2.2 8.58 -4.69 -3.63 -2.26 -15.46 0.6 4.66 -2.53 3.25 1.96 3.74 -2.04 0.24 -3.93 -3.69 -2.2 -3.5 1.91 -4.67 -2.81 15.6 1.06 3.73 -2.03 -8.42 -5.07 3.74 -2.04 8.42 5.01 3.68 -2.04 -8.36 -5.07 8.46 -4.69 -1.79 -3.25 -8.46 4.69 0.16 -9.76 -3.68 2.04 -0.22 9.82 -3.68 2.04 0.16 -9.76 -3.74 2.03 -7.2 13.65 0.1 -5.28 3.31 -1.85 0.12 -4.3 -3.27 -2.14 -3.73 2.1 -0.12 3.99 -4.78 2.65 8.75 -12.97 0.04 -4.24 -8.58 4.69 0.11 -4.24 8.58 -4.75 0.05 -4.23 -8.58 4.75 0.22 -9.7 -3.68 -0.05 -0.22 9.7 -8.36 -5.07 -0.11 4.23 8.42 5.07 -0.11 4.24 -8.36 -5.07 -0.11 4.3 8.26 13.05 -4.55 -2.75 0.05 -3.81 -3.63 -2.2 -3.49 1.73 -0.11 4.3 3.44 2.08 -0.11 5.46 -6.85 -14.04 -3.63 -2.2 -0.22 9.82 -3.63 -2.2 0.16 -9.82 -3.62 -2.2 -0.16 9.82 -8.37 -5.01 -1.89 3.14 8.3 5.01 -8.58 4.75 3.69 2.2 8.58 -4.75 3.63 2.2 -8.58 4.75 3.63 2.2 15.4 -0.66 -4.59 2.59 -3.26 -1.95 -3.8 2.04 -0.24 3.93 3.69 2.19 3.5 -1.91 4.73 2.81 -15.59 -1.06 -3.74 2.04 8.42 5.07 -3.74 2.1 -8.42 -5.07 -3.68 2.03 8.36 5.07 -8.52 4.69 1.79 3.25 8.52 -4.69 -0.22 9.76 3.74 -2.03zm31.44 -19.67l0 0 -0.11 5.46 -4.55 -2.69 0.11 -5.52 4.55 2.75zm6.74 -5.61l0 0 -4.6 2.53 -4.74 -2.81 4.6 -2.59 4.74 2.87zm-11.02 -8.81l0 0 4.84 -2.71 -0.1 5.28 -4.85 2.71 0.11 -5.28zm-3.68 -0.36l0 0 -0.11 5.53 -4.55 -2.69 0.11 -5.52 4.55 2.68zm-6.74 5.85l0 0 4.68 2.88 -4.6 2.53 -4.74 -2.88 4.66 -2.53zm6.46 6.06l0 0 -0.1 5.28 -4.85 2.72 0.11 -5.28 4.84 -2.72z"/>
  <path class="fil3" d="M757.16 937.94l-10.64 6.04 -4.59 -2.65 10.64 -6.05 -4.59 -2.65 -10.64 6.04 -8.7 -4.96 5.8 -3.26 4.11 2.3 4.71 -2.66 -4.23 -2.42 4.35 -2.42 -4.59 -2.66 -4.35 2.42 -6.04 -3.38 8.94 -5.2 10.64 6.16 4.59 -2.65 -10.52 -6.17 4.6 -2.66 10.63 6.05 4.59 -2.66 -10.63 -6.04 10.51 -6.17 -2.29 -3.99 -10.52 6.17 0 -12.33 -4.59 2.66 0 12.33 -4.59 2.66 0 -12.33 -4.71 2.66 0 12.32 -8.7 4.96 0.12 -6.65 4.1 -2.29 0 -5.44 -4.1 2.42 0 -4.96 -4.72 2.66 0 4.95 -5.92 3.51 0 -10.39 10.64 -6.05 0 -5.43 -10.64 6.16 0 -5.32 10.64 -6.16 0 -5.32 -10.64 6.16 0 -12.08 -4.71 0 0 12.08 -10.51 -6.16 0 5.32 10.51 6.16 0 5.32 -10.51 -6.16 0 5.43 10.51 6.05 0 10.03 -5.68 -3.27 0 -4.71 -4.59 -2.78 0 4.84 -4.35 -2.54 0 5.31 4.35 2.54 0 6.89 -8.95 -5.2 0 -12.2 -4.71 -2.66 0 12.21 -4.59 -2.66 0 -12.21 -4.59 -2.66 0 12.21 -10.52 -6.05 -2.29 3.99 10.51 6.05 -10.63 6.16 4.59 2.66 10.63 -6.17 4.6 2.66 -10.64 6.16 4.71 2.66 10.52 -6.16 8.7 5.08 -5.68 3.38 -4.11 -2.42 -4.71 2.66 4.11 2.42 -4.23 2.42 4.59 2.65 4.35 -2.41 5.92 3.38 -8.94 5.2 -10.64 -6.17 -4.59 2.66 10.64 6.17 -4.6 2.65 -10.63 -6.16 -4.59 2.66 10.63 6.16 -10.51 6.04 2.29 3.99 10.52 -6.04 0 12.33 4.59 -2.78 0 -12.21 4.59 -2.66 0 12.33 4.59 -2.78 0 -12.2 8.7 -5.08 0 6.77 -4.1 2.29 0 5.44 4.1 -2.42 0 4.96 4.72 -2.66 0 -4.95 5.92 -3.51 0 10.27 -10.64 6.17 0 5.31 10.64 -6.16 0 5.44 -10.64 6.04 0 5.32 10.64 -6.05 0 12.09 4.59 0 0 -12.09 10.64 6.05 0 -5.32 -10.64 -6.04 0 -5.32 10.64 6.04 0 -5.31 -10.64 -6.17 0 -9.91 5.8 3.27 0 4.83 4.59 2.66 0 -4.84 4.35 2.54 0 -5.31 -4.35 -2.54 0 -6.89 8.95 5.08 0 12.32 4.59 2.66 0 -12.33 4.59 2.66 0 12.33 4.71 2.66 -0.12 -12.21 10.64 6.04 2.29 -3.98 -10.51 -6.17 10.63 -6.04 -4.71 -2.66zm-41.33 -21.02l0 0 5.92 -3.39 0 6.53 -5.92 3.5 0 -6.64zm-10.39 -3.63l0 0 5.68 3.38 0 6.89 -5.68 -3.38 0 -6.89zm-2.3 17.52l0 0 -6.04 -3.38 5.8 -3.38 5.92 3.5 -5.68 3.26zm2.06 4.23l0 0 5.92 -3.5 0 6.64 -5.92 3.39 0 -6.53zm10.51 3.39l0 -6.89 5.8 3.38 0 6.89 -5.8 -3.38zm2.42 -10.88l0 0 5.68 -3.26 6.04 3.38 -5.8 3.38 -5.92 -3.5z"/>
  <path class="fil3" d="M200.7 891.62l-12.37 7.02 -5.34 -3.09 12.37 -7.02 -5.34 -3.1 -12.37 7.03 -10.12 -5.76 6.75 -3.8 4.78 2.67 5.48 -3.09 -4.92 -2.81 5.06 -2.81 -5.34 -3.09 -5.06 2.81 -7.03 -3.94 10.4 -6.04 12.37 7.17 5.34 -3.09 -12.23 -7.17 5.34 -3.09 12.37 7.02 5.34 -3.09 -12.37 -7.02 12.23 -7.17 -2.67 -4.64 -12.23 7.17 0 -14.34 -5.34 3.1 0 14.33 -5.34 3.09 0 -14.33 -5.48 3.09 0 14.33 -10.12 5.76 0.14 -7.72 4.78 -2.67 0 -6.33 -4.78 2.81 0 -5.76 -5.48 3.09 0 5.76 -6.88 4.08 0 -12.09 12.36 -7.02 0 -6.33 -12.36 7.17 0 -6.18 12.36 -7.17 0 -6.18 -12.36 7.16 0 -14.05 -5.48 0 0 14.05 -12.23 -7.16 0 6.18 12.23 7.17 0 6.18 -12.23 -7.17 0 6.33 12.23 7.02 0 11.67 -6.61 -3.8 0 -5.48 -5.34 -3.23 0 5.62 -5.06 -2.95 0 6.18 5.06 2.96 0 8.01 -10.4 -6.05 0 -14.19 -5.48 -3.09 0 14.19 -5.34 -3.09 0 -14.19 -5.34 -3.1 0 14.2 -12.23 -7.03 -2.67 4.64 12.23 7.03 -12.37 7.16 5.34 3.09 12.37 -7.16 5.34 3.09 -12.37 7.17 5.48 3.09 12.23 -7.17 10.12 5.9 -6.61 3.94 -4.77 -2.81 -5.48 3.09 4.77 2.81 -4.91 2.81 5.34 3.09 5.05 -2.81 6.89 3.94 -10.4 6.04 -12.37 -7.17 -5.34 3.09 12.37 7.17 -5.34 3.09 -12.37 -7.16 -5.34 3.09 12.37 7.16 -12.23 7.03 2.67 4.64 12.23 -7.03 0 14.34 5.34 -3.23 0 -14.2 5.34 -3.09 0 14.33 5.34 -3.23 0 -14.19 10.12 -5.9 0 7.86 -4.78 2.67 0 6.33 4.78 -2.81 0 5.76 5.48 -3.09 0 -5.76 6.89 -4.08 0 11.94 -12.37 7.17 0 6.19 12.37 -7.17 0 6.32 -12.37 7.03 0 6.18 12.37 -7.02 0 14.05 5.34 0 0 -14.05 12.36 7.02 0 -6.18 -12.36 -7.03 0 -6.18 12.36 7.03 0 -6.19 -12.36 -7.17 0 -11.52 6.74 3.8 0 5.62 5.34 3.09 0 -5.62 5.06 2.95 0 -6.18 -5.06 -2.96 0 -8 10.4 5.9 0 14.33 5.34 3.09 0 -14.33 5.34 3.09 0 14.33 5.48 3.1 -0.14 -14.2 12.37 7.03 2.67 -4.64 -12.23 -7.17 12.37 -7.02 -5.48 -3.09zm-48.06 -24.46l0 0 6.88 -3.93 0 7.59 -6.88 4.07 0 -7.73zm-12.09 -4.21l0 0 6.61 3.93 0 8.01 -6.61 -3.93 0 -8.01zm-2.67 20.37l0 0 -7.03 -3.93 6.75 -3.93 6.89 4.07 -6.61 3.79zm2.39 4.92l0 0 6.89 -4.07 0 7.73 -6.89 3.93 0 -7.59zm12.23 3.94l0 -8.01 6.74 3.93 0 8.01 -6.74 -3.93zm2.81 -12.65l0 0 6.6 -3.79 7.03 3.93 -6.75 3.94 -6.88 -4.08z"/>
 </g>
 <g id="Слой_x0020_4">
  <metadata id="CorelCorpID_3Corel-Layer"/>
  <path class="fil5" d="M839.2 401.61c0,0 -5.4,1.7 -9.61,-0.4 -4.25,-2.11 -5.92,-9.59 -5.92,-9.59 2.84,-0.74 12.6,3.27 15.53,9.99zm-20.02 69.7c16.01,3.99 34.87,15.62 43.86,16.62 9.01,1 19.51,-8.99 28.52,-14.01 8.99,-4.99 30.5,-12.98 30.5,-19.99 0,-7 -69,-51.01 -69,-51.01 0,0 -0.73,-16.32 -3.53,-20.35 -3.91,-5.66 -24.48,-18.64 -24.48,-18.64l-35.34 -50.09c-1.02,-1.46 -3.28,-1.19 -3.91,0.47l-3.74 9.63 -30.48 -23.68c-1.17,-0.91 -2.89,-0.23 -3.1,1.26l-6.93 47.53c0,0 -4.88,-2.86 -11.01,-2.99 -5.54,-0.13 -13.36,0.36 -13.36,0.36l1.27 1.53c1.3,1.55 2.19,3.38 2.64,5.36l0.21 0.99c0,0 -20.44,-4.23 -27.37,-4.5 -7.14,-0.28 -28.46,2.34 -28.46,2.34l2.2 1.72c3.69,2.91 6.58,6.73 8.37,11.07l-15.11 -2 3.74 2.93c3.19,2.49 5.58,5.85 6.93,9.67l0.57 1.64 -10.73 -1.09c-5.08,-0.51 -10.2,-0.51 -15.28,0.05l-9.61 1.04 2.13 1.25c3.82,2.24 7.26,5.06 10.18,8.4l0.44 0.48c0,0 -32.77,17.26 -81.75,23.25 -49,6 -146.52,8.38 -172.51,22.38 -26.01,14 -67.01,31.88 -84.01,33.87 -17,2 -49,2.13 -66,-2.86 -11.48,-3.38 -39.44,-24.23 -58.12,-36.13 -8.99,-5.72 -17.87,-7.89 -17.87,-7.89l0.59 2.9c0.75,3.44 0.17,7.05 -1.59,10.11 0,0 -89.49,-43.07 -100.88,-43.07 -0.25,0 -0.47,0.02 -0.64,0.06 -7.99,2.02 -16.49,-4.99 -16.49,-4.99 0,0 -2.21,43.07 5.8,59.07 7.99,16 21.19,22.93 21.19,22.93l-0.21 0.07c-4.02,1.35 -8.35,1.52 -12.48,0.55l-2.59 -0.62c0,0 14.28,17 26.29,23.99 12,7.02 24.99,12.01 24.99,12.01 -3.66,3.1 -8.16,5.02 -12.94,5.53l-4.06 0.42c0,0 31,23.06 53,32.05 22.01,9.01 54.02,24.5 54.02,24.5 0,0 -24.02,43.5 -33,49.51 -9.02,6 -28.01,25.99 -28.01,25.99 0,0 -21,-1 -30.01,5.02 -2.89,1.91 -9.73,3.97 -12.05,5.27 -5.21,2.95 -6.14,10.05 -1.91,14.28 5.4,5.42 19.42,10.24 37.1,8.69 34,-3 64.75,-40.12 72.74,-52.13 8.02,-12 22.13,-43.12 30.14,-43.12 7.99,0 78.99,7.87 82,13.99 1.81,3.71 -10.73,18.44 -24.73,22.46 -14.01,3.99 -39.53,7.42 -46.52,10.41 -7.01,3.02 -11.75,31.13 -18.76,39.15 -7,7.99 -23.12,20.12 -25.12,29.11 -2,9.01 -14.03,13.62 -18.75,32.64 -2.12,8.48 -5.63,13.5 -3.93,24.44 1.17,7.39 10.31,13.81 20.42,8.92 11.14,-5.35 27.38,-27.11 29.37,-35.12 2,-7.99 38.89,-70.13 50.88,-75.12 12,-5 74.14,-19.87 104.13,-34.88 30,-15 56.76,-48.38 75.88,-59.63 12.56,-7.39 86.13,0.62 94.12,8.63 8.01,7.99 0,18 0,18l3.59 1.32c6.3,2.34 13.01,3.19 19.66,2.49l7.76 -0.81 -0.19 0.36c-2.49,4.42 -6.12,8.12 -10.5,10.69l-3.32 1.95c0,0 13.31,6.33 26.88,8.38 15.33,2.27 31.14,-0.39 31.14,-0.39l0 1.21c0,5.81 -1.77,11.48 -5.04,16.26l-1.53 2.23c0,0 8.39,5.46 22.7,8.06 28.75,5.2 73.89,10.24 69.87,16.26 -5.99,8.98 -20,8.98 -36,16 -16,6.99 -61.01,26.98 -47.01,41.99 14.01,15 36,9.01 52.01,3.99 16,-4.99 87.87,-44.86 86.99,-55.99 -0.85,-10.97 -32.45,-30.37 -32.45,-30.37 0,0 38.47,-1.64 62.46,13.37 23.99,15 33.89,42.84 47.75,54.38 15.75,13.13 25.25,17.61 42.25,14.62 0.17,-0.02 4.74,-1.94 4.91,-1.98 10.49,-1.96 14.89,-14.64 7.97,-22.78 -6.34,-7.44 -20.98,-16.19 -35.26,-26.61 -25.99,-19.02 -28.81,-25.73 -40.82,-36.72 0,0 -11.8,-11.92 -36.81,-24.9 -24.99,-13.01 -56.99,-20.89 -56.99,-20.89l-0.89 -4.7c-2.05,-10.79 -1.58,-21.93 1.4,-32.51l2.48 -8.91 0.13 0.43c1.62,5.42 2.53,11.03 2.77,16.68l0.1 2.89 5.5 -10.54c2.58,-4.89 4.11,-10.26 4.53,-15.77l0.98 -12.75 1.27 2.08c1.83,3.02 3.23,6.32 4.13,9.76l1.59 6.22 3.25 -13.02c1.34,-5.38 1.81,-10.93 1.4,-16.43l-0.63 -8.56c0,0 8.98,-4 21.99,-8.99 13.01,-5.02 16.13,-12.63 32.13,-8.63z"/>
  <path class="fil6" d="M639.46 369.86c-4.82,0.96 -1.23,4.04 -12.64,6.31 0.35,1.76 0.81,12.01 -0.23,13.33 -0.77,0.99 -1.64,1.72 -3,2.42 -2.72,1.4 -20.55,7.12 -23.28,8.27l-9.07 3.41c-7.84,2.62 4.53,-1.24 -3.65,0.43 -17.81,3.54 -40.16,4.03 -58.09,5.68 -10.19,0.93 -30.11,2.41 -36.89,2.78 -1.88,0.07 0.41,0.08 -4.32,0.21 -3.99,0.11 -12.17,2.15 -12.93,2.15 -9.23,0.01 -27.11,1.19 -28.91,-0.1 -6.11,-4.4 -5.1,-8.08 -8.37,-15.1 -3.6,-7.73 -3.24,-22.55 -2.24,-32.7 0.45,-4.52 14.54,-22.53 18,-23.42 1.45,-0.37 2.31,-0.77 4.2,-1.13 3.6,-0.85 9.08,0.46 14.29,-0.74 6.52,-1.51 12.94,-5.6 18.59,-7.37 1.45,-0.45 4.17,0.11 5.33,2.54 3.13,6.57 6.09,11.58 5.79,14.15 -0.35,3.02 -54.25,12.19 -66.2,15.97 0,0 -0.2,5.19 -0.13,5.29 0.6,0.78 70.38,-17.41 73.93,-19.03 3.55,-1.61 22.72,-6.39 23.36,-6.56 1.72,-0.45 11.2,-3.76 16.17,-2.16 11.45,3.69 45.83,9.86 60.03,13.06 1.91,0.43 6.42,16.82 7.27,19.53 0.91,2.92 2.57,5.41 2.91,5.49 1.08,0.25 -4.9,-23.03 -5.34,-24.88 -1.22,-5.05 -7.12,-6.21 -6.54,-6.24 1.62,-0.07 -41,-6.77 -55.92,-11.63 -2.07,-0.68 -4.22,-1.4 -6.42,-2.15 -1.72,-0.6 -3.47,-1.21 -5.24,-1.84 -2.33,-0.84 8.66,-6.32 20.02,-7.56 15.56,-0.62 23.92,-4.84 30.93,3.72 5.01,6.38 30.59,13.11 33.76,19.55 -0.75,0.15 -0.44,3.86 0.44,10.22 0.33,2.39 0.42,1.02 0.62,2.02 1.75,-0.31 11.01,-5.11 14.62,-4.67 1.52,0.19 3.06,9.18 -0.85,10.75z"/>
 </g>
</svg>
