<?xml version="1.0" encoding="utf-8"?>
<!-- Generator: Adobe Illustrator 22.1.0, SVG Export Plug-In . SVG Version: 6.00 Build 0)  -->
<svg version="1.1" id="Layer_1" xmlns:xodm="http://www.corel.com/coreldraw/odm/2003"
	 xmlns="http://www.w3.org/2000/svg" xmlns:xlink="http://www.w3.org/1999/xlink" x="0px" y="0px" viewBox="0 0 1024 1024"
	 style="enable-background:new 0 0 1024 1024;" xml:space="preserve">
<style type="text/css">
	.st0{fill:#019DCD;}
	.st1{fill:#47B1D1;}
	.st2{fill:#FEFEFE;}
	.st3{fill:#367989;}
	.st4{fill:#3F909E;}
</style>
<g id="Слой_x0020_1">
	<rect y="0" class="st0" width="1024" height="1024"/>
	<path class="st1" d="M0,554.8c65.5,16.5,85.6,0.6,151.4-8.6c65.8-9.2,113.1-44.1,210.1-33.3c100.6,11.3,270.4,30.3,405.8,26.9
		c56.2-1.4,76.1,23.8,128.4,20.8c59-3.4,83.3-3.5,128.3-4.1V1024H0C0,867.6,0,711.2,0,554.8L0,554.8z"/>
</g>
<g id="Слой_x0020_2">
	<path class="st2" d="M376.9,143.9l-7.6,4.3l-3.3-1.9l7.6-4.3l-3.3-1.9l-7.6,4.3l-6.2-3.6l4.2-2.4l3,1.6l3.4-1.9l-3-1.7l3.1-1.7
		l-3.3-1.9l-3.1,1.7l-4.3-2.4l6.4-3.7l7.6,4.4l3.3-1.9l-7.5-4.4l3.3-1.9l7.6,4.3l3.3-1.9l-7.6-4.3l7.5-4.4l-1.6-2.9l-7.5,4.4V111
		l-3.3,1.9v8.8l-3.3,1.9v-8.8l-3.4,1.9v8.8l-6.2,3.6l0.1-4.8l3-1.7v-3.9l-3,1.7V117l-3.4,1.9v3.6l-4.3,2.5v-7.5l7.6-4.3v-3.9
		l-7.6,4.4v-3.8l7.6-4.4v-3.8l-7.6,4.4v-8.7h-3.4v8.7l-7.5-4.4v3.8l7.5,4.4v3.8l-7.5-4.4v3.9l7.5,4.3v7.2l-4.1-2.3V119l-3.3-2v3.5
		l-3.1-1.8v3.8l3.1,1.8v4.9l-6.4-3.7v-8.8l-3.4-1.9v8.8l-3.3-1.9v-8.8l-3.3-1.9v8.8l-7.5-4.3l-1.6,2.9l7.5,4.3l-7.6,4.4l3.3,1.9
		l7.6-4.4l3.3,1.9l-7.6,4.4l3.4,1.9l7.5-4.4l6.3,3.6l-4.1,2.4l-3-1.7l-3.4,1.9l3,1.7l-3,1.7l3.3,1.9l3.1-1.7l4.3,2.4l-6.4,3.7
		l-7.6-4.4l-3.3,1.9l7.6,4.4l-3.3,1.9l-7.6-4.4l-3.3,1.9l7.6,4.4l-7.5,4.3l1.6,2.9l7.5-4.3v8.9l3.3-2v-8.8l3.3-1.9v8.9l3.3-2v-8.8
		l6.3-3.6v4.9l-3,1.6v3.9l3-1.7v3.6l3.4-1.9v-3.6l4.3-2.5v7.4l-7.6,4.4v3.8l7.6-4.4v3.9l-7.6,4.3v3.8l7.6-4.3v8.7h3.3v-8.7l7.6,4.3
		v-3.8l-7.6-4.3v-3.8l7.6,4.3v-3.8l-7.6-4.4v-7.1l4.2,2.4v3.5l3.3,1.9v-3.5l3.1,1.8v-3.8l-3.1-1.8v-4.9l6.4,3.6v8.9l3.3,1.9v-8.9
		l3.3,1.9v8.9l3.4,1.9l-0.1-8.8l7.6,4.3l1.6-2.9l-7.5-4.4l7.6-4.3L376.9,143.9L376.9,143.9z M347.3,128.8L347.3,128.8l4.3-2.4v4.7
		l-4.3,2.5V128.8z M339.8,126.2L339.8,126.2l4.1,2.4v4.9l-4.1-2.4V126.2z M338.1,138.8L338.1,138.8l-4.3-2.4l4.2-2.4l4.3,2.5
		L338.1,138.8L338.1,138.8z M339.6,141.8L339.6,141.8l4.3-2.5v4.8l-4.3,2.4V141.8z M347.2,144.3v-4.9l4.2,2.4v4.9L347.2,144.3z
		 M348.9,136.4L348.9,136.4l4.1-2.3l4.3,2.4l-4.2,2.4L348.9,136.4L348.9,136.4z"/>
	<path class="st2" d="M787.7,219.8l-9.2,5.2l-4-2.3l9.2-5.2l-4-2.3l-9.2,5.2l-7.5-4.3l5-2.8l3.5,2l4.1-2.3l-3.7-2.1l3.8-2.1l-4-2.3
		l-3.8,2.1l-5.2-2.9l7.7-4.5l9.2,5.3l4-2.3l-9.1-5.3l4-2.3l9.2,5.2l4-2.3l-9.2-5.2l9.1-5.3l-2-3.4l-9.1,5.3v-10.7l-4,2.3v10.6
		l-4,2.3v-10.6l-4.1,2.3v10.6L761,202l0.1-5.7l3.5-2v-4.7l-3.5,2.1v-4.3l-4.1,2.3v4.3l-5.1,3v-9l9.2-5.2v-4.7l-9.2,5.3v-4.6l9.2-5.3
		v-4.6l-9.2,5.3v-10.4h-4.1v10.4l-9.1-5.3v4.6l9.1,5.3v4.6l-9.1-5.3v4.7l9.1,5.2v8.7l-4.9-2.8v-4.1l-4-2.4v4.2l-3.8-2.2v4.6l3.8,2.2
		v6l-7.7-4.5v-10.6l-4.1-2.3v10.6l-4-2.3v-10.6l-4-2.3v10.6l-9.1-5.2l-2,3.4l9.1,5.2l-9.2,5.3l4,2.3l9.2-5.3l4,2.3l-9.2,5.3l4.1,2.3
		l9.1-5.3l7.5,4.4l-4.9,2.9l-3.5-2.1l-4.1,2.3l3.5,2.1l-3.7,2.1l4,2.3l3.8-2.1l5.1,2.9l-7.7,4.5l-9.2-5.3l-4,2.3l9.2,5.3l-4,2.3
		l-9.2-5.3l-4,2.3l9.2,5.3l-9.1,5.2l2,3.4l9.1-5.2v10.7l4-2.4v-10.6l4-2.3v10.6l4-2.4v-10.6l7.5-4.4v5.8l-3.5,2v4.7l3.5-2.1v4.3
		l4.1-2.3v-4.3l5.1-3v8.9l-9.2,5.3v4.6l9.2-5.3v4.7l-9.2,5.2v4.6l9.2-5.2v10.5h4v-10.5l9.2,5.2V248l-9.2-5.2v-4.6l9.2,5.2v-4.6
		l-9.2-5.3v-8.6l5,2.8v4.2l4,2.3V230l3.8,2.2v-4.6l-3.8-2.2v-5.9l7.7,4.4v10.7l4,2.3v-10.6l4,2.3v10.6l4.1,2.3l-0.1-10.6l9.2,5.2
		l2-3.4l-9.1-5.3l9.2-5.2L787.7,219.8L787.7,219.8z M751.9,201.6L751.9,201.6l5.1-2.9v5.6l-5.1,3V201.6z M742.9,198.5L742.9,198.5
		l4.9,2.9v5.9l-4.9-2.9V198.5z M741,213.6L741,213.6l-5.2-2.9l5-2.9l5.1,3L741,213.6L741,213.6z M742.7,217.3L742.7,217.3l5.1-3v5.8
		l-5.1,2.9V217.3z M751.8,220.2v-6l5,2.9v5.9L751.8,220.2L751.8,220.2z M753.9,210.8L753.9,210.8l4.9-2.8l5.2,2.9l-5,2.9
		L753.9,210.8L753.9,210.8z"/>
	<path class="st2" d="M959.9,103.4l-9,5.1l-3.9-2.3l9-5.1l-3.9-2.3l-9,5.1l-7.4-4.2l4.9-2.8l3.5,1.9l4-2.3l-3.6-2.1l3.7-2l-3.9-2.3
		l-3.7,2l-5.1-2.9l7.6-4.4l9,5.2l3.9-2.3l-8.9-5.2l3.9-2.3l9,5.1l3.9-2.3l-9-5.1l8.9-5.2l-2-3.4l-8.9,5.2V64.6l-3.9,2.3v10.4
		l-3.9,2.3V69.1l-4,2.3v10.4l-7.4,4.2l0.1-5.6l3.5-1.9v-4.6l-3.5,2.1v-4.2l-4,2.3v4.2l-5,3v-8.8l9-5.1v-4.6l-9,5.2v-4.5l9-5.2v-4.5
		l-9,5.2V48.6h-4v10.2l-8.9-5.2v4.5l8.9,5.2v4.5l-8.9-5.2v4.6l8.9,5.1v8.5l-4.8-2.8v-4l-3.9-2.3v4.1l-3.7-2.2v4.5l3.7,2.2v5.8
		l-7.6-4.4V71.4l-4-2.3v10.3l-3.9-2.3V66.9l-3.9-2.3V75l-8.9-5.1l-1.9,3.4l8.9,5.1l-9,5.2l3.9,2.3l9-5.2l3.9,2.3l-9,5.2l4,2.3
		l8.9-5.2l7.4,4.3l-4.8,2.9l-3.5-2.1l-4,2.3l3.5,2.1l-3.6,2l3.9,2.3l3.7-2l5,2.9l-7.6,4.4l-9-5.2l-3.9,2.3l9,5.2l-3.9,2.3l-9-5.2
		l-3.9,2.3l9,5.2l-8.9,5.1l1.9,3.4l8.9-5.1v10.4l3.9-2.3v-10.3l3.9-2.3V120l3.9-2.3v-10.3l7.4-4.3v5.7l-3.5,1.9v4.6l3.5-2.1v4.2
		l4-2.3V111l5-3v8.7l-9,5.2v4.5l9-5.2v4.6l-9,5.1v4.5l9-5.1v10.2h3.9v-10.2l9,5.1V131l-9-5.1v-4.5l9,5.1V122l-9-5.2v-8.4l4.9,2.8
		v4.1l3.9,2.3v-4.1l3.7,2.1V111l-3.7-2.1v-5.8l7.6,4.3v10.4l3.9,2.3v-10.4l3.9,2.3v10.4l4,2.3l-0.1-10.3l9,5.1l2-3.4l-8.9-5.2l9-5.1
		L959.9,103.4L959.9,103.4z M924.9,85.6L924.9,85.6l5-2.9v5.5l-5,3V85.6z M916.1,82.5L916.1,82.5l4.8,2.9v5.8l-4.8-2.9V82.5z
		 M914.2,97.3L914.2,97.3l-5.1-2.9l4.9-2.9l5,3L914.2,97.3z M915.9,100.9L915.9,100.9l5-3v5.6l-5,2.9
		C915.9,106.4,915.9,100.9,915.9,100.9z M924.8,103.8V98l4.9,2.9v5.8L924.8,103.8z M926.9,94.6L926.9,94.6l4.8-2.8l5.1,2.9l-4.9,2.9
		L926.9,94.6L926.9,94.6z"/>
	<path class="st2" d="M47.5,434.6l-3,1.7l-1.3-0.8l3-1.7l-1.3-0.8l-3,1.7l-2.5-1.4l1.7-0.9l1.2,0.6l1.3-0.8l-1.2-0.7l1.2-0.7
		l-1.3-0.8l-1.2,0.7l-1.7-1l2.5-1.5l3,1.8l1.3-0.8l-3-1.8l1.3-0.8l3,1.7l1.3-0.8l-3-1.7l3-1.8l-0.7-1.1l-3,1.8v-3.5l-1.3,0.8v3.5
		l-1.3,0.8v-3.5l-1.3,0.8v3.5l-2.5,1.4l0-1.9l1.2-0.7v-1.5l-1.2,0.7v-1.4l-1.3,0.8v1.4l-1.7,1v-3l3-1.7v-1.5l-3,1.8v-1.5l3-1.8v-1.5
		l-3,1.8v-3.4h-1.3v3.4l-3-1.8v1.5l3,1.8v1.5l-3-1.8v1.5l3,1.7v2.9l-1.6-0.9v-1.3l-1.3-0.8v1.4l-1.2-0.7v1.5l1.2,0.7v2l-2.5-1.5
		v-3.5l-1.3-0.8v3.5l-1.3-0.8v-3.5l-1.3-0.8v3.5l-3-1.7l-0.6,1.1l3,1.7l-3,1.8l1.3,0.8l3-1.8l1.3,0.8l-3,1.8l1.3,0.8l3-1.8l2.5,1.4
		l-1.6,1l-1.2-0.7l-1.3,0.8l1.2,0.7l-1.2,0.7l1.3,0.8l1.2-0.7l1.7,1l-2.5,1.5l-3-1.8l-1.3,0.8l3,1.8l-1.3,0.8l-3-1.8l-1.3,0.8l3,1.8
		l-3,1.7l0.6,1.1l3-1.7v3.5l1.3-0.8v-3.5l1.3-0.8v3.5l1.3-0.8v-3.5l2.5-1.4v1.9l-1.2,0.7v1.5l1.2-0.7v1.4l1.3-0.8v-1.4l1.7-1v2.9
		l-3,1.8v1.5l3-1.8v1.5l-3,1.7v1.5l3-1.7v3.4h1.3v-3.4l3,1.7v-1.5l-3-1.7v-1.5l3,1.7v-1.5l-3-1.8v-2.8l1.7,0.9v1.4l1.3,0.8V438
		l1.2,0.7v-1.5l-1.2-0.7v-2l2.5,1.4v3.5l1.3,0.8v-3.5l1.3,0.8v3.5l1.3,0.8l0-3.5l3,1.7l0.7-1.1l-3-1.8l3-1.7L47.5,434.6L47.5,434.6z
		 M35.8,428.6L35.8,428.6l1.7-1v1.9l-1.7,1V428.6L35.8,428.6z M32.8,427.6L32.8,427.6l1.6,1v2l-1.6-1V427.6z M32.1,432.6L32.1,432.6
		l-1.7-1l1.7-1l1.7,1C33.8,431.6,32.1,432.6,32.1,432.6z M32.7,433.8L32.7,433.8l1.7-1v1.9l-1.7,1V433.8L32.7,433.8z M35.7,434.7v-2
		l1.7,1v2L35.7,434.7z M36.4,431.6L36.4,431.6l1.6-0.9l1.7,1l-1.7,1L36.4,431.6z"/>
	<path class="st2" d="M138.9,122.6l0.3-12.7l4.8-2.6l-0.2,12.7l4.8-2.7l9.3-17.6l-0.2,6.8l-4.3,2.4l-0.1,5.6l4.2,2.8l4.8-2.6
		l0.1-5.2l6.3-3.4l-11.3,16.8l-0.1,5.5l11-6.1l-0.1,5.5l-11.1,6.1l-0.1,5.5l11-6.1l-0.2,12.5l4.8,0.1l0.3-12.5l10.8,6.5l0.1-5.5
		l-10.8-6.6l0.1-5.5l10.8,6.6l0.1-5.6l-10.7-16.8l5.8,3.5l-0.1,4.9l4.8,2.8l4.4-2.2l0.1-5.6l-4.4-2.6l0.2-7.1l8.9,18.1l4.7,2.8
		l0.3-12.6l4.7,2.8l-0.2,12.7l4.7,2.8l0.2-12.7l10.7,6.5l2.5-4.1L210,110l11-6.1l-4.7-2.8l-11.1,6.1l-4.7-2.8l11.1-6.1l-4.7-2.9
		l-20,0.8l6-3.3l4.2,2.5l4.8-2.6l0.3-5.1l-4.8-2.8l-4.5,2.5l-6-3.6l20.1,1.4l4.8-2.6l-10.9-6.6l4.8-2.6l10.9,6.5l4.8-2.6l-10.8-6.6
		l10.9-6.1l-2.3-4.2l-10.9,6l0.2-12.6l-4.8,2.6L203.7,69l-4.8,2.6l0.2-12.6l-4.8,2.6L185,79.3l0.1-6.8l4.3-2.4l0.1-5.6l-4.2-2.8
		l-4.8,2.7l-0.1,5.2l-6.2,3.4l11.3-16.8l0.1-5.5l-11.1,6.1l0.1-5.5l11.1-6.1l0.1-5.5l-11.1,6.1l0.3-12.5l-4.8-0.1l-0.3,12.5
		l-10.8-6.6l-0.1,5.5l10.9,6.5l-0.1,5.5l-10.8-6.5l-0.1,5.5l10.7,16.9l-5.9-3.6l0.1-4.9l-4.7-2.8l-4.5,2.2l-0.1,5.6l4.4,2.7
		l-0.1,7.1l-8.9-18.1l-4.7-2.8l-0.3,12.7l-4.7-2.8l0.2-12.7l-4.7-2.8l-0.2,12.7l-10.8-6.5l-2.4,4l10.7,6.5l-11.1,6.1l4.8,2.8
		l11.1-6.1l4.7,2.8l-11.1,6.1l4.7,2.8l19.9-0.8l-5.9,3.3l-4.2-2.5l-4.9,2.6l-0.3,5.1l4.8,2.8l4.5-2.5l6.1,3.6l-20.1-1.4l-4.8,2.6
		l10.9,6.6l-4.8,2.7L126,99.3l-4.8,2.6l10.8,6.6l-11,6.1l2.3,4.2l11-6.1l-0.3,12.6L138.9,122.6L138.9,122.6z M179.5,97.2L179.5,97.2
		l-0.1,7.1l-5.9-3.5l0.1-7.1L179.5,97.2z M188.3,90L188.3,90l-5.9,3.3l-6.1-3.6l5.9-3.3L188.3,90z M174,78.6L174,78.6l6.3-3.5
		l-0.1,6.8l-6.3,3.5L174,78.6z M169.3,78.1L169.3,78.1l-0.1,7.1l-5.9-3.5l0.1-7.1L169.3,78.1z M160.6,85.7L160.6,85.7l6,3.7
		l-5.9,3.3l-6.1-3.7L160.6,85.7z M168.9,93.5L168.9,93.5l-0.1,6.8l-6.3,3.5l0.1-6.8L168.9,93.5z"/>
	<path class="st2" d="M61.7,265.7l0.3-11l4.1-2.3l-0.2,11l4.2-2.4l8.1-15.3l-0.2,5.9l-3.7,2.1l-0.1,4.8l3.7,2.4l4.2-2.3l0.1-4.6
		l5.4-3l-9.8,14.6l-0.1,4.8l9.6-5.3l-0.1,4.8l-9.7,5.3l-0.1,4.8l9.6-5.4L87,285.6l4.1,0.1l0.2-10.9l9.4,5.6l0.1-4.8l-9.4-5.7
		l0.1-4.8l9.4,5.7l0.1-4.8l-9.3-14.6l5.1,3l-0.1,4.3l4.2,2.5l3.9-1.9l0.1-4.8l-3.9-2.3l0.2-6.2l7.7,15.8l4.1,2.5l0.2-11l4.1,2.4
		l-0.2,11.1l4.1,2.5l0.2-11l9.3,5.6l2.2-3.5l-9.3-5.6l9.6-5.3l-4.1-2.5l-9.7,5.4l-4.1-2.5l9.7-5.3l-4.1-2.5l-17.4,0.7l5.2-2.9
		l3.7,2.2l4.2-2.3l0.3-4.4l-4.2-2.5l-3.9,2.1l-5.3-3.2l17.5,1.2l4.2-2.3l-9.5-5.7l4.2-2.3l9.5,5.6l4.1-2.3l-9.4-5.7l9.5-5.3l-2-3.7
		l-9.5,5.3l0.2-11l-4.1,2.3l-0.2,11.1l-4.1,2.3l0.2-11l-4.2,2.3l-8.1,15.4l0.1-5.9l3.7-2.1l0.1-4.8l-3.7-2.4l-4.2,2.4l-0.1,4.5
		l-5.4,3l9.8-14.6l0.1-4.8l-9.6,5.3l0.1-4.8l9.7-5.4l0.1-4.8l-9.7,5.3l0.2-10.9l-4.1-0.1l-0.3,10.9l-9.4-5.7l-0.1,4.8l9.5,5.7
		l-0.1,4.8l-9.4-5.7l-0.1,4.8l9.3,14.7l-5.1-3.1l0.1-4.3l-4.1-2.5l-3.9,1.9l-0.1,4.8l3.9,2.3l-0.1,6.1l-7.7-15.8l-4.1-2.5l-0.3,11.1
		l-4.1-2.5l0.2-11l-4.1-2.5l-0.2,11.1l-9.4-5.6l-2.1,3.5l9.3,5.6l-9.7,5.4l4.2,2.5l9.7-5.3l4.1,2.5l-9.6,5.3l4.1,2.5l17.3-0.7
		l-5.2,2.9l-3.7-2.2l-4.3,2.3l-0.3,4.4l4.2,2.5l3.9-2.2l5.3,3.2l-17.5-1.2l-4.2,2.3l9.5,5.7l-4.2,2.4l-9.5-5.7l-4.1,2.3l9.4,5.7
		l-9.6,5.3l2,3.6l9.6-5.3l-0.2,11L61.7,265.7L61.7,265.7z M97.1,243.6L97.1,243.6l-0.1,6.1l-5.1-3l0.1-6.2L97.1,243.6L97.1,243.6z
		 M104.7,237.3L104.7,237.3l-5.2,2.8l-5.3-3.2l5.2-2.9L104.7,237.3L104.7,237.3z M92.3,227.4L92.3,227.4l5.4-3.1l-0.1,5.9l-5.4,3.1
		L92.3,227.4z M88.1,227L88.1,227l-0.1,6.2l-5.1-3l0.1-6.2C83,223.9,88.1,227,88.1,227z M80.6,233.5L80.6,233.5l5.3,3.2l-5.2,2.9
		l-5.3-3.2L80.6,233.5z M87.8,240.4L87.8,240.4l-0.1,5.9l-5.4,3.1l0.1-5.9L87.8,240.4L87.8,240.4z"/>
	<path class="st2" d="M893.4,272l0.2-8.4l3.1-1.7l-0.1,8.4l3.2-1.8l6.2-11.6l-0.1,4.5l-2.8,1.6l-0.1,3.7l2.8,1.8l3.2-1.7l0.1-3.5
		l4.1-2.3l-7.5,11.1l0,3.6l7.3-4l0,3.6l-7.3,4l0,3.6l7.3-4.1l-0.1,8.3l3.2,0.1l0.2-8.3l7.1,4.3l0-3.6l-7.1-4.3l0.1-3.6l7.1,4.3
		l0.1-3.7l-7-11.1l3.8,2.3l0,3.3l3.1,1.9l2.9-1.5l0.1-3.7l-2.9-1.7l0.1-4.7l5.8,12l3.1,1.9l0.2-8.3l3.1,1.8l-0.1,8.4l3.1,1.9
		l0.1-8.4l7.1,4.3l1.7-2.7l-7.1-4.3l7.3-4l-3.1-1.9l-7.3,4.1l-3.1-1.9l7.3-4l-3.1-1.9l-13.2,0.5l4-2.2l2.8,1.7l3.2-1.7l0.2-3.4
		l-3.2-1.9l-3,1.6l-4-2.4l13.3,0.9l3.2-1.7l-7.2-4.3l3.2-1.7l7.2,4.3l3.1-1.7l-7.1-4.3l7.2-4l-1.5-2.8l-7.2,4l0.1-8.3l-3.1,1.7
		l-0.2,8.4l-3.1,1.7l0.1-8.3l-3.2,1.7l-6.2,11.6l0.1-4.5l2.8-1.6l0.1-3.7l-2.8-1.8l-3.2,1.8l-0.1,3.4l-4.1,2.3l7.5-11.1l0-3.6
		l-7.3,4l0.1-3.6l7.3-4.1l0-3.6l-7.3,4.1l0.2-8.3l-3.1,0l-0.2,8.3l-7.1-4.3l-0.1,3.6l7.2,4.3l-0.1,3.6l-7.1-4.3l-0.1,3.7l7,11.1
		l-3.9-2.4l0-3.3l-3.1-1.9l-3,1.5l-0.1,3.7l2.9,1.8l-0.1,4.7l-5.8-12l-3.1-1.9l-0.2,8.4l-3.1-1.9l0.1-8.4l-3.1-1.9l-0.1,8.4
		l-7.1-4.3l-1.6,2.7l7.1,4.3l-7.3,4.1l3.2,1.9l7.3-4.1l3.1,1.9l-7.3,4.1l3.1,1.9l13.1-0.6l-3.9,2.2l-2.8-1.7l-3.3,1.7l-0.2,3.4
		l3.1,1.9l3-1.6l4,2.4l-13.3-0.9l-3.2,1.7l7.2,4.3l-3.2,1.8l-7.2-4.3l-3.1,1.7l7.1,4.3l-7.3,4l1.5,2.8l7.3-4l-0.2,8.3L893.4,272
		L893.4,272z M920.2,255.2L920.2,255.2l-0.1,4.7l-3.9-2.3l0.1-4.7L920.2,255.2L920.2,255.2z M926,250.4L926,250.4l-3.9,2.2l-4-2.4
		l3.9-2.2L926,250.4z M916.6,242.9L916.6,242.9l4.1-2.3l-0.1,4.5l-4.1,2.3L916.6,242.9L916.6,242.9z M913.4,242.6L913.4,242.6
		l-0.1,4.7l-3.9-2.3l0.1-4.7L913.4,242.6L913.4,242.6z M907.7,247.6L907.7,247.6l4,2.4l-3.9,2.2l-4-2.4L907.7,247.6z M913.2,252.8
		L913.2,252.8l-0.1,4.5l-4.1,2.3l0.1-4.5L913.2,252.8L913.2,252.8z"/>
	<path class="st2" d="M486.7,229.4l0.2-11l4.1-2.3l-0.2,11l4.2-2.4l8.1-15.3l-0.2,5.9l-3.7,2.1l-0.1,4.8l3.6,2.4l4.2-2.3l0.1-4.5
		l5.4-3l-9.8,14.6l-0.1,4.8l9.5-5.3l0,4.8l-9.6,5.3l-0.1,4.8l9.5-5.3l-0.2,10.9l4.1,0.1l0.2-10.9l9.4,5.6l0-4.8l-9.4-5.7l0.1-4.8
		l9.4,5.7l0.1-4.8l-9.3-14.6l5,3l-0.1,4.3l4.1,2.5l3.8-1.9l0.1-4.8l-3.9-2.3l0.2-6.2l7.7,15.7l4.1,2.5l0.3-10.9l4.1,2.4l-0.2,11
		l4.1,2.5l0.2-11l9.3,5.6l2.2-3.5l-9.3-5.6l9.5-5.3l-4.1-2.5l-9.6,5.3l-4.1-2.5l9.6-5.3l-4.1-2.5l-17.3,0.7l5.2-2.8l3.7,2.2l4.2-2.3
		l0.3-4.4l-4.1-2.5l-3.9,2.1l-5.2-3.2l17.5,1.2l4.2-2.3l-9.5-5.7l4.2-2.3l9.5,5.6l4.1-2.3l-9.4-5.7l9.5-5.3l-2-3.6l-9.5,5.3
		l0.2-10.9l-4.1,2.3l-0.2,11l-4.1,2.3l0.2-10.9l-4.2,2.3l-8.1,15.3l0.1-5.9l3.7-2.1l0.1-4.8l-3.7-2.4l-4.2,2.4l-0.1,4.5l-5.4,3
		l9.8-14.6l0-4.8l-9.6,5.3l0.1-4.8l9.6-5.3l0.1-4.8l-9.6,5.3l0.2-10.9l-4.1-0.1l-0.2,10.9l-9.4-5.7l-0.1,4.8l9.4,5.7l-0.1,4.7
		l-9.4-5.7l-0.1,4.8l9.3,14.6L508,183l0.1-4.3l-4.1-2.5l-3.9,1.9L500,183l3.9,2.3l-0.1,6.1l-7.7-15.7l-4.1-2.5l-0.3,11l-4.1-2.5
		l0.2-11l-4.1-2.5l-0.2,11l-9.4-5.6l-2.1,3.5l9.3,5.6l-9.6,5.3l4.1,2.5l9.6-5.3l4.1,2.5l-9.6,5.3l4.1,2.5l17.3-0.7l-5.1,2.9
		l-3.7-2.2l-4.3,2.3l-0.3,4.4l4.1,2.5l3.9-2.1l5.3,3.1l-17.5-1.2l-4.2,2.3l9.4,5.7l-4.2,2.4l-9.5-5.7l-4.1,2.3l9.4,5.7l-9.5,5.3
		l2,3.6l9.5-5.3l-0.2,10.9L486.7,229.4L486.7,229.4z M521.9,207.4L521.9,207.4l-0.1,6.1l-5.1-3l0.1-6.2L521.9,207.4z M529.5,201.1
		L529.5,201.1l-5.2,2.8l-5.3-3.1l5.2-2.9L529.5,201.1L529.5,201.1z M517.2,191.2L517.2,191.2l5.4-3l-0.1,5.9l-5.4,3L517.2,191.2z
		 M513,190.8L513,190.8l-0.1,6.2l-5.1-3l0.1-6.2L513,190.8L513,190.8z M505.5,197.4L505.5,197.4l5.2,3.2l-5.2,2.8l-5.3-3.2
		L505.5,197.4z M512.7,204.2L512.7,204.2l-0.1,5.9l-5.4,3.1l0.1-5.9L512.7,204.2z"/>
	<path class="st2" d="M612.5,124.9l0.3-11.4l4.3-2.4l-0.2,11.4l4.3-2.4l8.4-15.8l-0.2,6.1l-3.8,2.2l-0.1,5l3.8,2.5l4.3-2.4l0.1-4.7
		l5.6-3.1l-10.2,15.1l0,4.9l9.9-5.4l-0.1,4.9l-10,5.5l-0.1,4.9l9.9-5.5l-0.2,11.3l4.3,0.1l0.3-11.3l9.7,5.8l0.1-4.9l-9.7-5.9
		l0.1-4.9l9.7,5.9l0.1-5l-9.6-15.1l5.2,3.1l-0.1,4.4l4.3,2.6l4-2l0.1-5l-4-2.3l0.2-6.4l8,16.3l4.2,2.6l0.3-11.3l4.2,2.5l-0.2,11.4
		l4.2,2.6l0.2-11.4l9.6,5.8l2.3-3.7l-9.6-5.8l9.9-5.5l-4.2-2.6l-10,5.5l-4.2-2.6l10-5.4l-4.2-2.6l-18,0.7l5.4-2.9l3.8,2.3l4.3-2.4
		l0.3-4.6l-4.3-2.6l-4.1,2.2l-5.4-3.3l18.1,1.2l4.3-2.4l-9.8-5.9l4.3-2.4l9.8,5.8l4.3-2.4l-9.7-5.9l9.8-5.4l-2.1-3.8l-9.8,5.4
		l0.2-11.3l-4.3,2.4l-0.3,11.4l-4.3,2.4l0.2-11.3l-4.3,2.4l-8.4,15.8l0.1-6.1l3.8-2.2l0.1-5l-3.8-2.5l-4.3,2.4l-0.1,4.6l-5.5,3.1
		l10.2-15.1l0.1-4.9l-10,5.4l0.1-4.9l10-5.5l0-4.9l-10,5.5l0.3-11.3l-4.3-0.1l-0.3,11.3l-9.7-5.9l-0.1,4.9l9.8,5.9l-0.1,4.9
		l-9.7-5.9l-0.1,5l9.6,15.2l-5.3-3.2l0.1-4.4l-4.2-2.6l-4.1,2l-0.1,5l4,2.4l-0.1,6.3l-8-16.3l-4.2-2.6l-0.3,11.4l-4.2-2.6l0.2-11.4
		l-4.2-2.5L609.2,73l-9.7-5.8l-2.2,3.6l9.6,5.8l-10,5.5l4.3,2.6l10-5.5l4.2,2.6l-10,5.5l4.2,2.6l17.9-0.8l-5.3,3l-3.8-2.3l-4.4,2.4
		l-0.3,4.6l4.3,2.6l4-2.2l5.5,3.3l-18.1-1.2l-4.3,2.4l9.8,5.9l-4.3,2.4l-9.8-5.9l-4.3,2.4l9.7,5.9l-9.9,5.4l2.1,3.8l9.9-5.4
		l-0.3,11.3L612.5,124.9L612.5,124.9z M649,102L649,102l-0.1,6.3l-5.3-3.1l0.1-6.4C643.7,98.8,649,102,649,102z M656.8,95.5
		L656.8,95.5l-5.3,2.9l-5.5-3.3l5.3-3C651.3,92.2,656.8,95.5,656.8,95.5z M644,85.3L644,85.3l5.6-3.2l-0.1,6.1l-5.6,3.2L644,85.3z
		 M639.7,84.9L639.7,84.9l-0.1,6.4l-5.3-3.1l0.1-6.4L639.7,84.9z M631.9,91.7L631.9,91.7l5.4,3.3l-5.3,2.9l-5.5-3.3
		C626.5,94.6,631.9,91.7,631.9,91.7z M639.4,98.7L639.4,98.7l-0.1,6.1l-5.6,3.2l0.1-6.1L639.4,98.7z"/>
	<path class="st2" d="M994.1,641.7l-9.8,5.6l-4.2-2.5l9.8-5.6l-4.2-2.5l-9.8,5.6l-8-4.6l5.3-3l3.8,2.1l4.3-2.5l-3.9-2.2l4-2.2
		l-4.2-2.5l-4,2.2l-5.6-3.1l8.2-4.8l9.8,5.7l4.2-2.5l-9.7-5.7l4.2-2.5l9.8,5.6l4.2-2.5l-9.8-5.6l9.7-5.7l-2.1-3.7l-9.7,5.7v-11.4
		l-4.2,2.5v11.4l-4.2,2.5v-11.4l-4.3,2.5v11.4l-8,4.6l0.1-6.1l3.8-2.1v-5l-3.8,2.2v-4.6l-4.3,2.5v4.6l-5.5,3.2v-9.6l9.8-5.6v-5
		L956,603v-4.9l9.8-5.7v-4.9l-9.8,5.7V582h-4.3v11.1l-9.7-5.7v4.9l9.7,5.7v4.9l-9.7-5.7v5l9.7,5.6v9.3l-5.2-3v-4.3l-4.2-2.6v4.5
		l-4-2.3v4.9l4,2.3v6.4l-8.3-4.8v-11.3l-4.3-2.5v11.3l-4.2-2.5V602l-4.2-2.5v11.3l-9.7-5.6l-2.1,3.7l9.7,5.6l-9.8,5.7l4.2,2.5
		l9.8-5.7l4.2,2.5l-9.8,5.7l4.3,2.5l9.7-5.7l8,4.7l-5.2,3.1l-3.8-2.2l-4.3,2.5l3.8,2.2l-3.9,2.2l4.2,2.5l4-2.2l5.5,3.1l-8.2,4.8
		l-9.8-5.7l-4.2,2.5l9.8,5.7l-4.2,2.5l-9.8-5.7l-4.2,2.5l9.8,5.7l-9.7,5.6l2.1,3.7l9.7-5.6v11.4l4.2-2.6V651l4.2-2.5v11.4l4.2-2.6
		v-11.3l8-4.7v6.2l-3.8,2.1v5l3.8-2.2v4.6l4.3-2.5v-4.6l5.5-3.2v9.5l-9.8,5.7v4.9l9.8-5.7v5l-9.8,5.6v4.9l9.8-5.6v11.1h4.2v-11.1
		l9.8,5.6v-4.9l-9.8-5.6v-4.9l9.8,5.6V662l-9.8-5.7v-9.1l5.3,3v4.5l4.2,2.5v-4.5l4,2.3v-4.9l-4-2.3v-6.3l8.3,4.7v11.4l4.2,2.5v-11.4
		l4.2,2.5v11.4l4.3,2.5l-0.1-11.3l9.8,5.6l2.1-3.7l-9.7-5.7l9.8-5.6L994.1,641.7L994.1,641.7z M956,622.4L956,622.4l5.5-3.1v6
		l-5.5,3.2V622.4z M946.4,619L946.4,619l5.2,3.1v6.3l-5.2-3.1V619z M944.3,635.2L944.3,635.2l-5.6-3.1l5.3-3.1l5.5,3.2L944.3,635.2z
		 M946.2,639.1L946.2,639.1l5.5-3.2v6.1l-5.5,3.1V639.1z M955.9,642.2v-6.3l5.3,3.1v6.3L955.9,642.2z M958.1,632.2L958.1,632.2
		l5.2-3l5.6,3.1l-5.3,3.1L958.1,632.2z"/>
</g>
<g id="Слой_x0020_3">
	<path class="st3" d="M83.6,520.1c1.5,5.3,7.2,5.7,10.5,9c11.8,9.6,23.4,23.5,38.9,21.8c-12.8-6.5-23.5-17.3-35-26.3
		C93.6,521.6,88.5,518,83.6,520.1z M57.8,535.4c-9.1,7.5-19.9,10.8-30.1,15.4c9,3.5,18.6-1.1,26.8-5.8c9.7-5.2,20.7-13.8,21.2-28.1
		C69.9,523.2,64.3,530,57.8,535.4z M48.1,526.2c-7.1,7-16.4,9-24.5,13.5c21.4-0.3,41.2-17.8,50.8-40.5
		C62.7,503.5,57.8,518.4,48.1,526.2z M83,495.3c14.7,7.1,23.3,24.3,36,34.9c5.4,4.7,11.6,8.6,18.3,8.7c-12-5.7-21.5-16.7-29.8-28.4
		c-6.3-8.1-13-17.8-22.7-19.1C82.8,490.6,80.8,493.8,83,495.3L83,495.3z M81.7,474.7c5.5,4,11.3,7.6,16.5,12.3
		c7.7,6.8,15.1,16.3,25.4,16c-7.9-3.2-14.6-9.3-20.4-16.4C97.5,479.6,89.8,475.4,81.7,474.7z M66.8,485.2
		c-9.6,11.1-22.1,16.9-33.7,23.9c3.5,0.9,7.1-0.2,10.5-1.1c10.7-3.6,21-10.4,27.9-21.1c3.8-6,6.5-13.5,6.4-21.2
		C75,472.8,71.5,479.7,66.8,485.2z M42.4,478.4c-2,1.1-4.3,1.7-6.2,3.3c9.8,0.9,19.5-3,28-8.7c5.7-4.1,11.1-9.9,13.3-17.7
		C66.7,464.6,55.1,473,42.4,478.4z M81.9,446.6c0.1,7.7,4,14.4,8.7,19.2c8.7,8.6,19.9,13.3,31.1,14.5
		C106.2,473.8,91.1,463.6,81.9,446.6z M46.4,458c13.1-1.9,27.5-10.3,32.1-26.3C69,442.4,57.6,450.2,46.4,458z M81.1,424.2
		c0.5,18.7,16.4,31,30.4,32.6C98.7,450.7,86,440.5,81.1,424.2L81.1,424.2z M82.1,411.7c1.7,13.1,12.9,21.8,23.2,22.9
		C97,427.9,87.3,422.6,82.1,411.7z M57,434.6c10-1.6,21-10.5,21.6-23.7C73.5,421.4,64.5,427.2,57,434.6z M74.6,402.7
		c-3.8,5.8-9.6,8.4-14.1,13.1c8.1-0.5,17.2-7.4,17.7-18C76.6,398.9,75.9,401.2,74.6,402.7z M81.4,397.3
		c1.3,10.4,10.1,17.1,18.3,17.6c-4-3.7-8.9-6-12.6-10.3C85,402.4,83.5,399.5,81.4,397.3z M82.2,385.9c1.2,7.2,7.1,12.7,13,13.1
		C90.4,395.2,85.7,391.3,82.2,385.9z M65.8,399.1c6.1-0.7,12.1-6.4,12.4-14.2C74.9,390.7,70.2,394.7,65.8,399.1z M72.4,380.8
		c3.8-5.2,5.3-12.1,7.8-18.2c2.1,5.4,3.7,11,6.5,15.9c1.7,3,4.6,4.5,6.3,7.3c-0.3,2.8-3.7,1.9-5.3,1.5c3.7,6.1,10.7,7.6,14.1,14
		c0.9,4.8-4.7,4.5-7.3,4.8c4.3,4.5,10.9,5.9,13.9,12c-1.4,5.4-7.6,3.9-11.3,4.4c5,3.8,10.7,6,15.7,9.9c1.3,1.1,3.3,2.9,2.4,5.1
		c-1.7,2.7-4.8,2.4-7.3,2.8c0.8,0.9,1.9,1.6,2.2,3c-3.9,0.7-7.7-1.1-11.5-1.9c3.8,4.4,8.8,6.8,13.4,9.4c2.9,1.7,6.8,2.6,8.3,6.6
		c1.3,1.7,3.8,1.6,4.7,3.9c-0.6,2.4-3.2,2-4.8,2.6c0.6,0.8,1.2,1.7,1.7,2.6c-3.9,2.7-9,1-13.3,0.5c6.6,6.3,15.4,7.3,22.8,11.8
		c1.9,1,3.6,4.2,1.8,6.3c-2.2,1.9-5.1,0.9-7.7,1.3c0.4,0.7,0.9,1.5,1.3,2.2c-2.8,0.8-5.5-0.5-8.2-1.3c1.5,2.9,4.4,3.7,6.5,5.7
		c-2.3,2-5.5,0.2-8.1,0c6.8,7.5,16.5,8,24.7,11.8c0.8,0.3,1.4,1.5,0.6,2.3c-4,5-10.2,4-15.4,4.1c3.7,6.1,11,5.7,16.4,8.5
		c-7.4,4.9-17.1,3-24.2-1.8c1.1,4,4.3,6.3,7.2,8.2c6.3,3.9,13.2,6.4,20.1,8.4c1.2,0.3,2.7,1.8,1.6,3.3c-2.5,3.5-6.4,4.9-9.8,6.6
		c4,2.5,8.4,3.9,12.5,6.1c1.7,0.8,0.7,3.1-0.6,3.7c-7,4.3-15,5.1-22.7,5c-10.9-0.1-22.2-2.6-31.5-9.9c3.3,8.4,10.8,12,17,16.3
		c-9.1,3.3-19.4-0.9-25.8-9.3c0.4,9.1-0.7,18.5,1.6,27.3c0.5,1.9,1.3,3.8,2.4,5.5H69.7c5.3-9.4,3.2-22,3.6-32.8
		c-6.1,8.8-16.5,12.5-25.6,9.4c6.2-4.1,13.9-7.4,17-15.8c-7.4,6.2-16.5,8.4-25.3,9.3c-9.5,0.7-19.6,0.5-28.4-4.4
		c-1.3-0.6-3.2-2.7-1.7-4.2c3.5-2.1,7.6-2.1,10.9-4.6c0.7-0.4,1.3-1.8,0.4-2.3c-2.7-1.9-5.9-2.4-8.4-4.7c-1-0.8-0.7-2.7,0.4-3.2
		c12-4.8,23.9-11.1,34.4-19.6c-7.8,3.1-15.8,5.4-24,5.7c-2.4-0.1-5.2,0.2-7.1-1.9c3.9-3.3,10.3-2.9,12.6-8.4c-3-0.9-6.6,0.1-9.1-2.7
		c-1.2-1.5,0.8-2.6,1.9-2.8c9.4-2.8,18.9-5.9,27-12.5c0.9-0.8,2-1.6,2.2-3.1c-4,1.3-8.6,5.3-12.6,2.9c1.5-1.2,3.2-2.1,4.6-3.5
		c-3.3,0.3-6.6,1.3-9.8,0.1c-1.4-0.5-0.9-2.3-0.6-3.5c-2.6,0.8-7.6-1.6-4.7-5.2c8.4-5.1,18.7-6.4,25.8-14.4c-4.4,0.9-9.5,2.6-13.6,0
		c0.7-0.8,1.4-1.5,2.2-2.1c-2.1-0.8-5.8,0.3-6.7-2.6c1.8-2.5,4.9-3.1,7.3-4.5c-0.2-1.8-0.1-4,1.5-4.5c5.8-2.7,12.3-5.4,16.3-11.5
		c-2.7,0.9-5.3,2.9-8.2,2.3c0.1-1.8,1.6-2.7,2.4-4c-2.7-0.2-5.9,0.6-8.1-1.7c-1.5-1.5-0.1-3.8,1.2-4.8c5.1-4.2,11.1-6.7,16.3-10.8
		c-3.6,0.1-7.5,0.4-10.8-1.5c-1.6-0.8-1.8-3.5-0.5-4.8c4-4.3,9.2-6.5,13.5-10.2c-2.4-0.1-7.4,0.8-7.4-3.3c3.8-6.5,11-8.8,14.5-15.6
		c-1.7,0.2-4.4,1.5-5.4-0.8C68.4,383.7,71,382.9,72.4,380.8L72.4,380.8z"/>
	<path class="st1" d="M139.6,463.2c1.5,5.3,7.2,5.7,10.5,9c11.8,9.6,23.4,23.5,38.8,21.8c-12.8-6.5-23.5-17.3-35-26.3
		C149.7,464.7,144.6,461.1,139.6,463.2L139.6,463.2z M113.8,478.5c-9.1,7.5-19.9,10.8-30.1,15.4c9,3.5,18.6-1.1,26.8-5.8
		c9.7-5.2,20.7-13.8,21.2-28C125.9,466.3,120.4,473.1,113.8,478.5z M104.2,469.3c-7.1,7-16.4,9-24.5,13.5
		c21.4-0.3,41.2-17.8,50.8-40.5C118.8,446.6,113.8,461.5,104.2,469.3z M139.1,438.4c14.6,7.1,23.3,24.3,36,34.9
		c5.4,4.7,11.6,8.6,18.3,8.7c-12-5.6-21.5-16.7-29.8-28.4c-6.3-8.1-13-17.8-22.7-19.1C138.9,433.8,136.9,436.9,139.1,438.4
		L139.1,438.4z M137.7,417.8c5.6,4,11.3,7.7,16.5,12.4c7.7,6.8,15.1,16.3,25.4,16c-7.9-3.2-14.6-9.3-20.4-16.4
		C153.6,422.7,145.8,418.6,137.7,417.8z M122.8,428.3c-9.6,11.1-22.1,16.9-33.7,24c3.5,0.9,7.1-0.2,10.5-1.1
		c10.7-3.6,21-10.4,27.9-21.1c3.9-6,6.6-13.5,6.4-21.2C131,415.9,127.5,422.8,122.8,428.3L122.8,428.3z M98.5,421.5
		c-2.1,1.1-4.4,1.6-6.2,3.3c9.8,0.9,19.5-3,28-8.7c5.7-4.1,11.1-9.9,13.4-17.7C122.7,407.7,111.1,416.1,98.5,421.5z M137.9,389.7
		c0.1,7.7,4,14.4,8.7,19.2c8.7,8.6,19.9,13.3,31.1,14.5C162.2,416.9,147.1,406.7,137.9,389.7z M102.5,401.1
		c13.1-1.9,27.5-10.3,32.1-26.3C125,385.5,113.7,393.3,102.5,401.1z M137.1,367.3c0.5,18.7,16.4,31,30.4,32.6
		C154.7,393.9,142.1,383.6,137.1,367.3z M138.2,354.8c1.7,13.1,12.9,21.8,23.2,22.9C153.1,371.1,143.3,365.8,138.2,354.8z
		 M113,377.8c10-1.6,21-10.5,21.6-23.7C129.5,364.5,120.5,370.3,113,377.8z M130.6,345.8c-3.8,5.8-9.6,8.4-14.1,13.1
		c8.1-0.5,17.2-7.4,17.7-18C132.6,342,132,344.3,130.6,345.8z M137.5,340.5c1.3,10.4,10.1,17.1,18.3,17.6c-4-3.7-8.9-6-12.6-10.3
		C141.1,345.5,139.6,342.6,137.5,340.5z M138.2,329c1.2,7.2,7.1,12.7,13,13.1C146.5,338.3,141.8,334.4,138.2,329z M121.9,342.2
		c6.1-0.7,12.1-6.4,12.4-14.1C131,333.8,126.3,337.9,121.9,342.2z M128.4,323.9c3.8-5.2,5.4-12.1,7.8-18.2c2.1,5.4,3.7,11,6.5,15.9
		c1.6,3,4.6,4.5,6.3,7.3c-0.3,2.8-3.7,1.9-5.3,1.5c3.7,6.1,10.7,7.6,14.1,14c0.9,4.8-4.7,4.5-7.3,4.7c4.3,4.5,10.9,5.9,13.9,12
		c-1.4,5.4-7.6,3.9-11.3,4.4c5,3.8,10.7,6,15.7,9.9c1.3,1.1,3.3,2.9,2.4,5.1c-1.7,2.7-4.8,2.4-7.3,2.8c0.8,0.9,1.9,1.6,2.2,3
		c-3.9,0.7-7.7-1.1-11.5-1.9c3.8,4.4,8.7,6.8,13.4,9.4c2.9,1.7,6.8,2.6,8.3,6.6c1.3,1.7,3.8,1.6,4.7,3.9c-0.6,2.4-3.2,2-4.8,2.6
		c0.6,0.8,1.2,1.7,1.7,2.6c-3.9,2.7-9,1-13.3,0.5c6.6,6.3,15.4,7.3,22.7,11.8c1.9,1,3.6,4.2,1.8,6.3c-2.2,1.9-5.1,0.9-7.6,1.3
		c0.4,0.7,0.9,1.5,1.3,2.2c-2.8,0.8-5.5-0.5-8.2-1.3c1.5,2.9,4.4,3.7,6.5,5.7c-2.3,2-5.5,0.2-8.1,0c6.8,7.5,16.5,8,24.7,11.8
		c0.8,0.3,1.4,1.5,0.6,2.3c-4,5-10.2,4-15.4,4.1c3.7,6.1,11,5.8,16.4,8.5c-7.4,4.9-17.1,3-24.2-1.8c1.1,4,4.3,6.3,7.2,8.2
		c6.3,3.9,13.2,6.4,20.1,8.4c1.2,0.3,2.7,1.8,1.6,3.3c-2.5,3.5-6.4,4.9-9.8,6.6c4,2.5,8.4,3.9,12.5,6.1c1.7,0.9,0.7,3.1-0.6,3.7
		c-6.9,4.3-15,5.1-22.7,5c-10.9-0.1-22.2-2.6-31.5-9.9c3.3,8.4,10.8,12,17,16.3c-9.1,3.3-19.4-0.9-25.8-9.3
		c0.4,9.1-0.6,18.5,1.6,27.3c0.5,1.9,1.3,3.8,2.4,5.5h-21.6c5.3-9.4,3.2-22,3.6-32.8c-6.1,8.8-16.5,12.5-25.6,9.4
		c6.2-4.1,13.9-7.4,16.9-15.9c-7.4,6.2-16.5,8.4-25.3,9.3c-9.5,0.7-19.5,0.5-28.4-4.4c-1.3-0.6-3.2-2.7-1.7-4.2
		c3.5-2.1,7.6-2.1,10.9-4.6c0.7-0.4,1.3-1.8,0.4-2.3c-2.7-1.9-5.9-2.4-8.4-4.6c-0.9-0.8-0.7-2.7,0.4-3.2c12-4.8,23.9-11.1,34.5-19.6
		c-7.8,3.1-15.8,5.4-24,5.7c-2.4-0.1-5.2,0.2-7.1-1.9c3.9-3.3,10.3-2.9,12.5-8.4c-3-0.9-6.6,0.1-9.1-2.7c-1.2-1.5,0.8-2.6,1.8-2.8
		c9.4-2.8,19-5.9,27-12.5c0.9-0.8,2.1-1.6,2.2-3.1c-4,1.3-8.6,5.3-12.6,2.9c1.5-1.2,3.2-2.1,4.6-3.5c-3.3,0.3-6.6,1.3-9.8,0.1
		c-1.4-0.5-0.9-2.3-0.7-3.5c-2.6,0.8-7.6-1.6-4.7-5.2c8.4-5.1,18.7-6.4,25.8-14.4c-4.4,0.9-9.5,2.6-13.6,0c0.7-0.8,1.4-1.5,2.2-2.1
		c-2.1-0.8-5.8,0.3-6.7-2.6c1.8-2.5,4.9-3.1,7.3-4.5c-0.2-1.8-0.1-4,1.6-4.5c5.8-2.7,12.3-5.4,16.3-11.5c-2.7,0.9-5.3,2.9-8.2,2.3
		c0.1-1.8,1.6-2.7,2.4-4c-2.7-0.2-5.9,0.6-8.1-1.7c-1.5-1.5-0.1-3.8,1.2-4.8c5.1-4.2,11.1-6.7,16.3-10.8c-3.6,0.1-7.5,0.4-10.8-1.5
		c-1.6-0.8-1.8-3.5-0.5-4.8c4-4.3,9.2-6.5,13.5-10.3c-2.4-0.1-7.4,0.8-7.4-3.3c3.8-6.5,11-8.8,14.5-15.6c-1.7,0.2-4.4,1.5-5.4-0.8
		C124.5,326.8,127,326.1,128.4,323.9L128.4,323.9z"/>
	<path class="st1" d="M237.7,432.2c1.5,5.3,7.2,5.7,10.5,9c11.8,9.6,23.4,23.5,38.9,21.8c-12.8-6.5-23.5-17.3-35-26.3
		C247.8,433.7,242.7,430.1,237.7,432.2L237.7,432.2z M212,447.5c-9.1,7.5-19.9,10.8-30.1,15.4c9,3.5,18.6-1.1,26.8-5.8
		c9.7-5.2,20.7-13.8,21.2-28C224,435.3,218.5,442.1,212,447.5z M202.3,438.3c-7.1,7-16.4,9-24.5,13.5c21.4-0.3,41.2-17.8,50.8-40.5
		C216.9,415.6,211.9,430.5,202.3,438.3z M237.2,407.4c14.6,7.1,23.3,24.3,36,34.9c5.4,4.7,11.6,8.6,18.3,8.7
		c-12-5.6-21.5-16.7-29.8-28.4c-6.3-8.1-13-17.8-22.7-19.1C237,402.7,234.9,405.9,237.2,407.4L237.2,407.4z M235.8,386.8
		c5.6,4,11.3,7.6,16.5,12.3c7.7,6.8,15.1,16.3,25.5,16c-7.9-3.2-14.6-9.3-20.4-16.4C251.7,391.7,243.9,387.6,235.8,386.8z
		 M220.9,397.3c-9.6,11.1-22.1,16.9-33.7,23.9c3.5,0.9,7.1-0.2,10.5-1.1c10.7-3.6,21-10.4,27.9-21.1c3.9-6,6.6-13.5,6.4-21.2
		C229.1,384.9,225.7,391.8,220.9,397.3L220.9,397.3z M196.6,390.5c-2.1,1.1-4.4,1.7-6.2,3.3c9.8,0.9,19.5-3,28-8.7
		c5.7-4.1,11.1-9.9,13.3-17.7C220.8,376.7,209.3,385.1,196.6,390.5L196.6,390.5z M236,358.7c0.1,7.7,4,14.4,8.7,19.2
		c8.8,8.6,19.9,13.3,31,14.5C260.3,385.9,245.2,375.7,236,358.7z M200.6,370.1c13.1-1.9,27.5-10.3,32.1-26.3
		C223.2,354.5,211.8,362.3,200.6,370.1z M235.3,336.3c0.5,18.7,16.4,31,30.4,32.6C252.8,362.8,240.2,352.6,235.3,336.3z
		 M236.3,323.8c1.7,13.1,12.9,21.8,23.2,22.9C251.2,340,241.4,334.7,236.3,323.8L236.3,323.8z M211.1,346.7
		c10-1.6,21-10.5,21.6-23.7C227.6,333.5,218.6,339.3,211.1,346.7L211.1,346.7z M228.7,314.8c-3.8,5.8-9.6,8.4-14.1,13.1
		c8.1-0.5,17.2-7.4,17.7-18C230.7,311,230.1,313.3,228.7,314.8z M235.6,309.4c1.3,10.4,10.1,17.1,18.3,17.6c-4-3.7-8.9-6-12.6-10.3
		C239.2,314.5,237.7,311.6,235.6,309.4z M236.3,298c1.2,7.2,7.1,12.7,13,13.1C244.6,307.3,239.9,303.4,236.3,298z M220,311.2
		c6.1-0.7,12.1-6.4,12.4-14.2C229.1,302.8,224.4,306.8,220,311.2z M226.5,292.9c3.8-5.2,5.4-12.1,7.8-18.2c2.1,5.4,3.7,11,6.5,15.9
		c1.6,3,4.6,4.5,6.3,7.3c-0.3,2.8-3.7,1.9-5.3,1.5c3.7,6.1,10.7,7.6,14.1,14c0.9,4.8-4.7,4.5-7.3,4.7c4.3,4.5,10.9,5.9,13.9,12
		c-1.4,5.4-7.6,3.9-11.3,4.4c5,3.8,10.7,6,15.7,9.9c1.3,1.1,3.3,2.9,2.4,5.1c-1.7,2.7-4.8,2.4-7.3,2.8c0.8,0.9,1.9,1.6,2.2,3
		c-3.9,0.7-7.7-1.1-11.5-1.9c3.8,4.4,8.8,6.8,13.4,9.4c2.9,1.7,6.8,2.6,8.3,6.6c1.3,1.7,3.9,1.6,4.8,3.9c-0.6,2.4-3.2,2-4.8,2.6
		c0.6,0.8,1.2,1.7,1.7,2.6c-3.9,2.7-9,1-13.3,0.5c6.6,6.3,15.4,7.3,22.7,11.8c1.9,1,3.6,4.2,1.8,6.3c-2.2,1.9-5.1,0.9-7.6,1.3
		c0.4,0.7,0.9,1.5,1.3,2.2c-2.8,0.8-5.5-0.5-8.2-1.3c1.5,2.9,4.4,3.7,6.5,5.7c-2.3,2-5.5,0.2-8.1,0c6.8,7.5,16.5,8,24.7,11.8
		c0.8,0.3,1.4,1.5,0.6,2.3c-4,5-10.2,4-15.4,4.1c3.7,6.1,11,5.8,16.4,8.5c-7.4,4.9-17.1,3-24.2-1.8c1.1,4,4.3,6.3,7.1,8.2
		c6.4,3.9,13.2,6.4,20.1,8.4c1.2,0.3,2.7,1.8,1.6,3.3c-2.5,3.5-6.4,4.9-9.8,6.6c4,2.5,8.4,3.9,12.5,6.1c1.7,0.9,0.7,3.1-0.6,3.7
		c-7,4.3-15,5.1-22.7,5c-10.9-0.1-22.2-2.6-31.5-9.9c3.3,8.4,10.7,12,17,16.3c-9.1,3.3-19.4-0.9-25.8-9.3c0.4,9.1-0.6,18.5,1.6,27.3
		c0.5,1.9,1.3,3.8,2.4,5.5h-21.6c5.3-9.4,3.2-22,3.6-32.8c-6.1,8.8-16.5,12.5-25.6,9.4c6.2-4.1,13.9-7.4,16.9-15.9
		c-7.4,6.2-16.5,8.4-25.3,9.3c-9.5,0.7-19.6,0.5-28.4-4.4c-1.3-0.6-3.2-2.7-1.7-4.2c3.5-2.1,7.6-2.1,10.9-4.6
		c0.7-0.4,1.3-1.8,0.4-2.3c-2.7-1.9-5.9-2.4-8.4-4.6c-1-0.8-0.7-2.7,0.4-3.2c12-4.8,23.9-11.1,34.4-19.6c-7.8,3.1-15.8,5.4-24,5.7
		c-2.4-0.1-5.2,0.2-7.1-1.9c3.9-3.3,10.3-2.9,12.5-8.4c-3-0.9-6.6,0.1-9.1-2.7c-1.2-1.5,0.8-2.6,1.9-2.8c9.4-2.8,18.9-5.9,27-12.5
		c0.9-0.8,2.1-1.6,2.2-3.1c-4,1.3-8.6,5.3-12.6,2.9c1.5-1.2,3.2-2.1,4.6-3.5c-3.3,0.3-6.6,1.3-9.8,0.1c-1.4-0.5-0.9-2.3-0.7-3.5
		c-2.6,0.8-7.6-1.6-4.7-5.2c8.4-5.1,18.7-6.4,25.8-14.4c-4.4,0.9-9.5,2.6-13.6,0c0.6-0.8,1.4-1.5,2.2-2.1c-2.1-0.8-5.8,0.3-6.7-2.6
		c1.8-2.5,4.9-3.1,7.3-4.5c-0.2-1.8-0.1-4,1.6-4.5c5.8-2.7,12.3-5.4,16.3-11.5c-2.7,0.9-5.3,2.9-8.2,2.3c0.1-1.8,1.6-2.7,2.4-4
		c-2.7-0.2-5.9,0.6-8.1-1.7c-1.5-1.5-0.1-3.8,1.2-4.8c5.1-4.2,11.1-6.7,16.3-10.8c-3.6,0.1-7.5,0.4-10.8-1.5
		c-1.6-0.8-1.9-3.5-0.5-4.8c4-4.3,9.2-6.5,13.5-10.2c-2.4-0.1-7.4,0.8-7.4-3.3c3.8-6.5,11-8.8,14.6-15.6c-1.7,0.2-4.4,1.5-5.4-0.8
		C222.6,295.8,225.1,295,226.5,292.9L226.5,292.9z"/>
	<path class="st3" d="M400.4,430.1c2,7.3,9.9,7.8,14.4,12.4c16.2,13.1,32.1,32.3,53.4,29.9c-17.5-8.9-32.2-23.8-48.1-36.1
		C414.2,432.2,407.2,427.3,400.4,430.1z M365,451.1c-12.5,10.3-27.3,14.9-41.3,21.1c12.4,4.8,25.5-1.5,36.8-8
		c13.4-7.2,28.4-18.9,29.1-38.5C381.6,434.4,373.9,443.8,365,451.1L365,451.1z M351.7,438.6c-9.8,9.6-22.5,12.3-33.6,18.5
		c29.4-0.4,56.6-24.4,69.7-55.6C371.8,407.4,365,427.8,351.7,438.6z M399.7,396.1c20.1,9.8,32,33.4,49.4,47.9
		c7.4,6.4,15.9,11.8,25.2,12c-16.4-7.8-29.5-22.9-40.9-39c-8.6-11.1-17.9-24.4-31.2-26.3C399.4,389.7,396.6,394.1,399.7,396.1
		L399.7,396.1z M397.8,367.8c7.6,5.5,15.5,10.5,22.7,17c10.6,9.4,20.7,22.4,35,21.9c-10.8-4.4-20.1-12.8-28-22.5
		C419.5,374.5,408.9,368.9,397.8,367.8z M377.3,382.3c-13.1,15.2-30.3,23.2-46.3,32.9c4.8,1.3,9.7-0.3,14.4-1.6
		c14.6-5,28.8-14.3,38.3-29c5.3-8.3,9-18.5,8.8-29.1C388.6,365.2,383.8,374.6,377.3,382.3z M343.9,372.8c-2.8,1.5-6,2.3-8.5,4.5
		c13.4,1.3,26.8-4.1,38.5-11.9c7.9-5.6,15.2-13.5,18.3-24.3C377.2,354,361.3,365.5,343.9,372.8z M398.1,329.3
		c0.1,10.5,5.4,19.8,11.9,26.3c12,11.8,27.3,18.2,42.6,19.9C431.4,366.6,410.7,352.5,398.1,329.3z M349.4,344.9
		c18-2.6,37.7-14.1,44.1-36.1C380.4,323.5,364.8,334.2,349.4,344.9z M397,298.5c0.7,25.6,22.5,42.6,41.8,44.8
		C421.1,334.9,403.8,320.9,397,298.5z M398.4,281.3c2.4,18,17.7,29.9,31.8,31.4C418.8,303.6,405.5,296.3,398.4,281.3z M363.9,312.8
		c13.7-2.2,28.9-14.4,29.6-32.5C386.5,294.6,374.2,302.6,363.9,312.8z M388,268.9c-5.2,7.9-13.2,11.6-19.3,18
		c11.1-0.6,23.6-10.1,24.3-24.7C390.8,263.7,389.9,266.9,388,268.9L388,268.9z M397.4,261.6c1.7,14.2,13.9,23.5,25.1,24.1
		c-5.5-5.1-12.3-8.2-17.2-14.2C402.4,268.5,400.3,264.5,397.4,261.6L397.4,261.6z M398.4,245.9c1.6,9.9,9.7,17.5,17.8,18
		C409.8,258.6,403.3,253.3,398.4,245.9L398.4,245.9z M376,264.1c8.4-0.9,16.6-8.8,17-19.4C388.5,252.5,382,258,376,264.1z
		 M385,238.9c5.2-7.1,7.4-16.6,10.8-25c2.8,7.4,5.1,15.2,9,21.8c2.3,4.1,6.3,6.1,8.6,10c-0.4,3.8-5.1,2.6-7.3,2
		c5,8.4,14.7,10.5,19.4,19.2c1.2,6.5-6.5,6.2-10,6.5c5.9,6.1,15,8.2,19.1,16.5c-2,7.4-10.5,5.4-15.5,6.1c6.9,5.2,14.7,8.3,21.6,13.6
		c1.8,1.6,4.5,4,3.3,7c-2.3,3.7-6.6,3.3-10,3.9c1.1,1.3,2.6,2.2,3,4.1c-5.4,1-10.6-1.5-15.8-2.6c5.2,6,12,9.3,18.4,12.9
		c4,2.4,9.3,3.6,11.4,9c1.8,2.4,5.3,2.3,6.5,5.4c-0.8,3.3-4.4,2.8-6.6,3.6c0.8,1.1,1.6,2.3,2.3,3.5c-5.3,3.7-12.3,1.4-18.2,0.6
		c9.1,8.6,21.1,10,31.2,16.3c2.6,1.3,5,5.8,2.5,8.7c-3,2.6-7,1.2-10.5,1.8c0.6,1,1.2,2,1.8,3c-3.8,1.1-7.6-0.7-11.3-1.7
		c2,3.9,6.1,5.1,9,7.8c-3.2,2.7-7.5,0.3-11.1,0c9.4,10.2,22.6,11,33.9,16.2c1.1,0.5,1.9,2.1,0.8,3.2c-5.5,6.8-14,5.5-21.2,5.7
		c5.1,8.4,15.1,7.9,22.5,11.7c-10.1,6.7-23.5,4.2-33.3-2.5c1.5,5.5,5.8,8.7,9.8,11.3c8.7,5.4,18.1,8.7,27.6,11.6
		c1.6,0.4,3.7,2.5,2.2,4.6c-3.5,4.8-8.8,6.7-13.5,9.1c5.5,3.5,11.5,5.4,17.2,8.4c2.4,1.2,1,4.3-0.8,5.1c-9.5,5.9-20.5,7-31.1,6.9
		c-15-0.1-30.5-3.6-43.2-13.6c4.5,11.5,14.8,16.5,23.4,22.3c-12.5,4.6-26.6-1.3-35.4-12.7c0.5,12.5-0.9,25.4,2.2,37.5
		c0.7,2.6,1.8,5.2,3.3,7.5h-29.7c7.2-12.9,4.3-30.2,4.9-45c-8.3,12.1-22.7,17.2-35.1,12.8c8.6-5.6,19.1-10.1,23.3-21.8
		c-10.2,8.5-22.6,11.6-34.7,12.8c-13.1,0.9-26.9,0.6-39-6.1c-1.8-0.8-4.4-3.7-2.4-5.8c4.8-2.8,10.4-2.9,15-6.3
		c0.9-0.6,1.8-2.4,0.5-3.2c-3.6-2.6-8.1-3.3-11.5-6.4c-1.3-1.1-0.9-3.7,0.5-4.4c16.5-6.6,32.8-15.2,47.3-26.9
		c-10.7,4.2-21.7,7.4-33,7.8c-3.3-0.1-7.2,0.2-9.8-2.6c5.3-4.5,14.1-4,17.2-11.5c-4.1-1.3-9.1,0.1-12.5-3.7c-1.6-2,1.1-3.6,2.5-3.9
		c12.9-3.8,26-8.1,37.1-17.2c1.2-1.1,2.8-2.2,3-4.3c-5.5,1.8-11.8,7.2-17.4,4c2.1-1.7,4.4-2.8,6.3-4.9c-4.5,0.5-9.1,1.8-13.5,0.1
		c-1.9-0.7-1.2-3.2-0.9-4.8c-3.5,1.1-10.4-2.2-6.4-7.2c11.5-7,25.7-8.8,35.5-19.7c-6,1.2-13,3.6-18.7,0c0.9-1.1,2-2.1,3.1-2.9
		c-2.9-1.1-7.9,0.5-9.1-3.6c2.5-3.4,6.7-4.3,10-6.2c-0.3-2.4-0.2-5.4,2.1-6.2c8-3.7,16.9-7.4,22.3-15.9c-3.7,1.3-7.3,4-11.3,3.2
		c0.2-2.5,2.2-3.7,3.3-5.4c-3.7-0.2-8.1,0.8-11.2-2.3c-2-2.1-0.1-5.3,1.6-6.6c7-5.8,15.2-9.1,22.3-14.9c-5,0.1-10.3,0.6-14.9-2.1
		c-2.2-1.1-2.5-4.7-0.7-6.5c5.4-6,12.6-8.9,18.5-14.1c-3.3-0.1-10.1,1.1-10.2-4.5c5.2-8.9,15.1-12,20-21.5c-2.3,0.3-6.1,2.1-7.4-1.1
		C379.6,242.8,383.1,241.8,385,238.9L385,238.9z"/>
	<path class="st3" d="M602.4,450.9c2,7.3,9.9,7.8,14.4,12.4c16.2,13.1,32.2,32.3,53.3,29.9c-17.5-8.9-32.2-23.8-48.1-36.1
		C616.2,453,609.2,448.1,602.4,450.9L602.4,450.9z M567,471.9c-12.5,10.3-27.3,14.9-41.3,21.1c12.4,4.8,25.5-1.5,36.8-8
		c13.3-7.1,28.4-18.9,29.1-38.5C583.6,455.2,575.9,464.6,567,471.9L567,471.9z M553.7,459.3c-9.8,9.6-22.5,12.3-33.6,18.5
		c29.4-0.4,56.6-24.4,69.7-55.6C573.8,428.1,566.9,448.6,553.7,459.3z M601.7,416.9c20.1,9.8,32,33.4,49.4,47.9
		c7.3,6.4,15.9,11.8,25.2,12c-16.4-7.8-29.5-22.9-40.8-39c-8.6-11.2-17.9-24.4-31.2-26.3C601.4,410.5,598.6,414.9,601.7,416.9
		L601.7,416.9z M599.8,388.6c7.6,5.5,15.5,10.5,22.7,17c10.6,9.4,20.7,22.4,35,21.9c-10.8-4.4-20.1-12.8-28-22.5
		C621.5,395.3,610.9,389.6,599.8,388.6z M579.3,403c-13.1,15.2-30.3,23.2-46.3,32.9c4.8,1.3,9.7-0.3,14.4-1.6
		c14.6-5,28.8-14.3,38.3-29c5.3-8.3,9-18.5,8.8-29.1C590.6,386,585.8,395.4,579.3,403L579.3,403z M545.9,393.6
		c-2.8,1.5-6,2.3-8.5,4.5c13.4,1.3,26.8-4.1,38.5-11.9c7.9-5.6,15.2-13.5,18.3-24.3C579.2,374.8,563.3,386.3,545.9,393.6
		L545.9,393.6z M600.1,350.1c0.2,10.5,5.4,19.8,11.9,26.4c12,11.8,27.3,18.2,42.6,19.9C633.4,387.4,612.7,373.3,600.1,350.1
		L600.1,350.1z M551.4,365.7c18-2.6,37.7-14.1,44.1-36.1C582.4,344.3,566.8,355,551.4,365.7L551.4,365.7z M599,319.2
		c0.7,25.6,22.5,42.6,41.8,44.8C623.1,355.7,605.8,341.7,599,319.2z M600.4,302c2.3,18,17.7,29.9,31.8,31.4
		C620.8,324.4,607.5,317.1,600.4,302z M565.9,333.6c13.7-2.2,28.8-14.4,29.6-32.5C588.5,315.4,576.2,323.4,565.9,333.6z M590,289.7
		c-5.2,7.9-13.2,11.6-19.3,18c11.1-0.6,23.6-10.1,24.3-24.7C592.8,284.5,591.9,287.7,590,289.7z M599.4,282.4
		c1.7,14.2,13.9,23.5,25.1,24.1c-5.5-5-12.3-8.2-17.2-14.2C604.4,289.3,602.3,285.3,599.4,282.4z M600.4,266.6
		c1.6,9.9,9.7,17.4,17.8,18C611.8,279.4,605.3,274.1,600.4,266.6z M578,284.8c8.4-0.9,16.6-8.8,17-19.4
		C590.5,273.3,584,278.8,578,284.8z M587,259.7c5.2-7.1,7.3-16.6,10.8-25c2.8,7.4,5.1,15.2,9,21.8c2.3,4.1,6.3,6.1,8.6,10
		c-0.4,3.8-5.1,2.6-7.3,2c5,8.4,14.7,10.5,19.3,19.2c1.2,6.5-6.5,6.2-10,6.5c5.9,6.1,15,8.1,19.1,16.5c-2,7.4-10.5,5.4-15.5,6.1
		c6.9,5.2,14.7,8.3,21.6,13.6c1.8,1.6,4.5,4,3.3,7c-2.3,3.7-6.6,3.3-10,3.9c1.1,1.3,2.6,2.2,3,4.1c-5.4,1-10.6-1.5-15.8-2.6
		c5.2,6,12,9.3,18.4,12.9c4,2.4,9.3,3.6,11.3,9c1.8,2.3,5.3,2.3,6.5,5.4c-0.8,3.3-4.4,2.8-6.6,3.6c0.8,1.1,1.6,2.3,2.3,3.5
		c-5.3,3.7-12.3,1.4-18.2,0.6c9.1,8.6,21.2,10,31.2,16.3c2.6,1.3,5,5.8,2.5,8.7c-3,2.6-7,1.2-10.5,1.8c0.6,1,1.2,2,1.8,3
		c-3.8,1.2-7.6-0.6-11.3-1.7c2,3.9,6.1,5.1,9,7.9c-3.2,2.7-7.5,0.3-11.1-0.1c9.3,10.2,22.6,11,33.9,16.2c1.1,0.5,2,2.1,0.8,3.2
		c-5.5,6.8-14,5.5-21.2,5.7c5.1,8.4,15.2,7.9,22.5,11.7c-10.1,6.7-23.5,4.2-33.3-2.5c1.5,5.5,5.8,8.7,9.8,11.3
		c8.7,5.4,18.1,8.7,27.6,11.6c1.7,0.4,3.7,2.5,2.2,4.6c-3.5,4.8-8.8,6.7-13.5,9.1c5.5,3.5,11.5,5.4,17.2,8.4c2.4,1.2,1,4.3-0.8,5.1
		c-9.5,5.9-20.5,7-31.1,6.9c-15-0.1-30.5-3.6-43.2-13.6c4.5,11.5,14.8,16.5,23.4,22.3c-12.5,4.6-26.6-1.3-35.4-12.7
		c0.5,12.5-0.9,25.4,2.2,37.5c0.7,2.6,1.8,5.2,3.3,7.5h-29.7c7.2-12.9,4.3-30.2,4.9-45c-8.3,12.1-22.7,17.2-35.1,12.8
		c8.5-5.6,19.1-10.1,23.3-21.8c-10.2,8.5-22.6,11.6-34.7,12.8c-13.1,0.9-26.9,0.6-39-6.1c-1.8-0.8-4.4-3.7-2.4-5.8
		c4.8-2.8,10.4-2.9,15-6.3c0.9-0.6,1.8-2.4,0.5-3.2c-3.6-2.6-8.1-3.3-11.5-6.4c-1.3-1.1-0.9-3.7,0.5-4.4
		c16.5-6.6,32.8-15.2,47.3-26.9c-10.7,4.2-21.7,7.4-33,7.8c-3.3-0.1-7.2,0.2-9.8-2.6c5.3-4.5,14.1-4,17.2-11.5
		c-4.1-1.3-9.1,0.1-12.5-3.7c-1.6-2,1.1-3.6,2.5-3.9c12.9-3.8,26-8.1,37.1-17.2c1.2-1.1,2.8-2.2,3-4.3c-5.5,1.8-11.8,7.2-17.3,4
		c2.1-1.7,4.4-2.8,6.3-4.9c-4.5,0.5-9.1,1.8-13.5,0.1c-1.9-0.7-1.2-3.2-0.9-4.8c-3.5,1.1-10.4-2.2-6.4-7.2
		c11.5-7,25.7-8.8,35.5-19.7c-6,1.2-13,3.6-18.7,0c0.9-1.1,1.9-2.1,3-2.9c-2.9-1.1-7.9,0.5-9.2-3.6c2.5-3.4,6.7-4.3,10-6.2
		c-0.3-2.4-0.2-5.4,2.1-6.3c8-3.7,16.9-7.4,22.3-15.9c-3.7,1.3-7.3,4-11.3,3.2c0.2-2.5,2.2-3.7,3.3-5.4c-3.7-0.3-8.1,0.8-11.2-2.3
		c-2-2.1-0.1-5.3,1.6-6.6c7-5.8,15.3-9.1,22.3-14.9c-5,0.1-10.3,0.6-14.9-2.1c-2.2-1.1-2.5-4.8-0.7-6.6c5.4-6,12.6-8.9,18.5-14.1
		c-3.3-0.1-10.1,1.1-10.2-4.5c5.2-9,15.1-12,20-21.5c-2.3,0.3-6.1,2.1-7.4-1.1C581.6,263.6,585.1,262.6,587,259.7L587,259.7z"/>
	<path class="st1" d="M689.4,486.5c1.7,6.3,8.5,6.7,12.3,10.6c13.9,11.3,27.5,27.7,45.7,25.6c-15-7.6-27.6-20.4-41.2-30.9
		C701.3,488.3,695.3,484.1,689.4,486.5L689.4,486.5z M659.1,504.5c-10.7,8.8-23.4,12.7-35.4,18.1c10.6,4.1,21.9-1.3,31.5-6.9
		c11.4-6.1,24.3-16.2,24.9-33C673.3,490.2,666.8,498.3,659.1,504.5L659.1,504.5z M647.7,493.8c-8.4,8.2-19.3,10.5-28.8,15.9
		c25.2-0.3,48.5-20.9,59.7-47.6C664.9,467.1,659.1,484.6,647.7,493.8z M688.8,457.4c17.2,8.4,27.4,28.6,42.3,41
		c6.3,5.5,13.6,10.1,21.5,10.3c-14.1-6.7-25.3-19.7-35-33.4c-7.4-9.6-15.3-20.9-26.7-22.5C688.6,451.9,686.2,455.7,688.8,457.4
		L688.8,457.4z M687.2,433.2c6.5,4.7,13.3,9,19.4,14.5c9.1,8,17.8,19.2,29.9,18.8c-9.3-3.8-17.2-10.9-24-19.3
		C705.8,438.9,696.7,434.1,687.2,433.2z M669.7,445.5c-11.3,13.1-26,19.9-39.7,28.2c4.1,1.1,8.3-0.3,12.3-1.4
		c12.5-4.3,24.7-12.3,32.8-24.9c4.5-7.1,7.7-15.8,7.5-24.9C679.3,431,675.2,439,669.7,445.5L669.7,445.5z M641,437.5
		c-2.4,1.3-5.1,2-7.3,3.9c11.5,1.1,23-3.5,33-10.2c6.7-4.8,13-11.6,15.7-20.8C669.5,421.3,655.9,431.2,641,437.5z M687.4,400.2
		c0.1,9,4.7,16.9,10.2,22.6c10.3,10.1,23.4,15.6,36.5,17C716,432.2,698.2,420.1,687.4,400.2z M645.7,413.5
		c15.4-2.3,32.3-12.1,37.8-30.9C672.3,395.2,658.9,404.4,645.7,413.5z M686.5,373.8c0.6,22,19.3,36.5,35.8,38.4
		C707.2,405,692.3,393,686.5,373.8z M687.7,359c2,15.4,15.1,25.6,27.3,26.9C705.2,378.2,693.8,371.9,687.7,359z M658.1,386.1
		c11.8-1.9,24.7-12.3,25.4-27.9C677.5,370.5,667,377.3,658.1,386.1z M678.8,348.5c-4.4,6.8-11.3,9.9-16.6,15.5
		c9.5-0.5,20.2-8.7,20.8-21.2C681.2,344,680.4,346.8,678.8,348.5z M686.9,342.2c1.5,12.2,11.9,20.1,21.5,20.7
		c-4.7-4.3-10.5-7-14.8-12.2C691.1,348.1,689.4,344.7,686.9,342.2z M687.8,328.7c1.4,8.5,8.3,14.9,15.3,15.4
		C697.5,339.6,692,335.1,687.8,328.7z M668.5,344.3c7.2-0.8,14.2-7.5,14.6-16.7C679.3,334.4,673.7,339.1,668.5,344.3z M676.2,322.8
		c4.5-6.1,6.3-14.2,9.2-21.4c2.4,6.3,4.4,13,7.7,18.7c1.9,3.5,5.4,5.3,7.4,8.6c-0.3,3.3-4.3,2.3-6.3,1.7c4.3,7.2,12.6,9,16.6,16.4
		c1,5.6-5.5,5.3-8.5,5.6c5.1,5.2,12.9,7,16.4,14.1c-1.7,6.3-9,4.6-13.3,5.2c5.9,4.4,12.6,7.1,18.5,11.6c1.5,1.4,3.9,3.4,2.8,6
		c-2,3.2-5.6,2.8-8.6,3.3c0.9,1.1,2.3,1.9,2.6,3.5c-4.6,0.9-9.1-1.3-13.6-2.2c4.4,5.1,10.3,8,15.8,11c3.5,2,8,3.1,9.7,7.7
		c1.5,2,4.5,1.9,5.6,4.6c-0.7,2.8-3.8,2.4-5.7,3.1c0.7,1,1.4,2,2,3c-4.6,3.2-10.6,1.2-15.6,0.5c7.8,7.4,18.1,8.6,26.8,13.9
		c2.3,1.1,4.3,5,2.2,7.5c-2.5,2.3-6,1-9,1.5c0.5,0.9,1,1.7,1.6,2.6c-3.3,1-6.5-0.6-9.6-1.5c1.7,3.4,5.2,4.4,7.7,6.7
		c-2.8,2.3-6.4,0.2-9.5,0c8,8.8,19.4,9.5,29.1,13.9c1,0.4,1.7,1.8,0.7,2.7c-4.7,5.9-12,4.8-18.1,4.9c4.4,7.2,13,6.8,19.3,10
		c-8.7,5.7-20.1,3.6-28.5-2.2c1.3,4.7,5,7.4,8.4,9.7c7.5,4.6,15.5,7.5,23.6,9.9c1.4,0.3,3.2,2.1,1.9,3.9c-3,4.1-7.5,5.7-11.5,7.8
		c4.7,3,9.9,4.6,14.7,7.2c2,1,0.8,3.7-0.7,4.4c-8.2,5-17.6,6-26.7,5.9c-12.8-0.1-26.1-3.1-37-11.7c3.9,9.9,12.7,14.2,20,19.1
		c-10.8,3.9-22.8-1.1-30.3-10.9c0.5,10.7-0.8,21.7,1.9,32.1c0.6,2.2,1.5,4.5,2.8,6.4h-25.4c6.2-11,3.7-25.9,4.2-38.6
		c-7.1,10.3-19.5,14.8-30.1,11c7.3-4.8,16.4-8.7,20-18.6c-8.7,7.3-19.4,9.9-29.8,10.9c-11.2,0.8-23,0.5-33.4-5.2
		c-1.5-0.7-3.8-3.2-2-4.9c4.1-2.4,8.9-2.5,12.8-5.4c0.8-0.5,1.6-2.1,0.4-2.7c-3.1-2.2-6.9-2.8-9.8-5.5c-1.1-1-0.8-3.2,0.5-3.8
		c14.2-5.7,28.1-13,40.5-23c-9.1,3.6-18.6,6.3-28.3,6.7c-2.8-0.1-6.1,0.2-8.4-2.2c4.6-3.8,12.1-3.5,14.8-9.9
		c-3.5-1.1-7.8,0.1-10.7-3.1c-1.4-1.7,1-3.1,2.2-3.3c11-3.3,22.3-7,31.8-14.7c1.1-1,2.4-1.9,2.6-3.7c-4.7,1.5-10.1,6.2-14.9,3.4
		c1.8-1.4,3.8-2.4,5.4-4.2c-3.8,0.4-7.8,1.6-11.6,0.1c-1.6-0.6-1-2.7-0.8-4.1c-3,0.9-8.9-1.9-5.5-6.2c9.9-6,22-7.5,30.4-16.9
		c-5.2,1-11.2,3.1-16,0c0.8-1,1.7-1.8,2.6-2.5c-2.5-1-6.8,0.4-7.8-3.1c2.2-2.9,5.7-3.6,8.6-5.3c-0.2-2.1-0.2-4.6,1.8-5.4
		c6.9-3.2,14.5-6.4,19.1-13.6c-3.2,1.1-6.3,3.4-9.7,2.7c0.2-2.1,1.8-3.2,2.8-4.7c-3.2-0.2-6.9,0.7-9.6-2c-1.7-1.8-0.1-4.5,1.4-5.6
		c6-5,13.1-7.8,19.1-12.8c-4.3,0.1-8.8,0.5-12.7-1.8c-1.9-1-2.2-4.1-0.6-5.6c4.7-5.1,10.8-7.6,15.8-12c-2.8-0.1-8.7,1-8.7-3.9
		c4.4-7.7,12.9-10.3,17.1-18.4c-2,0.3-5.2,1.8-6.3-1C671.6,326.1,674.6,325.2,676.2,322.8L676.2,322.8z"/>
	<path class="st1" d="M939.6,526.5c1.7,6.3,8.5,6.7,12.3,10.6c13.9,11.3,27.5,27.7,45.7,25.6c-15-7.6-27.6-20.4-41.2-31
		C951.5,528.2,945.5,524,939.6,526.5z M909.3,544.5c-10.7,8.8-23.4,12.7-35.4,18.1c10.6,4.1,21.9-1.3,31.5-6.9
		c11.4-6.1,24.3-16.2,24.9-33C923.5,530.1,917,538.2,909.3,544.5z M897.9,533.7c-8.4,8.2-19.3,10.5-28.8,15.9
		c25.2-0.3,48.5-20.9,59.7-47.6C915.1,507,909.3,524.5,897.9,533.7z M939,497.4c17.2,8.4,27.4,28.6,42.3,41
		c6.3,5.5,13.6,10.1,21.5,10.3c-14.1-6.7-25.3-19.7-35-33.4c-7.4-9.6-15.3-20.9-26.7-22.5C938.8,491.9,936.4,495.6,939,497.4z
		 M937.4,473.1c6.5,4.7,13.3,9,19.4,14.5c9.1,8,17.8,19.2,29.9,18.8c-9.3-3.8-17.2-11-24-19.3C956.1,478.9,946.9,474,937.4,473.1z
		 M919.9,485.5c-11.3,13.1-26,19.9-39.7,28.2c4.1,1.1,8.3-0.3,12.3-1.4c12.5-4.3,24.7-12.3,32.8-24.8c4.5-7.1,7.7-15.8,7.5-24.9
		C929.5,470.9,925.4,479,919.9,485.5z M891.2,477.4c-2.4,1.3-5.1,2-7.3,3.9c11.5,1.1,23-3.5,32.9-10.2c6.7-4.8,13-11.6,15.7-20.8
		C919.8,461.3,906.1,471.1,891.2,477.4z M937.7,440.1c0.1,9,4.7,16.9,10.2,22.6c10.3,10.1,23.4,15.6,36.5,17
		C966.2,472.1,948.4,460,937.7,440.1z M895.9,453.4c15.4-2.3,32.3-12.1,37.8-30.9C922.5,435.1,909.1,444.3,895.9,453.4z
		 M936.7,413.7c0.6,22,19.3,36.5,35.8,38.4C957.4,444.9,942.6,432.9,936.7,413.7z M938,399c2,15.4,15.1,25.6,27.3,26.9
		C955.5,418.1,944,411.9,938,399z M908.4,426c11.8-1.9,24.7-12.3,25.4-27.9C927.7,410.4,917.2,417.2,908.4,426z M929,388.4
		c-4.4,6.8-11.3,9.9-16.6,15.5c9.5-0.5,20.2-8.7,20.8-21.2C931.4,383.9,930.6,386.7,929,388.4z M937.1,382.1
		c1.5,12.2,11.9,20.1,21.5,20.7c-4.7-4.3-10.5-7-14.8-12.2C941.4,388,939.6,384.6,937.1,382.1z M938,368.6
		c1.4,8.5,8.3,14.9,15.3,15.4C947.7,379.5,942.2,375,938,368.6z M918.8,384.2c7.2-0.8,14.2-7.5,14.6-16.7
		C929.5,374.3,923.9,379.1,918.8,384.2z M926.5,362.7c4.5-6.1,6.3-14.2,9.2-21.4c2.4,6.3,4.4,13,7.7,18.7c1.9,3.5,5.4,5.3,7.4,8.6
		c-0.3,3.3-4.3,2.3-6.3,1.7c4.3,7.2,12.6,9,16.6,16.4c1,5.6-5.5,5.3-8.5,5.6c5.1,5.2,12.9,7,16.4,14.1c-1.7,6.3-9,4.6-13.3,5.2
		c5.9,4.4,12.6,7.1,18.5,11.6c1.5,1.4,3.9,3.4,2.8,6c-2,3.2-5.7,2.8-8.6,3.3c0.9,1.1,2.3,1.9,2.6,3.5c-4.6,0.9-9.1-1.3-13.6-2.2
		c4.4,5.1,10.3,8,15.8,11c3.5,2,8,3.1,9.7,7.7c1.5,2,4.5,1.9,5.6,4.6c-0.7,2.8-3.8,2.4-5.7,3.1c0.7,1,1.4,2,2,3
		c-4.6,3.2-10.6,1.2-15.6,0.5c7.8,7.4,18.1,8.6,26.8,13.9c2.3,1.1,4.3,5,2.2,7.5c-2.5,2.3-6,1-9,1.5c0.5,0.9,1,1.7,1.5,2.6
		c-3.3,1-6.5-0.6-9.6-1.5c1.7,3.4,5.2,4.4,7.7,6.7c-2.7,2.3-6.4,0.2-9.5,0c8,8.8,19.4,9.5,29.1,13.9c1,0.4,1.7,1.8,0.7,2.7
		c-4.7,5.9-12,4.8-18.1,4.9c4.4,7.2,13,6.8,19.3,10c-8.7,5.7-20.1,3.6-28.5-2.2c1.3,4.7,5,7.4,8.4,9.7c7.5,4.6,15.5,7.5,23.6,9.9
		c1.4,0.3,3.2,2.1,1.9,3.9c-3,4.1-7.5,5.7-11.5,7.8c4.7,3,9.9,4.6,14.7,7.2c2,1,0.8,3.7-0.7,4.4c-8.2,5-17.6,6-26.7,5.9
		c-12.8-0.1-26.1-3.1-37-11.7c3.8,9.9,12.6,14.2,20,19.1c-10.8,3.9-22.8-1.1-30.3-10.9c0.5,10.7-0.8,21.7,1.9,32.1
		c0.6,2.2,1.5,4.5,2.8,6.4h-25.4c6.2-11,3.7-25.9,4.2-38.6c-7.1,10.3-19.4,14.8-30.1,11c7.3-4.8,16.4-8.7,19.9-18.6
		c-8.7,7.3-19.4,9.9-29.8,10.9c-11.2,0.8-23,0.5-33.4-5.2c-1.5-0.7-3.8-3.2-2-4.9c4.1-2.4,8.9-2.5,12.8-5.4c0.8-0.5,1.6-2.1,0.4-2.7
		c-3.1-2.2-6.9-2.8-9.8-5.5c-1.1-1-0.8-3.2,0.5-3.8c14.1-5.7,28.1-13,40.5-23c-9.2,3.6-18.6,6.3-28.3,6.7c-2.8-0.1-6.1,0.2-8.3-2.2
		c4.6-3.8,12.1-3.5,14.8-9.9c-3.5-1.1-7.8,0.1-10.7-3.1c-1.4-1.7,1-3.1,2.2-3.3c11-3.3,22.3-7,31.8-14.7c1.1-1,2.4-1.9,2.6-3.7
		c-4.7,1.5-10.1,6.2-14.9,3.4c1.8-1.4,3.8-2.4,5.4-4.2c-3.8,0.4-7.8,1.6-11.6,0.1c-1.6-0.6-1-2.7-0.8-4.1c-3,0.9-8.9-1.9-5.5-6.2
		c9.9-6,22-7.5,30.4-16.9c-5.2,1-11.2,3.1-16,0c0.8-1,1.7-1.8,2.6-2.5c-2.5-1-6.8,0.4-7.8-3.1c2.2-2.9,5.7-3.6,8.6-5.3
		c-0.2-2.1-0.2-4.6,1.8-5.4c6.9-3.2,14.5-6.4,19.1-13.6c-3.2,1.1-6.3,3.4-9.7,2.7c0.2-2.1,1.8-3.2,2.8-4.7c-3.2-0.2-6.9,0.7-9.6-2
		c-1.7-1.8-0.1-4.5,1.4-5.6c6-5,13.1-7.8,19.1-12.8c-4.2,0.1-8.8,0.5-12.7-1.8c-1.9-1-2.2-4.1-0.6-5.6c4.7-5.1,10.8-7.6,15.8-12
		c-2.8-0.1-8.7,1-8.7-3.9c4.4-7.7,12.9-10.3,17.1-18.4c-2,0.3-5.2,1.8-6.3-1C921.8,366,924.8,365.2,926.5,362.7L926.5,362.7z"/>
	<path class="st4" d="M860,476.1c1.6,5.8,7.9,6.2,11.4,9.8c12.8,10.4,25.4,25.6,42.2,23.6c-13.9-7.1-25.5-18.8-38-28.6
		C870.9,477.8,865.4,473.9,860,476.1L860,476.1z M832,492.8c-9.9,8.2-21.6,11.8-32.7,16.7c9.8,3.8,20.2-1.2,29.1-6.3
		c10.6-5.7,22.5-15,23-30.5C845.1,479.5,839,487,832,492.8L832,492.8z M821.4,482.8c-7.8,7.6-17.8,9.7-26.6,14.7
		c23.3-0.3,44.8-19.3,55.2-44C837.3,458.1,831.9,474.3,821.4,482.8L821.4,482.8z M859.4,449.3c15.9,7.7,25.3,26.4,39.1,37.9
		c5.8,5.1,12.6,9.3,19.9,9.5c-13-6.1-23.3-18.1-32.3-30.8c-6.8-8.8-14.1-19.3-24.7-20.8C859.2,444.2,856.9,447.6,859.4,449.3
		L859.4,449.3z M857.9,426.8c6,4.4,12.3,8.3,18,13.4c8.4,7.4,16.4,17.7,27.7,17.3c-8.6-3.5-15.9-10.1-22.2-17.8
		C875.1,432.2,866.7,427.7,857.9,426.8L857.9,426.8z M841.7,438.3c-10.4,12.1-24,18.4-36.7,26c3.8,1,7.7-0.3,11.4-1.3
		c11.6-3.9,22.8-11.3,30.3-23c4.2-6.6,7.1-14.6,6.9-23C850.6,424.8,846.9,432.2,841.7,438.3L841.7,438.3z M815.3,430.8
		c-2.2,1.2-4.7,1.8-6.7,3.6c10.6,1,21.2-3.2,30.4-9.4c6.2-4.5,12.1-10.7,14.5-19.2C841.6,415.9,829,425,815.3,430.8z M858.1,396.3
		c0.1,8.3,4.3,15.6,9.4,20.8c9.5,9.4,21.6,14.4,33.7,15.7C884.5,425.9,868.1,414.7,858.1,396.3L858.1,396.3z M819.6,408.7
		c14.2-2.1,29.8-11.2,34.9-28.5C844.1,391.8,831.8,400.2,819.6,408.7z M857.3,372c0.5,20.3,17.8,33.7,33.1,35.4
		C876.4,400.8,862.7,389.7,857.3,372z M858.4,358.4c1.9,14.2,14,23.7,25.2,24.9C874.6,376,864,370.3,858.4,358.4z M831.1,383.3
		c10.8-1.8,22.8-11.4,23.4-25.8C849,368.9,839.2,375.2,831.1,383.3z M850.2,348.6c-4.1,6.3-10.5,9.1-15.3,14.3
		c8.8-0.5,18.7-8,19.3-19.5C852.4,344.5,851.7,347,850.2,348.6z M857.6,342.8c1.4,11.3,11,18.6,19.8,19.1c-4.4-4-9.7-6.5-13.6-11.2
		C861.6,348.2,859.9,345.1,857.6,342.8L857.6,342.8z M858.4,330.3c1.3,7.9,7.7,13.8,14.1,14.2C867.4,340.4,862.3,336.2,858.4,330.3z
		 M840.7,344.7c6.7-0.7,13.1-6.9,13.5-15.4C850.6,335.6,845.4,340,840.7,344.7z M847.8,324.8c4.1-5.6,5.8-13.1,8.5-19.8
		c2.2,5.8,4,12,7.1,17.3c1.8,3.2,5,4.9,6.8,7.9c-0.3,3-4,2.1-5.8,1.6c4,6.6,11.6,8.3,15.3,15.2c1,5.2-5.1,4.9-7.9,5.1
		c4.7,4.8,11.9,6.5,15.1,13.1c-1.5,5.8-8.3,4.3-12.3,4.8c5.5,4.1,11.7,6.5,17.1,10.7c1.4,1.3,3.6,3.2,2.6,5.6
		c-1.8,2.9-5.2,2.6-7.9,3.1c0.9,1,2.1,1.7,2.4,3.3c-4.3,0.8-8.4-1.2-12.5-2.1c4.1,4.8,9.5,7.4,14.6,10.2c3.2,1.9,7.4,2.8,9,7.1
		c1.4,1.9,4.2,1.8,5.2,4.2c-0.6,2.6-3.5,2.2-5.3,2.9c0.7,0.9,1.3,1.8,1.8,2.8c-4.2,2.9-9.8,1.1-14.4,0.5c7.2,6.8,16.7,7.9,24.7,12.9
		c2.1,1,4,4.6,2,6.9c-2.3,2.1-5.6,0.9-8.3,1.4c0.5,0.8,1,1.6,1.4,2.4c-3,0.9-6-0.5-8.9-1.4c1.6,3.1,4.8,4,7.1,6.2
		c-2.5,2.1-5.9,0.2-8.8,0c7.4,8.1,17.9,8.7,26.8,12.9c0.9,0.4,1.5,1.7,0.6,2.5c-4.3,5.4-11.1,4.4-16.8,4.5c4,6.6,12,6.3,17.8,9.3
		c-8,5.3-18.6,3.3-26.3-2c1.2,4.3,4.6,6.9,7.8,8.9c6.9,4.3,14.3,6.9,21.8,9.1c1.3,0.3,2.9,2,1.8,3.6c-2.8,3.8-6.9,5.3-10.7,7.2
		c4.3,2.8,9.1,4.2,13.6,6.6c1.9,0.9,0.8,3.4-0.6,4c-7.6,4.7-16.3,5.6-24.6,5.5c-11.9-0.1-24.1-2.9-34.2-10.8
		c3.6,9.1,11.7,13.1,18.5,17.7c-9.9,3.6-21.1-1-28-10.1c0.4,9.9-0.7,20.1,1.7,29.7c0.5,2,1.4,4.1,2.6,5.9h-23.5
		c5.7-10.2,3.4-23.9,3.9-35.7c-6.6,9.6-18,13.6-27.8,10.2c6.8-4.4,15.1-8,18.4-17.2c-8,6.7-17.9,9.2-27.5,10.1
		c-10.4,0.7-21.3,0.5-30.9-4.8c-1.4-0.6-3.5-2.9-1.9-4.6c3.8-2.2,8.3-2.3,11.9-5c0.7-0.5,1.4-1.9,0.4-2.5c-2.9-2-6.4-2.6-9.1-5
		c-1-0.9-0.7-2.9,0.4-3.5c13.1-5.3,25.9-12,37.4-21.3c-8.4,3.3-17.2,5.9-26.1,6.2c-2.6-0.1-5.7,0.2-7.7-2.1
		c4.2-3.5,11.1-3.2,13.6-9.1c-3.2-1-7.2,0.1-9.9-2.9c-1.3-1.6,0.9-2.9,2-3.1c10.2-3,20.6-6.4,29.4-13.6c1-0.9,2.2-1.8,2.4-3.4
		c-4.4,1.4-9.3,5.7-13.7,3.2c1.6-1.3,3.5-2.3,5-3.8c-3.5,0.4-7.2,1.4-10.7,0.1c-1.5-0.6-1-2.5-0.7-3.8c-2.8,0.9-8.2-1.7-5.1-5.7
		c9.1-5.6,20.3-7,28.1-15.6c-4.8,1-10.3,2.9-14.8,0c0.7-0.9,1.5-1.7,2.4-2.3c-2.3-0.9-6.3,0.4-7.2-2.9c2-2.7,5.3-3.4,8-4.9
		c-0.2-1.9-0.2-4.3,1.7-4.9c6.3-3,13.3-5.9,17.7-12.5c-2.9,1-5.8,3.1-8.9,2.5c0.1-2,1.7-2.9,2.6-4.3c-2.9-0.2-6.4,0.6-8.8-1.8
		c-1.6-1.7-0.1-4.2,1.3-5.2c5.6-4.6,12.1-7.2,17.7-11.8c-3.9,0.1-8.1,0.5-11.8-1.7c-1.8-0.9-2-3.8-0.6-5.2c4.3-4.7,10-7,14.6-11.1
		c-2.6-0.1-8,0.9-8-3.6c4.1-7.1,12-9.5,15.8-17c-1.8,0.3-4.8,1.7-5.8-0.9C843.5,327.9,846.3,327.1,847.8,324.8L847.8,324.8z"/>
	<path class="st2" d="M0,801.1c65.5,7.9,107.3-32.4,165.8-28s119.9,29,224.2,29.5c101.2,0.4,80.5-64.6,215.8-66.2
		c56.2-0.7,99.4,33,151.7,31.5c59-1.6,221.4-57.9,266.5-58.2V1024H0C0,949.7,0,875.4,0,801.1z"/>
</g>
<g id="Слой_x0020_4">
	<path class="st2" d="M839.2,401.6c0,0-5.4,1.7-9.6-0.4c-4.3-2.1-5.9-9.6-5.9-9.6C826.5,390.9,836.3,394.9,839.2,401.6L839.2,401.6z
		 M819.2,471.3c16,4,34.9,15.6,43.9,16.6c9,1,19.5-9,28.5-14c9-5,30.5-13,30.5-20c0-7-69-51-69-51s-0.7-16.3-3.5-20.4
		c-3.9-5.7-24.5-18.6-24.5-18.6l-35.3-50.1c-1-1.5-3.3-1.2-3.9,0.5l-3.7,9.6l-30.5-23.7c-1.2-0.9-2.9-0.2-3.1,1.3l-6.9,47.5
		c0,0-4.9-2.9-11-3c-5.5-0.1-13.4,0.4-13.4,0.4l1.3,1.5c1.3,1.5,2.2,3.4,2.6,5.4l0.2,1c0,0-20.4-4.2-27.4-4.5
		c-7.1-0.3-28.5,2.3-28.5,2.3l2.2,1.7c3.7,2.9,6.6,6.7,8.4,11.1l-15.1-2l3.7,2.9c3.2,2.5,5.6,5.9,6.9,9.7l0.6,1.6l-10.7-1.1
		c-5.1-0.5-10.2-0.5-15.3,0l-9.6,1l2.1,1.3c3.8,2.2,7.3,5.1,10.2,8.4l0.4,0.5c0,0-32.8,17.3-81.8,23.3c-49,6-146.5,8.4-172.5,22.4
		c-26,14-67,31.9-84,33.9c-17,2-49,2.1-66-2.9c-11.5-3.4-39.4-24.2-58.1-36.1c-9-5.7-17.9-7.9-17.9-7.9l0.6,2.9
		c0.8,3.4,0.2,7-1.6,10.1c0,0-89.5-43.1-100.9-43.1c-0.3,0-0.5,0-0.6,0.1c-8,2-16.5-5-16.5-5S47.8,428,55.8,444
		c8,16,21.2,22.9,21.2,22.9l-0.2,0.1c-4,1.4-8.3,1.5-12.5,0.5l-2.6-0.6c0,0,14.3,17,26.3,24c12,7,25,12,25,12
		c-3.7,3.1-8.2,5-12.9,5.5l-4.1,0.4c0,0,31,23.1,53,32c22,9,54,24.5,54,24.5s-24,43.5-33,49.5c-9,6-28,26-28,26s-21-1-30,5
		c-2.9,1.9-9.7,4-12.1,5.3c-5.2,3-6.1,10-1.9,14.3c5.4,5.4,19.4,10.2,37.1,8.7c34-3,64.8-40.1,72.7-52.1c8-12,22.1-43.1,30.1-43.1
		c8,0,79,7.9,82,14c1.8,3.7-10.7,18.4-24.7,22.5c-14,4-39.5,7.4-46.5,10.4c-7,3-11.8,31.1-18.8,39.2c-7,8-23.1,20.1-25.1,29.1
		c-2,9-14,13.6-18.8,32.6c-2.1,8.5-5.6,13.5-3.9,24.4c1.2,7.4,10.3,13.8,20.4,8.9c11.1-5.3,27.4-27.1,29.4-35.1
		c2-8,38.9-70.1,50.9-75.1c12-5,74.1-19.9,104.1-34.9c30-15,56.8-48.4,75.9-59.6c12.6-7.4,86.1,0.6,94.1,8.6c8,8,0,18,0,18l3.6,1.3
		c6.3,2.3,13,3.2,19.7,2.5l7.8-0.8l-0.2,0.4c-2.5,4.4-6.1,8.1-10.5,10.7l-3.3,2c0,0,13.3,6.3,26.9,8.4c15.3,2.3,31.1-0.4,31.1-0.4
		v1.2c0,5.8-1.8,11.5-5,16.3l-1.5,2.2c0,0,8.4,5.5,22.7,8.1c28.8,5.2,73.9,10.2,69.9,16.3c-6,9-20,9-36,16c-16,7-61,27-47,42
		c14,15,36,9,52,4c16-5,87.9-44.9,87-56c-0.8-11-32.5-30.4-32.5-30.4s38.5-1.6,62.5,13.4c24,15,33.9,42.8,47.8,54.4
		c15.8,13.1,25.3,17.6,42.3,14.6c0.2,0,4.7-1.9,4.9-2c10.5-2,14.9-14.6,8-22.8c-6.3-7.4-21-16.2-35.3-26.6
		c-26-19-28.8-25.7-40.8-36.7c0,0-11.8-11.9-36.8-24.9c-25-13-57-20.9-57-20.9l-0.9-4.7c-2-10.8-1.6-21.9,1.4-32.5l2.5-8.9l0.1,0.4
		c1.6,5.4,2.5,11,2.8,16.7l0.1,2.9l5.5-10.5c2.6-4.9,4.1-10.3,4.5-15.8l1-12.7l1.3,2.1c1.8,3,3.2,6.3,4.1,9.8l1.6,6.2l3.3-13
		c1.3-5.4,1.8-10.9,1.4-16.4l-0.6-8.6c0,0,9-4,22-9C800.1,474.9,803.2,467.3,819.2,471.3L819.2,471.3z"/>
	<path class="st2" d="M639.5,369.9c-4.8,1-1.2,4-12.6,6.3c0.3,1.8,0.8,12-0.2,13.3c-0.8,1-1.6,1.7-3,2.4c-2.7,1.4-20.5,7.1-23.3,8.3
		l-9.1,3.4c-7.8,2.6,4.5-1.2-3.7,0.4c-17.8,3.5-40.2,4-58.1,5.7c-10.2,0.9-30.1,2.4-36.9,2.8c-1.9,0.1,0.4,0.1-4.3,0.2
		c-4,0.1-12.2,2.1-12.9,2.1c-9.2,0-27.1,1.2-28.9-0.1c-6.1-4.4-5.1-8.1-8.4-15.1c-3.6-7.7-3.2-22.5-2.2-32.7
		c0.5-4.5,14.5-22.5,18-23.4c1.5-0.4,2.3-0.8,4.2-1.1c3.6-0.9,9.1,0.5,14.3-0.7c6.5-1.5,12.9-5.6,18.6-7.4c1.5-0.5,4.2,0.1,5.3,2.5
		c3.1,6.6,6.1,11.6,5.8,14.1c-0.4,3-54.3,12.2-66.2,16c0,0-0.2,5.2-0.1,5.3c0.6,0.8,70.4-17.4,73.9-19c3.5-1.6,22.7-6.4,23.4-6.6
		c1.7-0.5,11.2-3.8,16.2-2.2c11.5,3.7,45.8,9.9,60,13.1c1.9,0.4,6.4,16.8,7.3,19.5c0.9,2.9,2.6,5.4,2.9,5.5c1.1,0.3-4.9-23-5.3-24.9
		c-1.2-5-7.1-6.2-6.5-6.2c1.6-0.1-41-6.8-55.9-11.6c-2.1-0.7-4.2-1.4-6.4-2.1c-1.7-0.6-3.5-1.2-5.2-1.8c-2.3-0.8,8.7-6.3,20-7.6
		c15.6-0.6,23.9-4.8,30.9,3.7c5,6.4,30.6,13.1,33.8,19.5c-0.8,0.1-0.4,3.9,0.4,10.2c0.3,2.4,0.4,1,0.6,2c1.8-0.3,11-5.1,14.6-4.7
		C641.8,359.3,643.4,368.3,639.5,369.9L639.5,369.9z"/>
</g>
</svg>
