<?xml version="1.0" encoding="UTF-8" standalone="no"?>
<!-- Generator: Adobe Illustrator 24.1.2, SVG Export Plug-In . SVG Version: 6.00 Build 0)  -->

<svg
   version="1.1"
   id="Слой_1"
   sodipodi:docname="favicon.svg"
   inkscape:version="1.1.2 (b8e25be833, 2022-02-05)"
   xmlns:inkscape="http://www.inkscape.org/namespaces/inkscape"
   xmlns:sodipodi="http://sodipodi.sourceforge.net/DTD/sodipodi-0.dtd"
   xmlns="http://www.w3.org/2000/svg"
   xmlns:svg="http://www.w3.org/2000/svg">
  <defs
     id="defs12" />
  <sodipodi:namedview
     id="namedview10"
     pagecolor="#ffffff"
     bordercolor="#111111"
     borderopacity="1"
     inkscape:pageshadow="0"
     inkscape:pageopacity="0"
     inkscape:pagecheckerboard="1"
     showgrid="false"
     inkscape:zoom="4.1733333"
     inkscape:cx="112.38019"
     inkscape:cy="74.880192"
     inkscape:window-width="1831"
     inkscape:window-height="1051"
     inkscape:window-x="80"
     inkscape:window-y="-9"
     inkscape:window-maximized="1"
     inkscape:current-layer="Слой_1" />
  <style
     type="text/css"
     id="style2">
	.st0{fill-rule:evenodd;clip-rule:evenodd;}
	#layer1{
		color:#009dcd
	}
</style>
  <g
     id="layer1"
     transform="matrix(1.362988,0,0,1.362988,-0.65337839,-0.61707959)"
     style="fill:#009dcd;fill-opacity:1">
    <path
       d="m 111.9,55.6 c 0,28.2 -22.1,51.3 -50.3,53.7 -0.1,0 -0.2,0 -0.3,0 -9.1,-1.5 -10.1,-9.7 -10.1,-9.7 0,0 1.4,0.7 3,1 -1.7,-3.3 -2.6,-7.1 -2.5,-10.8 l 2.9,1.8 c -0.8,-6.9 6,-13.7 12.8,-12.2 5.5,1.4 12,5.4 15.2,5.7 3.1,0.3 6.7,-3.1 9.8,-4.8 3.1,-1.7 10.5,-4.5 10.5,-6.9 C 102.9,71 79.1,55.8 79.1,55.8 79.3,46.9 74.6,46.1 69.4,42.3 L 57.3,25 c -1.5,-1.6 -2.2,2.9 -2.6,3.5 -16.3,-12.6 -9.9,-10.9 -14,8.7 -2.7,-0.8 -5.6,-1 -8.4,-0.9 0.7,0.8 1.3,1.7 1.4,2.7 -6.3,-1.2 -12.9,-1.5 -19.3,-0.7 1.6,1.1 2.9,2.6 3.6,4.4 L 12.8,42 c 1.7,1.2 3.4,2.8 3.9,4.9 -3.9,-0.6 -7,-0.4 -11,0.2 1.7,0.9 1.8,1.8 3.1,3.3 -2.5,1.8 -4.9,3.2 -7,4.5 0.4,-29.5 24.8,-53.2 55,-53.2 30.4,0 55.1,24.1 55.1,53.9 z"
       id="path4"
       style="fill:#009dcd;fill-opacity:1" />
    <path
       d="m 70.5,54.5 c 1.6,0.8 3.7,0.2 3.7,0.2 -1.1,-2.6 -4.8,-4.1 -5.9,-3.8 0,0 0.6,2.8 2.2,3.6 z"
       id="path6"
       style="fill:#009dcd;fill-opacity:1" />
  </g>
</svg>
