<?xml version="1.0" encoding="UTF-8" standalone="no"?>
<!-- Created with Inkscape (http://www.inkscape.org/) -->
<svg xmlns:dc="http://purl.org/dc/elements/1.1/" xmlns:cc="http://creativecommons.org/ns#" xmlns:rdf="http://www.w3.org/1999/02/22-rdf-syntax-ns#" xmlns:svg="http://www.w3.org/2000/svg" xmlns="http://www.w3.org/2000/svg" version="1.1" width="100%" height="100%" viewBox="0 0 89.139412 92.00157" id="svg2" xml:space="preserve"><metadata id="metadata22"><rdf:RDF><cc:Work rdf:about=""><dc:format>image/svg+xml</dc:format><dc:type rdf:resource="http://purl.org/dc/dcmitype/StillImage"/><dc:title/></cc:Work></rdf:RDF></metadata><defs id="defs20"/><g transform="translate(1.00025,0.99956977)" id="g4"><g id="g6"><path d="m 85.73,77.657 -7.298,-2.88 -2.88,-7.297 c -0.261,-0.666 -1.354,-0.666 -1.616,0 l -2.88,7.297 -7.297,2.88 c -0.333,0.129 -0.55,0.452 -0.55,0.809 0,0.357 0.217,0.679 0.55,0.808 l 7.297,2.88 2.88,7.298 c 0.129,0.332 0.452,0.55 0.809,0.55 0.357,0 0.679,-0.218 0.808,-0.55 l 2.88,-7.298 7.298,-2.88 c 0.332,-0.129 0.55,-0.451 0.55,-0.808 0,-0.357 -0.218,-0.68 -0.551,-0.809 z m -8.286,3.019 c -0.224,0.089 -0.4,0.266 -0.489,0.489 l -2.21,5.6 -2.211,-5.6 c -0.088,-0.224 -0.265,-0.4 -0.489,-0.489 l -5.6,-2.21 5.6,-2.211 c 0.225,-0.088 0.401,-0.265 0.489,-0.489 l 2.211,-5.6 2.21,5.6 c 0.089,0.225 0.266,0.401 0.489,0.489 l 5.6,2.211 -5.6,2.21 z" id="path8"/><path d="m 61.033,67.226 -4.544,-1.8 -1.8,-4.543 c -0.261,-0.666 -1.354,-0.666 -1.616,0 l -1.8,4.543 -4.543,1.8 c -0.333,0.129 -0.55,0.452 -0.55,0.809 0,0.357 0.217,0.679 0.55,0.808 l 4.543,1.793 1.8,4.551 c 0.129,0.332 0.452,0.55 0.809,0.55 0.357,0 0.679,-0.218 0.808,-0.55 l 1.8,-4.551 4.544,-1.793 c 0.333,-0.129 0.55,-0.451 0.55,-0.808 0,-0.357 -0.218,-0.681 -0.551,-0.809 z m -5.535,1.932 c -0.225,0.088 -0.4,0.265 -0.489,0.488 l -1.127,2.853 -1.128,-2.853 c -0.088,-0.224 -0.265,-0.4 -0.488,-0.488 l -2.85,-1.124 2.85,-1.128 c 0.224,-0.088 0.4,-0.265 0.488,-0.488 l 1.128,-2.853 1.127,2.853 c 0.089,0.224 0.265,0.4 0.489,0.488 l 2.849,1.128 -2.849,1.124 z" id="path10"/><path d="M 86.582,27.921 72.992,22.694 79.566,9.702 C 79.736,9.377 79.675,8.979 79.423,8.711 79.169,8.446 78.778,8.364 78.439,8.518 L 65.141,14.44 60.601,0.602 C 60.49,0.256 60.163,0.015 59.796,0.004 59.32,-0.033 59.097,0.222 58.964,0.562 L 53.746,14.15 40.761,7.577 C 40.435,7.41 40.037,7.465 39.77,7.72 39.504,7.975 39.426,8.368 39.576,8.704 l 5.919,13.298 -13.841,4.536 c -0.347,0.116 -0.587,0.435 -0.598,0.802 -0.007,0.37 0.214,0.703 0.557,0.835 l 13.964,5.358 -14.181,14.181 h 0.003 L 1.289,77.82 c -1.719,1.719 -1.719,4.51 0,6.231 l 2.071,2.074 c 0.862,0.859 1.99,1.291 3.121,1.291 1.127,0 2.255,-0.432 3.113,-1.291 L 41.983,53.744 41.979,53.74 53.148,42.572 57.589,55.51 c 0.119,0.347 0.441,0.581 0.809,0.587 0.003,0 0.006,0 0.014,0 0.359,0 0.682,-0.221 0.811,-0.557 l 5.229,-13.6 12.982,6.581 c 0.325,0.163 0.727,0.108 0.991,-0.149 0.269,-0.252 0.347,-0.646 0.197,-0.981 L 72.706,34.09 86.541,29.56 c 0.346,-0.115 0.587,-0.441 0.598,-0.809 0.007,-0.365 -0.213,-0.698 -0.557,-0.83 z M 40.75,52.512 c -0.03,0.031 -0.058,0.062 -0.084,0.092 L 8.365,84.896 c -0.502,0.503 -1.175,0.781 -1.884,0.781 -0.717,0 -1.39,-0.278 -1.892,-0.781 l -2.071,-2.07 c -1.039,-1.047 -1.039,-2.737 0,-3.776 l 30.106,-30.106 4.488,-4.489 5.848,5.848 1.229,-1.229 -5.848,-5.848 15.081,-15.08 c 0.506,-0.502 1.178,-0.781 1.891,-0.781 0.347,0 0.687,0.071 1.002,0.197 0.326,0.133 0.625,0.322 0.88,0.581 l 0.987,0.987 1.091,1.091 c 0.468,0.472 0.72,1.093 0.754,1.752 0.003,0.048 0.026,0.088 0.026,0.136 0,0.618 -0.244,1.188 -0.631,1.664 -0.059,0.067 -0.085,0.156 -0.149,0.217 L 40.75,52.512 z M 71.254,32.739 c -0.237,0.074 -0.428,0.248 -0.526,0.472 -0.099,0.228 -0.099,0.482 0,0.706 l 5.314,11.95 -11.661,-5.909 c -0.217,-0.108 -0.475,-0.129 -0.706,-0.037 -0.23,0.088 -0.411,0.269 -0.499,0.499 l -4.717,12.266 -3.912,-11.512 5.956,-5.956 c 0.388,-0.387 0.663,-0.842 0.876,-1.317 0.728,-1.616 0.455,-3.579 -0.876,-4.91 l -2.078,-2.078 c -0.278,-0.278 -0.621,-0.441 -0.95,-0.632 -0.673,-0.387 -1.399,-0.655 -2.16,-0.655 -1.127,0 -2.255,0.432 -3.117,1.287 L 46.942,32.169 46.228,31.925 34.52,27.428 46.948,23.354 c 0.238,-0.075 0.428,-0.248 0.526,-0.473 0.099,-0.227 0.099,-0.481 0,-0.706 L 42.16,10.232 53.82,16.133 c 0.218,0.112 0.476,0.126 0.703,0.038 0.228,-0.089 0.411,-0.269 0.499,-0.5 l 4.689,-12.204 4.078,12.429 c 0.075,0.23 0.248,0.421 0.473,0.522 0.228,0.099 0.481,0.099 0.706,0 L 76.91,11.101 71.003,22.77 c -0.108,0.217 -0.122,0.475 -0.034,0.703 0.088,0.227 0.271,0.41 0.499,0.499 l 12.208,4.692 -12.422,4.075 z" id="path12"/></g></g></svg>