<?xml version="1.0" encoding="UTF-8" standalone="no"?>
<!-- Generator: Adobe Illustrator 18.1.1, SVG Export Plug-In . SVG Version: 6.00 Build 0)  -->

<svg
   version="1.1"
   id="Capa_1"
   x="0px"
   y="0px"
   viewBox="0 0 487.048 487.048"
   style="enable-background:new 0 0 487.048 487.048;"
   xml:space="preserve"
   sodipodi:docname="box.svg"
   inkscape:version="1.1.2 (b8e25be833, 2022-02-05)"
   xmlns:inkscape="http://www.inkscape.org/namespaces/inkscape"
   xmlns:sodipodi="http://sodipodi.sourceforge.net/DTD/sodipodi-0.dtd"
   xmlns="http://www.w3.org/2000/svg"
   xmlns:svg="http://www.w3.org/2000/svg"><defs
   id="defs48" /><sodipodi:namedview
   id="namedview46"
   pagecolor="#ffffff"
   bordercolor="#111111"
   borderopacity="1"
   inkscape:pageshadow="0"
   inkscape:pageopacity="0"
   inkscape:pagecheckerboard="1"
   showgrid="false"
   inkscape:lockguides="true"
   inkscape:zoom="1.2409339"
   inkscape:cx="243.3651"
   inkscape:cy="288.89533"
   inkscape:window-width="1831"
   inkscape:window-height="1051"
   inkscape:window-x="80"
   inkscape:window-y="-9"
   inkscape:window-maximized="1"
   inkscape:current-layer="g10" />
<g
   id="g13">
	<g
   id="Icons_14_">
		<g
   id="g10"
   style="display:inline">
			
			
			
			<path
   d="M 475.34141,107.73552 C 467.16031,98.165042 455.25374,92.682105 442.64828,92.682105 H 211.89696 c -21.32669,0 -39.19374,15.290395 -42.51742,36.381295 l -33.09611,211.72825 c -1.92348,12.4202 1.65282,25.02086 9.82429,34.5733 8.1811,9.57048 20.08767,15.05703 32.69313,15.05703 h 230.75252 c 21.32789,0 39.19134,-15.29401 42.51622,-36.38491 L 485.1645,142.31242 c 1.92349,-12.42382 -1.6492,-25.02446 -9.82309,-34.5769 z m -63.05739,240.07159 c -0.21413,1.36532 -1.35931,2.35894 -2.73065,2.35894 H 178.80085 c -0.80837,0 -1.57464,-0.36208 -2.10512,-0.96595 -0.52809,-0.61589 -0.74581,-1.44111 -0.62672,-2.22902 l 33.0973,-211.67892 c 0.21654,-1.36653 1.35811,-2.35895 2.73185,-2.35895 h 74.37814 l -9.67154,52.08069 c -0.73137,3.92997 0.31277,7.98744 2.88222,11.06451 2.55862,3.08672 6.35506,4.86344 10.3608,4.86344 h 46.80346 c 6.48737,0 12.06535,-4.62645 13.24421,-11.00437 l 10.59899,-57.00186 h 82.15384 c 0.80837,0 1.57704,0.36569 2.10512,0.96475 0.52809,0.62071 0.74461,1.44592 0.62673,2.23022 z"
   id="path8"
   style="stroke-width:1.20293" />
		</g>
	</g>
</g>
<g
   id="g15">
</g>
<g
   id="g17">
</g>
<g
   id="g19">
</g>
<g
   id="g21">
</g>
<g
   id="g23">
</g>
<g
   id="g25">
</g>
<g
   id="g27">
</g>
<g
   id="g29">
</g>
<g
   id="g31">
</g>
<g
   id="g33">
</g>
<g
   id="g35">
</g>
<g
   id="g37">
</g>
<g
   id="g39">
</g>
<g
   id="g41">
</g>
<g
   id="g43">
</g>
</svg>
